<?xml version="1.0" encoding="utf-8"?>
<!-- Generator: Adobe Illustrator 24.0.0, SVG Export Plug-In . SVG Version: 6.00 Build 0)  -->
<svg version="1.1" id="Capa_1" xmlns="http://www.w3.org/2000/svg" xmlns:xlink="http://www.w3.org/1999/xlink" x="0px" y="0px"
	 viewBox="0 0 3000 1800" style="enable-background:new 0 0 3000 1800;" xml:space="preserve">
<style type="text/css">
	.st0{fill:#1D5D88;}
	.st1{fill:#808181;}
	.st2{fill:#003461;}
	.st3{fill:#000E35;}
</style>
<g>
	<path d="M1422.3,2904.2l-8.2,19.2h4.4l1.6-4.1h8.5l1.6,4.1h4.5l-8.2-19.2H1422.3z M1421.4,2915.9l2.9-7.3l2.9,7.3H1421.4z"/>
	<path d="M1450.7,2913.6c-0.2-0.1-0.3-0.1-0.5-0.2c0.7-0.4,1.3-0.9,1.7-1.6c0.5-0.7,0.7-1.6,0.7-2.6c0-1.5-0.6-2.7-1.8-3.6
		c-1.2-0.9-2.9-1.4-5.2-1.4h-9v19.2h9.5c2.4,0,4.3-0.5,5.5-1.4c1.2-0.9,1.9-2.2,1.9-3.9c0-1.1-0.2-2.1-0.7-2.8
		C1452.3,2914.5,1451.6,2914,1450.7,2913.6z M1445.1,2907.5c1,0,1.8,0.2,2.4,0.6c0.6,0.4,0.8,0.9,0.8,1.7c0,0.8-0.3,1.3-0.8,1.7
		c-0.6,0.4-1.3,0.6-2.4,0.6h-4.2v-4.5H1445.1z M1448.4,2919.5c-0.6,0.4-1.4,0.6-2.5,0.6h-5v-4.7h5c1.1,0,1.9,0.2,2.5,0.6
		c0.6,0.4,0.9,1,0.9,1.8C1449.2,2918.5,1448.9,2919.1,1448.4,2919.5z"/>
	<path d="M1472.9,2906.7c-0.9-0.9-2-1.6-3.2-2.1c-1.2-0.5-2.6-0.7-4-0.7c-1.4,0-2.8,0.2-4,0.7c-1.2,0.5-2.3,1.2-3.2,2.1
		c-0.9,0.9-1.6,1.9-2.1,3.2c-0.5,1.2-0.7,2.5-0.7,3.9c0,1.4,0.3,2.7,0.7,3.9c0.5,1.2,1.2,2.3,2.1,3.2c0.9,0.9,2,1.6,3.2,2.1
		c1.2,0.5,2.6,0.7,4,0.7c1.4,0,2.8-0.2,4-0.7c1.2-0.5,2.3-1.2,3.2-2.1c0.9-0.9,1.6-1.9,2.1-3.2c0.5-1.2,0.8-2.5,0.8-4
		c0-1.4-0.3-2.8-0.8-4C1474.5,2908.6,1473.8,2907.6,1472.9,2906.7z M1471,2916.3c-0.3,0.7-0.7,1.4-1.2,1.9s-1.1,1-1.8,1.3
		c-0.7,0.3-1.5,0.4-2.3,0.4c-0.8,0-1.6-0.1-2.3-0.4c-0.7-0.3-1.3-0.7-1.8-1.3c-0.5-0.5-0.9-1.2-1.2-2c-0.3-0.8-0.4-1.6-0.4-2.5
		c0-0.9,0.1-1.7,0.4-2.5c0.3-0.7,0.7-1.4,1.2-1.9s1.1-1,1.8-1.3c0.7-0.3,1.5-0.4,2.3-0.4c0.8,0,1.6,0.1,2.3,0.4
		c0.7,0.3,1.3,0.7,1.8,1.3c0.5,0.5,0.9,1.2,1.2,1.9c0.3,0.8,0.4,1.6,0.4,2.5C1471.5,2914.7,1471.3,2915.5,1471,2916.3z"/>
	<path d="M1483.8,2909.3c0.5-0.5,1.2-1,1.9-1.3s1.6-0.4,2.4-0.4c0.9,0,1.8,0.2,2.6,0.5c0.8,0.4,1.5,0.9,2.2,1.6l2.7-2.6
		c-0.9-1.1-2-1.9-3.3-2.5c-1.3-0.6-2.8-0.8-4.4-0.8c-1.5,0-2.8,0.2-4.1,0.7c-1.2,0.5-2.3,1.2-3.2,2.1c-0.9,0.9-1.6,1.9-2.1,3.2
		c-0.5,1.2-0.7,2.5-0.7,4c0,1.4,0.2,2.8,0.7,4c0.5,1.2,1.2,2.3,2.1,3.2c0.9,0.9,2,1.6,3.2,2.1c1.2,0.5,2.6,0.7,4,0.7
		c1.3,0,2.6-0.2,4-0.6c1.3-0.4,2.5-1,3.5-1.8v-7.8h-3.9v5.6c-0.3,0.2-0.6,0.3-0.9,0.4c-0.8,0.3-1.6,0.4-2.5,0.4
		c-0.9,0-1.7-0.1-2.4-0.4c-0.7-0.3-1.4-0.7-1.9-1.3c-0.5-0.6-0.9-1.2-1.2-2c-0.3-0.7-0.4-1.6-0.4-2.5c0-0.9,0.1-1.7,0.4-2.5
		C1482.9,2910.5,1483.3,2909.9,1483.8,2909.3z"/>
	<path d="M1505.1,2904.2l-8.2,19.2h4.4l1.6-4.1h8.5l1.6,4.1h4.5l-8.2-19.2H1505.1z M1504.2,2915.9l2.9-7.3l2.9,7.3H1504.2z"/>
	<path d="M1533.1,2905.4c-1.5-0.8-3.3-1.2-5.3-1.2h-8.4v19.2h8.4c2,0,3.8-0.4,5.3-1.2c1.5-0.8,2.7-1.9,3.6-3.3
		c0.9-1.4,1.3-3.1,1.3-5.1c0-2-0.4-3.6-1.3-5.1C1535.8,2907.3,1534.6,2906.2,1533.1,2905.4z M1532.9,2916.9
		c-0.5,0.9-1.2,1.6-2.1,2.1s-2,0.7-3.2,0.7h-3.9v-11.9h3.9c1.2,0,2.3,0.2,3.2,0.7s1.6,1.2,2.1,2.1c0.5,0.9,0.7,1.9,0.7,3.2
		C1533.7,2915,1533.4,2916,1532.9,2916.9z"/>
	<path d="M1557.3,2906.7c-0.9-0.9-2-1.6-3.2-2.1c-1.2-0.5-2.6-0.7-4-0.7c-1.4,0-2.8,0.2-4,0.7c-1.2,0.5-2.3,1.2-3.2,2.1
		c-0.9,0.9-1.6,1.9-2.1,3.2c-0.5,1.2-0.7,2.5-0.7,3.9c0,1.4,0.3,2.7,0.7,3.9c0.5,1.2,1.2,2.3,2.1,3.2c0.9,0.9,2,1.6,3.2,2.1
		c1.2,0.5,2.6,0.7,4,0.7c1.4,0,2.8-0.2,4-0.7c1.2-0.5,2.3-1.2,3.2-2.1c0.9-0.9,1.6-1.9,2.1-3.2c0.5-1.2,0.8-2.5,0.8-4
		c0-1.4-0.3-2.8-0.8-4C1558.9,2908.6,1558.2,2907.6,1557.3,2906.7z M1555.4,2916.3c-0.3,0.7-0.7,1.4-1.2,1.9s-1.1,1-1.8,1.3
		c-0.7,0.3-1.5,0.4-2.3,0.4s-1.6-0.1-2.3-0.4c-0.7-0.3-1.3-0.7-1.8-1.3c-0.5-0.5-0.9-1.2-1.2-2c-0.3-0.8-0.4-1.6-0.4-2.5
		c0-0.9,0.1-1.7,0.4-2.5c0.3-0.7,0.7-1.4,1.2-1.9s1.1-1,1.8-1.3c0.7-0.3,1.5-0.4,2.3-0.4s1.6,0.1,2.3,0.4c0.7,0.3,1.3,0.7,1.8,1.3
		c0.5,0.5,0.9,1.2,1.2,1.9c0.3,0.8,0.4,1.6,0.4,2.5C1555.9,2914.7,1555.7,2915.5,1555.4,2916.3z"/>
	<path d="M1575.1,2913.7c-0.6-0.4-1.3-0.7-2.1-1c-0.8-0.2-1.5-0.4-2.3-0.6c-0.8-0.2-1.5-0.4-2.1-0.5c-0.6-0.2-1.1-0.4-1.5-0.7
		c-0.4-0.3-0.6-0.7-0.6-1.2c0-0.4,0.1-0.8,0.3-1.1c0.2-0.3,0.6-0.6,1.1-0.8c0.5-0.2,1.2-0.3,2-0.3c0.8,0,1.7,0.1,2.5,0.4
		s1.7,0.6,2.6,1.1l1.3-3.4c-0.9-0.6-1.9-1-3-1.3c-1.1-0.3-2.3-0.4-3.4-0.4c-1.7,0-3.2,0.3-4.3,0.8c-1.1,0.5-2,1.3-2.6,2.2
		c-0.6,0.9-0.9,1.9-0.9,3c0,1,0.2,1.9,0.6,2.5c0.4,0.7,0.9,1.2,1.5,1.6c0.6,0.4,1.3,0.7,2.1,1s1.5,0.5,2.3,0.6
		c0.8,0.2,1.5,0.4,2.1,0.5c0.6,0.2,1.1,0.4,1.5,0.7c0.4,0.3,0.6,0.7,0.6,1.2c0,0.4-0.1,0.8-0.4,1.1c-0.2,0.3-0.6,0.6-1.1,0.7
		c-0.5,0.2-1.2,0.3-2,0.3c-1.1,0-2.2-0.2-3.3-0.6c-1.1-0.4-2-0.9-2.8-1.4l-1.4,3.3c0.8,0.7,1.9,1.2,3.3,1.6c1.4,0.4,2.8,0.6,4.2,0.6
		c1.8,0,3.2-0.3,4.4-0.8c1.1-0.5,2-1.3,2.6-2.2c0.6-0.9,0.9-1.9,0.9-3c0-1-0.2-1.8-0.6-2.5
		C1576.3,2914.6,1575.8,2914.1,1575.1,2913.7z"/>
	<path d="M1592.5,2909.3c0.5-0.5,1.1-1,1.9-1.3c0.7-0.3,1.5-0.4,2.4-0.4c0.9,0,1.8,0.2,2.5,0.6c0.8,0.4,1.5,0.9,2.1,1.7l2.7-2.6
		c-0.9-1.1-2-2-3.3-2.5c-1.3-0.6-2.7-0.9-4.3-0.9c-1.4,0-2.8,0.2-4,0.7c-1.2,0.5-2.3,1.2-3.2,2.1s-1.6,1.9-2.1,3.2
		c-0.5,1.2-0.8,2.5-0.8,4c0,1.4,0.3,2.8,0.8,4c0.5,1.2,1.2,2.3,2.1,3.2c0.9,0.9,2,1.6,3.2,2.1c1.2,0.5,2.5,0.7,4,0.7
		c1.6,0,3.1-0.3,4.4-0.9c1.3-0.6,2.4-1.4,3.3-2.5l-2.7-2.6c-0.6,0.8-1.3,1.3-2.1,1.7c-0.8,0.4-1.6,0.6-2.5,0.6
		c-0.9,0-1.7-0.1-2.4-0.4c-0.7-0.3-1.3-0.7-1.9-1.3c-0.5-0.5-0.9-1.2-1.2-1.9c-0.3-0.8-0.4-1.6-0.4-2.5c0-0.9,0.1-1.7,0.4-2.5
		C1591.5,2910.5,1591.9,2909.9,1592.5,2909.3z"/>
	<path d="M1622.7,2906.7c-0.9-0.9-2-1.6-3.2-2.1c-1.2-0.5-2.6-0.7-4-0.7c-1.4,0-2.8,0.2-4,0.7c-1.2,0.5-2.3,1.2-3.2,2.1
		c-0.9,0.9-1.6,1.9-2.1,3.2s-0.7,2.5-0.7,3.9c0,1.4,0.2,2.7,0.7,3.9s1.2,2.3,2.1,3.2c0.9,0.9,2,1.6,3.2,2.1c1.2,0.5,2.6,0.7,4,0.7
		c1.4,0,2.8-0.2,4-0.7c1.2-0.5,2.3-1.2,3.2-2.1c0.9-0.9,1.6-1.9,2.1-3.2c0.5-1.2,0.8-2.5,0.8-4c0-1.4-0.3-2.8-0.8-4
		C1624.3,2908.6,1623.6,2907.6,1622.7,2906.7z M1620.8,2916.3c-0.3,0.7-0.7,1.4-1.2,1.9c-0.5,0.5-1.1,1-1.8,1.3
		c-0.7,0.3-1.5,0.4-2.3,0.4c-0.8,0-1.6-0.1-2.3-0.4c-0.7-0.3-1.3-0.7-1.8-1.3c-0.5-0.5-0.9-1.2-1.2-2c-0.3-0.8-0.4-1.6-0.4-2.5
		c0-0.9,0.1-1.7,0.4-2.5c0.3-0.7,0.7-1.4,1.2-1.9c0.5-0.5,1.1-1,1.8-1.3c0.7-0.3,1.5-0.4,2.3-0.4c0.8,0,1.6,0.1,2.3,0.4
		c0.7,0.3,1.3,0.7,1.8,1.3c0.5,0.5,0.9,1.2,1.2,1.9c0.3,0.8,0.4,1.6,0.4,2.5C1621.2,2914.7,1621.1,2915.5,1620.8,2916.3z"/>
	<polygon points="1641.4,2915.8 1632.3,2904.2 1628.7,2904.2 1628.7,2923.4 1633,2923.4 1633,2911.7 1642.1,2923.4 1645.6,2923.4 
		1645.6,2904.2 1641.4,2904.2 	"/>
	<path d="M1661.8,2913.7c-0.6-0.4-1.3-0.7-2.1-1s-1.5-0.4-2.3-0.6c-0.8-0.2-1.5-0.4-2.1-0.5c-0.6-0.2-1.1-0.4-1.5-0.7
		c-0.4-0.3-0.6-0.7-0.6-1.2c0-0.4,0.1-0.8,0.3-1.1c0.2-0.3,0.6-0.6,1.1-0.8c0.5-0.2,1.2-0.3,2-0.3s1.7,0.1,2.5,0.4s1.7,0.6,2.6,1.1
		l1.3-3.4c-0.9-0.6-1.9-1-3-1.3c-1.1-0.3-2.3-0.4-3.4-0.4c-1.7,0-3.2,0.3-4.3,0.8c-1.1,0.5-2,1.3-2.6,2.2c-0.6,0.9-0.9,1.9-0.9,3
		c0,1,0.2,1.9,0.6,2.5c0.4,0.7,0.9,1.2,1.5,1.6c0.6,0.4,1.3,0.7,2.1,1s1.5,0.5,2.3,0.6c0.8,0.2,1.5,0.4,2.1,0.5
		c0.6,0.2,1.1,0.4,1.5,0.7c0.4,0.3,0.6,0.7,0.6,1.2c0,0.4-0.1,0.8-0.4,1.1c-0.2,0.3-0.6,0.6-1.1,0.7c-0.5,0.2-1.2,0.3-2,0.3
		c-1.1,0-2.2-0.2-3.3-0.6c-1.1-0.4-2-0.9-2.8-1.4l-1.4,3.3c0.8,0.7,1.9,1.2,3.3,1.6c1.4,0.4,2.8,0.6,4.2,0.6c1.8,0,3.2-0.3,4.4-0.8
		c1.1-0.5,2-1.3,2.6-2.2c0.6-0.9,0.9-1.9,0.9-3c0-1-0.2-1.8-0.6-2.5C1662.9,2914.6,1662.4,2914.1,1661.8,2913.7z"/>
	<path d="M1679.1,2914.8c0,1.8-0.4,3.1-1.1,3.9c-0.7,0.8-1.7,1.2-3,1.2c-1.3,0-2.3-0.4-3-1.2c-0.7-0.8-1.1-2.1-1.1-3.9v-10.6h-4.3
		v10.7c0,2.8,0.7,5,2.2,6.5c1.5,1.5,3.5,2.3,6.1,2.3c2.6,0,4.7-0.8,6.1-2.3c1.5-1.5,2.2-3.7,2.2-6.5v-10.7h-4.2V2914.8z"/>
	<polygon points="1691.8,2904.2 1687.5,2904.2 1687.5,2923.4 1701.1,2923.4 1701.1,2919.7 1691.8,2919.7 	"/>
	<polygon points="1699.7,2907.8 1705.6,2907.8 1705.6,2923.4 1709.8,2923.4 1709.8,2907.8 1715.7,2907.8 1715.7,2904.2 
		1699.7,2904.2 	"/>
	<path d="M1733.9,2906.7c-0.9-0.9-2-1.6-3.2-2.1c-1.2-0.5-2.6-0.7-4-0.7c-1.4,0-2.8,0.2-4,0.7c-1.2,0.5-2.3,1.2-3.2,2.1
		c-0.9,0.9-1.6,1.9-2.1,3.2c-0.5,1.2-0.8,2.5-0.8,3.9c0,1.4,0.2,2.7,0.8,3.9c0.5,1.2,1.2,2.3,2.1,3.2c0.9,0.9,2,1.6,3.2,2.1
		c1.2,0.5,2.6,0.7,4,0.7c1.4,0,2.8-0.2,4-0.7c1.2-0.5,2.3-1.2,3.2-2.1c0.9-0.9,1.6-1.9,2.1-3.2c0.5-1.2,0.8-2.5,0.8-4
		c0-1.4-0.3-2.8-0.8-4C1735.5,2908.6,1734.8,2907.6,1733.9,2906.7z M1732,2916.3c-0.3,0.7-0.7,1.4-1.2,1.9c-0.5,0.5-1.1,1-1.8,1.3
		c-0.7,0.3-1.5,0.4-2.3,0.4s-1.6-0.1-2.3-0.4c-0.7-0.3-1.3-0.7-1.8-1.3c-0.5-0.5-0.9-1.2-1.2-2c-0.3-0.8-0.4-1.6-0.4-2.5
		c0-0.9,0.1-1.7,0.4-2.5c0.3-0.7,0.7-1.4,1.2-1.9c0.5-0.5,1.1-1,1.8-1.3c0.7-0.3,1.5-0.4,2.3-0.4s1.6,0.1,2.3,0.4
		c0.7,0.3,1.3,0.7,1.8,1.3c0.5,0.5,0.9,1.2,1.2,1.9c0.3,0.8,0.4,1.6,0.4,2.5C1732.4,2914.7,1732.3,2915.5,1732,2916.3z"/>
	<path d="M1752.2,2917.2c1.2-0.5,2.1-1.3,2.8-2.4s1-2.3,1-3.7c0-1.4-0.3-2.7-1-3.7c-0.6-1-1.6-1.8-2.8-2.4c-1.2-0.6-2.6-0.8-4.3-0.8
		h-8v19.2h4.3v-5.3h3.7c0.1,0,0.1,0,0.2,0l3.5,5.4h4.6L1752.2,2917.2C1752.2,2917.2,1752.2,2917.2,1752.2,2917.2z M1750.6,2908.7
		c0.6,0.6,1,1.4,1,2.5c0,1-0.3,1.9-1,2.5c-0.6,0.6-1.6,0.9-2.9,0.9h-3.5v-6.7h3.5C1749,2907.8,1750,2908.1,1750.6,2908.7z"/>
	<polygon points="1763.5,2915.4 1772.1,2915.4 1772.1,2911.9 1763.5,2911.9 1763.5,2907.7 1773.2,2907.7 1773.2,2904.2 
		1759.3,2904.2 1759.3,2923.4 1773.6,2923.4 1773.6,2919.8 1763.5,2919.8 	"/>
	<path d="M1790.2,2915.3c-0.4-0.7-0.9-1.2-1.5-1.6s-1.3-0.7-2.1-1c-0.8-0.2-1.5-0.4-2.3-0.6s-1.5-0.4-2.1-0.5
		c-0.6-0.2-1.1-0.4-1.5-0.7c-0.4-0.3-0.6-0.7-0.6-1.2c0-0.4,0.1-0.8,0.3-1.1c0.2-0.3,0.6-0.6,1.1-0.8c0.5-0.2,1.2-0.3,2-0.3
		c0.8,0,1.7,0.1,2.5,0.4c0.9,0.2,1.7,0.6,2.6,1.1l1.3-3.4c-0.9-0.6-1.9-1-3-1.3c-1.1-0.3-2.3-0.4-3.4-0.4c-1.7,0-3.2,0.3-4.3,0.8
		c-1.2,0.5-2,1.3-2.6,2.2c-0.6,0.9-0.9,1.9-0.9,3c0,1,0.2,1.9,0.6,2.5c0.4,0.7,0.9,1.2,1.5,1.6c0.6,0.4,1.3,0.7,2.1,1
		c0.8,0.3,1.5,0.5,2.3,0.6c0.8,0.2,1.5,0.4,2.1,0.5c0.6,0.2,1.1,0.4,1.5,0.7c0.4,0.3,0.6,0.7,0.6,1.2c0,0.4-0.1,0.8-0.4,1.1
		c-0.2,0.3-0.6,0.6-1.1,0.7c-0.5,0.2-1.2,0.3-2,0.3c-1.1,0-2.2-0.2-3.3-0.6s-2-0.9-2.8-1.4l-1.4,3.3c0.8,0.7,1.9,1.2,3.3,1.6
		c1.4,0.4,2.8,0.6,4.2,0.6c1.8,0,3.2-0.3,4.4-0.8c1.1-0.5,2-1.3,2.6-2.2s0.9-1.9,0.9-3C1790.8,2916.7,1790.6,2915.9,1790.2,2915.3z"
		/>
	<path d="M1420.2,2777.7c1.4-2,3.5-3.1,6.5-3.1l6.2-0.1v37.1c0,1.8-0.1,3.3-0.3,4.5c-0.2,1.2-0.6,2.1-1.3,2.7
		c-0.7,0.6-1.8,0.9-3.4,1v3.3h18.6v-4.1c-0.9,0.1-1.9,0.1-3,0.1c-1.1,0-2.1,0.1-3,0.2c0.1-0.6,0.2-1.5,0.2-2.6c0-1.1,0-2.3,0-3.6
		l0.1-38.7h5.3c2.3,0,4.2,0.4,5.5,1.3c1.3,0.9,2.3,2.4,2.9,4.2c0.6,1.9,0.9,2.9,1,5.8h3.4l-0.4-14.8h-43.3l-0.4,14.8h3.4
		C1418.1,2781.6,1418.8,2779.7,1420.2,2777.7z"/>
	<path d="M1455.4,2793.8c0.4,0,1-0.1,1.7-0.1c0.7,0,1.3,0,1.8-0.1c0,0.4-0.1,1-0.1,1.7c0,0.7-0.1,1.5-0.1,2.2v18.5
		c0,1.2-0.1,2.1-0.3,2.8c-0.2,0.7-0.5,1.1-1,1.4s-1.1,0.4-2,0.4v2.6h24.7l0.2-9.8h-2.6c0,1.7-0.3,3.1-0.8,4.1
		c-0.6,1-1.3,1.7-2.2,2.1s-1.9,0.6-3,0.6l-7.2,0c0.1-0.4,0.1-1,0.1-1.6c0-0.7,0-1.5,0-2.3v-8.6l1.9-0.1c1,0,1.9,0,2.7,0.1
		c0.7,0.1,1.3,0.5,1.7,1.1c0.4,0.6,0.6,1.5,0.6,2.9h2.6V2801h-3.1l0.2,4l-6.6,0v-7.1c0-1.2,0.1-2.2,0.3-2.8c0.2-0.6,0.5-1.1,1-1.3
		c0.5-0.2,1.1-0.4,2-0.4l2.5,0c1,0,1.9,0.1,2.8,0.4c0.9,0.3,1.7,0.9,2.2,1.8c0.6,0.9,0.9,2.2,0.9,4h2.6l-0.3-8.7h-23.3V2793.8z"/>
	<path d="M1497.7,2820.2c-0.3,0-0.7,0-1.1,0c-0.5,0-1,0-1.4,0c-0.5,0-0.9,0-1.3,0.1c0.1-0.4,0.1-1,0.1-1.7c0-0.7,0-1.5,0-2.4v-6.3
		c0.5,0,0.9,0,1.3,0c0.4,0,0.9,0,1.4,0c0.4,0.4,0.8,0.9,1.2,1.5c0.4,0.6,0.7,1.2,1.2,1.8l3.4,5.3c0.6,1,1.2,1.9,1.8,2.7
		c0.6,0.8,1.2,1.4,1.9,2h7.2v-2.6c-0.8,0-1.5-0.2-2-0.5c-0.6-0.3-1.1-0.8-1.7-1.4c-0.5-0.6-1.1-1.4-1.7-2.4l-2.6-3.9
		c-0.5-0.7-1-1.4-1.5-2c-0.6-0.6-1.1-1-1.7-1.3c2-0.5,3.7-1.3,4.9-2.2c1.2-0.9,2.1-2,2.7-3.2c0.6-1.2,0.9-2.4,0.9-3.7
		c0-2.2-0.5-4-1.5-5.4c-1-1.4-2.5-2.4-4.5-3c-2-0.7-4.4-1-7.3-1c-2.1,0-4.2,0-6.3,0c-2.1,0-4.2,0-6.3,0.1v3.1c0.4,0,1-0.1,1.7-0.1
		c0.7,0,1.3,0,1.8-0.1c0,0.4-0.1,1-0.1,1.7c0,0.7-0.1,1.5-0.1,2.2v18.5c0,1.2-0.1,2.1-0.3,2.8c-0.2,0.7-0.5,1.1-1,1.4
		s-1.1,0.4-2,0.4v2.6h12.9V2820.2z M1494,2797.7c0-1.1,0.1-1.9,0.3-2.6c0.2-0.6,0.5-1.1,1-1.3c0.5-0.2,1.1-0.4,1.9-0.4
		c0.8,0,1.6,0.1,2.5,0.3c0.8,0.2,1.6,0.5,2.3,1c0.7,0.5,1.3,1.1,1.7,2c0.4,0.9,0.6,2,0.6,3.4c0,1.6-0.3,3-0.9,4
		c-0.6,1.1-1.4,1.8-2.6,2.3c-1.1,0.5-2.6,0.8-4.4,0.8c-0.4,0-0.9,0-1.3,0c-0.4,0-0.8-0.1-1.2-0.1V2797.7z"/>
	<path d="M1529.2,2820.2c-0.3,0-0.7,0-1.1,0c-0.5,0-1,0-1.4,0c-0.5,0-0.9,0-1.3,0.1c0.1-0.4,0.1-1,0.1-1.7c0-0.7,0-1.5,0-2.4v-6.3
		c0.5,0,0.9,0,1.3,0s0.9,0,1.4,0c0.4,0.4,0.8,0.9,1.2,1.5c0.4,0.6,0.7,1.2,1.2,1.8l3.4,5.3c0.6,1,1.2,1.9,1.8,2.7
		c0.6,0.8,1.2,1.4,1.9,2h7.2v-2.6c-0.8,0-1.5-0.2-2-0.5c-0.6-0.3-1.1-0.8-1.7-1.4c-0.5-0.6-1.1-1.4-1.7-2.4l-2.6-3.9
		c-0.5-0.7-1-1.4-1.5-2c-0.6-0.6-1.1-1-1.7-1.3c2-0.5,3.7-1.3,4.9-2.2c1.2-0.9,2.1-2,2.7-3.2c0.6-1.2,0.9-2.4,0.9-3.7
		c0-2.2-0.5-4-1.5-5.4c-1-1.4-2.5-2.4-4.5-3c-2-0.7-4.4-1-7.3-1c-2.1,0-4.2,0-6.3,0c-2.1,0-4.2,0-6.3,0.1v3.1c0.4,0,1-0.1,1.7-0.1
		c0.7,0,1.3,0,1.8-0.1c0,0.4-0.1,1-0.1,1.7c0,0.7-0.1,1.5-0.1,2.2v18.5c0,1.2-0.1,2.1-0.3,2.8c-0.2,0.7-0.5,1.1-1,1.4
		c-0.5,0.3-1.2,0.4-2,0.4v2.6h12.9V2820.2z M1525.5,2797.7c0-1.1,0.1-1.9,0.3-2.6c0.2-0.6,0.5-1.1,1-1.3c0.5-0.2,1.1-0.4,1.9-0.4
		c0.8,0,1.6,0.1,2.5,0.3c0.8,0.2,1.6,0.5,2.3,1c0.7,0.5,1.3,1.1,1.7,2c0.4,0.9,0.6,2,0.6,3.4c0,1.6-0.3,3-0.9,4
		c-0.6,1.1-1.4,1.8-2.6,2.3c-1.1,0.5-2.6,0.8-4.4,0.8c-0.4,0-0.9,0-1.3,0c-0.4,0-0.8-0.1-1.2-0.1V2797.7z"/>
	<path d="M1550.8,2818.5c1.3,1.7,3,3,5.1,4c2.1,1,4.7,1.5,7.7,1.5c2.8,0,5.2-0.5,7.3-1.6c2.1-1,3.8-2.4,5.2-4.1
		c1.4-1.7,2.4-3.5,3-5.5c0.7-2,1-3.9,1-5.9c0-2-0.3-3.9-1-5.9c-0.6-2-1.6-3.8-3-5.5c-1.3-1.7-3.1-3-5.1-4.1c-2.1-1-4.6-1.5-7.4-1.5
		c-2.8,0-5.2,0.5-7.3,1.5c-2.1,1-3.8,2.4-5.2,4c-1.4,1.7-2.4,3.5-3,5.5c-0.7,2-1,4-1,5.9c0,2,0.3,4,0.9,6
		C1548.5,2815,1549.5,2816.9,1550.8,2818.5z M1554,2801.7c0.3-1.6,0.9-3,1.7-4.3c0.8-1.3,1.8-2.4,3-3.2c1.2-0.8,2.7-1.2,4.4-1.3
		c1.7,0,3.3,0.3,4.6,1.1c1.3,0.8,2.4,1.9,3.3,3.2c0.9,1.4,1.5,2.9,2,4.8c0.4,1.8,0.7,3.8,0.7,5.8c0,1.5-0.2,3.1-0.5,4.6
		c-0.4,1.6-0.9,3-1.7,4.3c-0.8,1.3-1.7,2.4-3,3.2c-1.2,0.8-2.7,1.2-4.5,1.2c-1.9,0-3.5-0.5-4.8-1.4c-1.3-0.9-2.4-2.2-3.2-3.7
		c-0.8-1.5-1.4-3.1-1.8-4.8c-0.4-1.7-0.6-3.3-0.6-4.9C1553.5,2804.8,1553.7,2803.3,1554,2801.7z"/>
	<path d="M1587.2,2793.6c0,0.4-0.1,1-0.1,1.7c0,0.7,0,1.4,0,2.1l0,19.3c0,1-0.1,1.7-0.3,2.3c-0.2,0.6-0.6,1-1,1.2s-1.1,0.4-1.9,0.4
		v2.6h10.1v-3.1c-0.4,0-1,0-1.7,0c-0.7,0-1.3,0.1-1.8,0.1c0.1-0.5,0.1-1.1,0.1-1.9c0-0.8,0-1.6,0-2.4l-0.1-16.2h0
		c0.4,0.5,0.8,1,1.2,1.6c0.4,0.5,0.8,1,1.1,1.5l16.4,20.9h3.4l0-25.9c0-1.2,0.1-2.1,0.3-2.8c0.2-0.7,0.5-1.1,1-1.4
		c0.5-0.3,1.2-0.4,2-0.4v-2.6h-10.1v3.1c0.4,0,1-0.1,1.7-0.1c0.7,0,1.3,0,1.8-0.1c0,0.4-0.1,1-0.1,1.7c0,0.7,0,1.5,0,2.2v16.9h0
		c-0.4-0.5-0.8-1.1-1.3-1.8c-0.5-0.7-1.1-1.4-1.7-2.2l-15.5-19.7h-6.8v3.1c0.4,0,1-0.1,1.7-0.1
		C1586.1,2793.7,1586.7,2793.7,1587.2,2793.6z"/>
	<path d="M1645.1,2813.4h-2.6c0,1.7-0.3,3.1-0.8,4.1c-0.6,1-1.3,1.7-2.2,2.1c-0.9,0.4-1.9,0.6-3,0.6l-7.2,0c0.1-0.4,0.1-1,0.1-1.6
		c0-0.7,0-1.5,0-2.3v-8.6l1.9-0.1c1,0,1.9,0,2.7,0.1c0.7,0.1,1.3,0.5,1.7,1.1c0.4,0.6,0.6,1.5,0.6,2.9h2.6V2801h-3.1l0.2,4l-6.6,0
		v-7.1c0-1.2,0.1-2.2,0.3-2.8c0.2-0.6,0.5-1.1,1-1.3c0.5-0.2,1.1-0.4,2-0.4l2.5,0c1,0,1.9,0.1,2.8,0.4c0.9,0.3,1.7,0.9,2.2,1.8
		c0.6,0.9,0.9,2.2,0.9,4h2.6l-0.3-8.7h-23.3v3.1c0.4,0,1-0.1,1.7-0.1c0.7,0,1.3,0,1.8-0.1c0,0.4-0.1,1-0.1,1.7
		c0,0.7-0.1,1.5-0.1,2.2v18.5c0,1.2-0.1,2.1-0.3,2.8c-0.2,0.7-0.5,1.1-1,1.4c-0.5,0.3-1.2,0.4-2,0.4v2.6h24.7L1645.1,2813.4z"/>
	<path d="M1652.5,2805.5c1,0.9,2.1,1.6,3.3,2.3c1.3,0.7,2.6,1.3,4,1.9c1.3,0.5,2.5,1.1,3.6,1.6c1.2,0.6,2.1,1.2,2.9,2
		c0.8,0.8,1.1,1.8,1.1,3c0,0.9-0.3,1.8-0.8,2.5c-0.5,0.7-1.2,1.3-2.1,1.7c-0.9,0.4-2,0.6-3.1,0.6c-2.3,0-4.3-0.7-5.9-2
		c-1.6-1.3-2.6-3.3-3-6h-2.7l0.1,10.5h3.2l-0.1-2c1.2,0.8,2.6,1.4,4.1,1.7c1.5,0.4,2.9,0.6,4.2,0.6c2.4,0,4.5-0.4,6.2-1.2
		c1.8-0.8,3.1-1.9,4.1-3.3c1-1.4,1.4-3,1.4-4.8c0-1.5-0.3-2.8-1-3.9c-0.6-1.1-1.5-2.1-2.5-2.9s-2.2-1.6-3.4-2.2
		c-1.2-0.6-2.4-1.2-3.6-1.6c-1.6-0.7-3-1.3-4.2-2c-1.2-0.6-2.1-1.3-2.7-2.1c-0.6-0.8-0.9-1.7-0.9-2.7c0-1.3,0.5-2.3,1.5-3.2
		c1-0.9,2.3-1.3,3.8-1.3c1.6,0,3,0.3,4.1,1c1.1,0.7,2.1,1.6,2.8,2.8c0.7,1.2,1.1,2.7,1.4,4.3h2.6v-10.6h-3.3l0.2,2
		c-1.1-0.8-2.4-1.4-3.9-1.7c-1.5-0.4-2.9-0.5-4.1-0.5c-2,0-3.7,0.3-5.1,0.8s-2.4,1.3-3.2,2.1c-0.8,0.9-1.4,1.8-1.7,2.8
		c-0.3,1-0.5,2-0.5,2.9c0,1.5,0.3,2.8,0.8,3.9C1650.8,2803.7,1651.5,2804.7,1652.5,2805.5z"/>
	<path d="M1558.5,2887c0-0.7-0.2-1.5-0.5-2.5c-0.3-1-0.6-1.7-0.8-2.2l-10.2-25.7h-2.5l-9.4,25.2c-0.4,1-0.7,1.9-1.1,2.8
		c-0.3,0.8-0.8,1.5-1.3,2c-0.5,0.5-1.2,0.7-2.1,0.7v2.6h9.7v-3.2c-0.4,0-1,0-1.6,0c-0.7,0-1.3,0.1-1.9,0.1c0.3-0.5,0.5-1.1,0.8-1.8
		c0.3-0.7,0.5-1.3,0.7-1.8l1-3.1l11-0.2l1.2,3.2c0.3,0.7,0.4,1.3,0.5,2c0,0.6-0.1,1.2-0.4,1.6s-1,0.6-2,0.6v2.6h12v-3.1
		c-0.4,0-0.8,0-1.3,0C1559.6,2886.9,1559.1,2886.9,1558.5,2887z M1540.2,2877.2l2.6-7.2c0.5-1.3,0.8-2.4,1.1-3.4
		c0.3-1,0.5-1.8,0.7-2.4h0.1c0.2,0.9,0.5,1.9,0.8,2.9c0.3,1.1,0.7,2.1,1.1,3.2l2.6,6.8H1540.2z"/>
	<path d="M1586.4,2877.5c-0.6-1.1-1.5-2.1-2.5-2.9c-1-0.8-2.2-1.6-3.4-2.2c-1.2-0.6-2.4-1.2-3.6-1.6c-1.6-0.7-3-1.3-4.2-2
		c-1.2-0.6-2.1-1.3-2.7-2.1c-0.6-0.8-0.9-1.7-0.9-2.7c0-1.3,0.5-2.3,1.5-3.2c1-0.9,2.3-1.3,3.8-1.3c1.6,0,3,0.3,4.1,1
		c1.1,0.7,2.1,1.6,2.8,2.8c0.7,1.2,1.1,2.7,1.4,4.3h2.6V2857h-3.3l0.2,2c-1.1-0.8-2.4-1.4-3.9-1.7c-1.5-0.4-2.9-0.5-4.1-0.5
		c-2,0-3.7,0.3-5.1,0.8c-1.4,0.6-2.4,1.3-3.2,2.1c-0.8,0.9-1.4,1.8-1.7,2.8c-0.3,1-0.5,2-0.5,2.9c0,1.5,0.3,2.8,0.8,3.9
		c0.6,1.1,1.3,2.1,2.3,2.9s2.1,1.6,3.3,2.3c1.3,0.7,2.6,1.3,4,1.9c1.3,0.5,2.5,1.1,3.6,1.6c1.2,0.6,2.1,1.2,2.9,2
		c0.8,0.8,1.1,1.8,1.1,3c0,0.9-0.3,1.8-0.8,2.5c-0.5,0.7-1.2,1.3-2.1,1.7c-0.9,0.4-2,0.6-3.1,0.6c-2.3,0-4.3-0.7-5.9-2
		c-1.6-1.3-2.6-3.3-3-6h-2.7l0.1,10.5h3.2l-0.1-2c1.2,0.8,2.6,1.4,4.1,1.7c1.5,0.4,2.9,0.6,4.2,0.6c2.4,0,4.5-0.4,6.2-1.2
		c1.8-0.8,3.1-1.9,4.1-3.3s1.4-3,1.4-4.8C1587.3,2879.9,1587,2878.6,1586.4,2877.5z"/>
	<path d="M1590,2867.6h2.6c0-2.6,0.5-4.5,1.5-5.7c1-1.2,2.4-1.8,4.3-1.9h3.1l0,22.7c0,1.2-0.1,2.1-0.3,2.7c-0.2,0.7-0.5,1.1-1,1.4
		c-0.5,0.3-1.2,0.4-2,0.5v2.6h12.9v-3.1c-0.4,0-1,0-1.8,0c-0.8,0-1.5,0.1-2.1,0.1c0.1-0.4,0.1-1,0.1-1.7c0-0.7,0-1.5,0-2.3V2860h2.9
		c1.3,0,2.4,0.2,3.3,0.8c0.9,0.6,1.5,1.4,2,2.5c0.4,1.1,0.7,2.6,0.7,4.3h2.7l-0.3-10.3h-28.3L1590,2867.6z"/>
	<path d="M1631.4,2883v-18.4c0-1.2,0.1-2.1,0.3-2.8c0.2-0.6,0.5-1.1,1-1.4c0.5-0.3,1.2-0.4,2-0.4v-2.6h-12.6v3.1
		c0.4,0,1-0.1,1.7-0.1c0.7,0,1.3,0,1.8-0.1c0,0.4-0.1,1-0.1,1.7c0,0.7-0.1,1.5-0.1,2.2v18.5c0,1.2-0.1,2.1-0.3,2.8
		c-0.2,0.7-0.5,1.1-1,1.4c-0.5,0.3-1.2,0.4-2,0.4v2.6h12.6v-3.1c-0.4,0-1,0-1.7,0c-0.7,0-1.3,0.1-1.8,0.1c0.1-0.4,0.1-1,0.1-1.7
		C1631.4,2884.6,1631.4,2883.8,1631.4,2883z"/>
	<path d="M1660.3,2885c-1,1.3-2.5,1.9-4.4,1.9l-7.2,0c0.1-0.4,0.1-1,0.1-1.6c0-0.7,0-1.5,0-2.3v-18.5c0-1.2,0.1-2.1,0.3-2.8
		c0.2-0.6,0.5-1.1,1-1.4c0.5-0.3,1.2-0.4,2-0.4v-2.6h-12.6v3.1c0.4,0,1-0.1,1.7-0.1c0.7,0,1.3,0,1.8-0.1c0,0.4-0.1,1-0.1,1.7
		c0,0.7-0.1,1.5-0.1,2.2v18.5c0,1.2-0.1,2.1-0.3,2.8c-0.2,0.7-0.5,1.1-1,1.4c-0.5,0.3-1.1,0.4-2,0.4v2.6h24.6l0.3-10.6h-2.6
		C1661.8,2881.8,1661.3,2883.8,1660.3,2885z"/>
	<path d="M1677,2883v-18.5c0-1.2,0.1-2.1,0.3-2.8c0.2-0.6,0.5-1.1,1-1.4c0.5-0.3,1.2-0.4,2-0.4v-2.6h-12.6v3.1c0.4,0,1-0.1,1.7-0.1
		c0.7,0,1.3,0,1.8-0.1c0,0.4-0.1,1-0.1,1.7c0,0.7-0.1,1.5-0.1,2.2v18.5c0,1.2-0.1,2.1-0.3,2.8c-0.2,0.7-0.5,1.1-1,1.4
		c-0.5,0.3-1.2,0.4-2,0.4v2.6h24.6l0.3-10.6h-2.6c0,2.6-0.5,4.5-1.6,5.8c-1,1.3-2.5,1.9-4.4,1.9l-7.2,0c0.1-0.4,0.1-1,0.1-1.6
		C1677,2884.6,1677,2883.8,1677,2883z"/>
	<path d="M1698.6,2885.2c1.3,1.7,3,3,5.1,4c2.1,1,4.7,1.5,7.7,1.5c2.8,0,5.2-0.5,7.3-1.6c2.1-1,3.8-2.4,5.2-4.1
		c1.4-1.7,2.4-3.5,3-5.5c0.7-2,1-3.9,1-5.9c0-2-0.3-3.9-1-5.9c-0.6-2-1.6-3.8-3-5.5c-1.3-1.7-3.1-3-5.1-4.1c-2.1-1-4.6-1.5-7.4-1.5
		c-2.8,0-5.2,0.5-7.3,1.5c-2.1,1-3.8,2.4-5.2,4c-1.4,1.7-2.4,3.5-3,5.5c-0.7,2-1,4-1,5.9c0,2,0.3,4,0.9,6
		C1696.4,2881.7,1697.3,2883.5,1698.6,2885.2z M1701.9,2868.3c0.3-1.6,0.9-3,1.7-4.3c0.8-1.3,1.8-2.4,3-3.2c1.2-0.8,2.7-1.2,4.4-1.3
		c1.7,0,3.3,0.3,4.6,1.1c1.3,0.8,2.4,1.9,3.3,3.2c0.9,1.4,1.5,2.9,2,4.8c0.4,1.8,0.7,3.8,0.7,5.8c0,1.5-0.2,3.1-0.5,4.6
		c-0.4,1.6-0.9,3-1.7,4.3c-0.8,1.3-1.7,2.4-3,3.2c-1.2,0.8-2.7,1.2-4.5,1.2c-1.9,0-3.5-0.5-4.8-1.4c-1.3-0.9-2.4-2.2-3.2-3.7
		c-0.8-1.5-1.4-3.1-1.8-4.8c-0.4-1.7-0.6-3.3-0.6-4.9C1701.3,2871.5,1701.5,2869.9,1701.9,2868.3z"/>
	<path d="M1420,2887.2c1.7,1.1,3.5,2,5.6,2.5c2.1,0.5,4.2,0.8,6.3,0.8c3.6,0,6.6-0.6,9.2-1.9c2.6-1.3,4.7-2.8,6.4-4.7
		c2.2,1.9,4.1,3.3,5.6,4.1c1.5,0.9,2.4,1.3,2.9,1.3h7.2v-3.2c-0.9,0-2.1-0.5-3.7-1.5c-1.6-1-3.4-2.4-5.5-4.3c-0.5-0.4-1-0.9-1.5-1.3
		c-0.5-0.4-0.9-0.8-1.4-1.2c0.5-1.5,0.9-2.9,1.2-4.3c0.2-1.4,0.3-2.6,0.3-3.7c0-1.2-0.2-2.3-0.5-3.2c-0.3-0.9-0.7-1.7-1.3-2.3
		l5.4,0.3v-3.9h-12.6v3.2c1.3,0.1,2.3,0.4,3,1c0.7,0.6,1.2,1.4,1.5,2.4c0.3,1,0.5,2.1,0.5,3.3c0,0.6,0,1.3-0.1,2.1
		c-0.1,0.7-0.2,1.5-0.4,2.3c-1.5-1.4-3.1-2.9-4.8-4.6c-1.7-1.6-3.2-3.2-4.7-4.7c-1.4-1.5-2.7-2.8-3.6-3.7c2.6-1.4,4.7-2.8,6.5-4.3
		c1.7-1.5,3-3.1,3.8-4.8c0.9-1.7,1.3-3.5,1.3-5.4c0-2-0.5-3.8-1.5-5.4c-1-1.6-2.5-2.9-4.3-3.8c-1.9-1-4.1-1.4-6.6-1.4
		c-4,0-7.3,1.1-9.8,3.2c-2.5,2.1-3.8,5-3.9,8.6c0,1.4,0.2,2.8,0.5,4.3c0.4,1.4,1,2.9,1.8,4.4c0.8,1.5,2,3.1,3.4,4.9
		c-3.4,1.4-6.2,3.4-8.3,5.8c-2.1,2.5-3.2,5.3-3.2,8.5c0,2.5,0.5,4.7,1.5,6.5C1417,2884.6,1418.3,2886.1,1420,2887.2z M1429.2,2842.1
		c1.2-1.4,2.7-2.1,4.5-2.1c2,0,3.6,0.7,4.7,2.1c1.1,1.4,1.6,3.2,1.6,5.3c0,2-0.6,4-1.8,6.2c-1.2,2.2-3,4.1-5.4,5.8
		c-1.6-1.8-2.9-3.7-3.9-5.7c-1-2-1.5-4-1.5-5.8C1427.3,2845.5,1427.9,2843.5,1429.2,2842.1z M1423.3,2871.7c0.3-1.2,0.9-2.5,1.6-3.7
		c0.8-1.2,1.8-2.3,3.1-3.2c1.7,1.9,3.7,4,5.9,6.2c2.2,2.2,4.9,4.9,8.1,7.9c0.5,0.4,0.9,0.8,1.4,1.2c0.4,0.4,0.8,0.8,1.3,1.2
		c-1.2,1.5-2.8,2.7-4.6,3.6c-1.9,0.9-4.1,1.4-6.8,1.3c-1.9,0-3.6-0.5-5.2-1.3c-1.6-0.8-2.9-2.1-3.8-3.7c-1-1.6-1.4-3.7-1.4-6.3
		C1422.8,2874.1,1422.9,2873,1423.3,2871.7z"/>
	<path d="M1490.6,2882.9c2.2,2.4,4.9,4.2,8,5.5c3.1,1.3,6.5,2,10.1,2c2,0,4.2-0.3,6.7-0.8c2.5-0.6,4.9-1.6,7.4-3.3
		c2.5-1.6,4.8-3.9,7-7l-2.4-2.1c-2,2.7-4.5,4.9-7.6,6.3c-3.1,1.5-6.1,2.2-9.3,2.2c-3.5,0-6.7-1-9.4-2.9c-2.8-1.9-4.9-4.6-6.5-8
		c-1.6-3.4-2.3-7.4-2.3-11.8c0-3.3,0.4-6.3,1.3-9.1c0.9-2.8,2.1-5.2,3.6-7.2c1.6-2,3.4-3.6,5.6-4.7c2.2-1.1,4.5-1.7,7-1.7
		c4,0,7.3,1.3,9.8,3.6c2.5,2.4,4,5.8,4.5,10.2h3.4v-17h-4.5l0.4,3.7c-2.2-1.4-4.5-2.5-6.9-3.2c-2.4-0.7-4.8-1-7.3-1
		c-4.3,0-8,0.8-11.2,2.3c-3.2,1.6-5.9,3.7-8,6.3c-2.1,2.7-3.7,5.6-4.8,8.9c-1.1,3.3-1.6,6.6-1.6,10c0,3.7,0.6,7.1,1.8,10.2
		C1486.6,2877.8,1488.3,2880.6,1490.6,2882.9z"/>
	
		<rect x="1293.7" y="2845.9" transform="matrix(3.144144e-03 -1 1 3.144144e-03 -1463.2578 4227.0811)" width="189.7" height="3.1"/>
	<path d="M1211.2,2788h148.2c1.1,0,2-0.9,2-2v-12.9c0-1.1-0.9-2-2-2h-148.2c-1.1,0-2,0.9-2,2v12.9
		C1209.2,2787.1,1210.1,2788,1211.2,2788z"/>
	<path d="M1224.1,2838.7h-12.9c-1.1,0-2,0.9-2,2v80.5c0,1.1,0.9,2,2,2h12.9c1.1,0,2-0.9,2-2v-80.5
		C1226.1,2839.6,1225.2,2838.7,1224.1,2838.7z"/>
	<path d="M1257.9,2804.9h-46.7c-1.1,0-2,0.9-2,2v12.9c0,1.1,0.9,2,2,2h29.8c0.6,0,1.1,0.2,1.4,0.6c0.4,0.4,0.6,0.9,0.6,1.4v97.4
		c0,1.1,0.9,2,2,2h12.9c1.1,0,2-0.9,2-2v-114.3c0-0.6-0.2-1.1-0.6-1.4C1258.9,2805.1,1258.4,2804.9,1257.9,2804.9z"/>
	<path d="M1359.4,2804.9h-80.6c-0.6,0-1.1,0.2-1.4,0.6c-0.4,0.4-0.6,0.9-0.6,1.4v114.3c0,0.6,0.2,1.1,0.6,1.4
		c0.4,0.4,0.9,0.6,1.4,0.6h80.6c1.1,0,2-0.9,2-2v-12.9c0-1.1-0.9-2-2-2h-63.6c-0.6,0-1.1-0.2-1.4-0.6c-0.4-0.4-0.6-0.9-0.6-1.4
		v-80.5c0-0.6,0.2-1.1,0.6-1.4c0.4-0.4,0.9-0.6,1.4-0.6h63.6c1.1,0,2-0.9,2-2v-12.9C1361.4,2805.8,1360.5,2804.9,1359.4,2804.9z"/>
	<path d="M1359.4,2838.7h-31.8h-14.9c-0.6,0-1.1,0.2-1.4,0.6c-0.4,0.4-0.6,0.9-0.6,1.4v46.7c0,0.6,0.2,1.1,0.6,1.4
		c0.4,0.4,0.9,0.6,1.4,0.6h46.7c1.1,0,2-0.9,2-2v-12.9c0-1.1-0.9-2-2-2h-29.8c-0.6,0-1.1-0.2-1.4-0.6c-0.4-0.4-0.6-0.9-0.6-1.4
		v-12.9c0-0.6,0.2-1.1,0.6-1.4s0.9-0.6,1.4-0.6h29.8c1.1,0,2-0.9,2-2v-12.9C1361.4,2839.6,1360.5,2838.7,1359.4,2838.7z"/>
</g>
<g>
	<g>
		<path class="st0" d="M1414,975.9l8.2-19.2h4.2l8.2,19.2h-4.5l-6.7-16.9h1.7l-6.8,16.9H1414z M1418.2,971.8l1.1-3.4h9.5l1.2,3.4
			H1418.2z"/>
		<path class="st0" d="M1436.6,975.9v-19.2h9c2.3,0,4.1,0.5,5.2,1.4c1.2,0.9,1.8,2.1,1.8,3.6c0,1-0.2,1.9-0.7,2.6
			c-0.5,0.7-1.1,1.3-1.9,1.7c-0.8,0.4-1.8,0.6-2.8,0.6l0.5-1.1c1.2,0,2.2,0.2,3.1,0.6c0.9,0.4,1.6,1,2.1,1.7
			c0.5,0.8,0.7,1.7,0.7,2.8c0,1.6-0.6,2.9-1.9,3.9c-1.2,0.9-3.1,1.4-5.5,1.4H1436.6z M1440.9,972.5h5c1.1,0,1.9-0.2,2.5-0.6
			c0.6-0.4,0.9-1,0.9-1.8c0-0.8-0.3-1.4-0.9-1.8c-0.6-0.4-1.4-0.6-2.5-0.6h-5.3v-3.2h4.6c1,0,1.8-0.2,2.4-0.6
			c0.6-0.4,0.8-0.9,0.8-1.7c0-0.7-0.3-1.3-0.8-1.7c-0.6-0.4-1.3-0.6-2.4-0.6h-4.2V972.5z"/>
		<path class="st0" d="M1465.7,976.2c-1.5,0-2.8-0.2-4-0.7c-1.2-0.5-2.3-1.2-3.2-2.1c-0.9-0.9-1.6-1.9-2.1-3.2
			c-0.5-1.2-0.7-2.5-0.7-3.9c0-1.4,0.3-2.7,0.7-3.9c0.5-1.2,1.2-2.3,2.1-3.2c0.9-0.9,2-1.6,3.2-2.1c1.2-0.5,2.6-0.7,4-0.7
			c1.5,0,2.8,0.2,4,0.7c1.2,0.5,2.3,1.2,3.2,2.1c0.9,0.9,1.6,1.9,2.1,3.1c0.5,1.2,0.8,2.5,0.8,4c0,1.4-0.3,2.7-0.8,4
			c-0.5,1.2-1.2,2.3-2.1,3.2c-0.9,0.9-2,1.6-3.2,2.1C1468.5,976,1467.2,976.2,1465.7,976.2z M1465.7,972.4c0.8,0,1.6-0.1,2.3-0.4
			c0.7-0.3,1.3-0.7,1.8-1.3c0.5-0.5,0.9-1.2,1.2-1.9c0.3-0.7,0.4-1.6,0.4-2.5c0-0.9-0.1-1.7-0.4-2.5c-0.3-0.7-0.7-1.4-1.2-1.9
			c-0.5-0.5-1.1-1-1.8-1.3c-0.7-0.3-1.5-0.4-2.3-0.4c-0.8,0-1.6,0.1-2.3,0.4c-0.7,0.3-1.3,0.7-1.8,1.3c-0.5,0.5-0.9,1.2-1.2,1.9
			c-0.3,0.7-0.4,1.6-0.4,2.5c0,0.9,0.1,1.7,0.4,2.5c0.3,0.8,0.7,1.4,1.2,2c0.5,0.5,1.1,1,1.8,1.3
			C1464.1,972.3,1464.9,972.4,1465.7,972.4z"/>
		<path class="st0" d="M1487.9,976.2c-1.5,0-2.8-0.2-4-0.7c-1.2-0.5-2.3-1.2-3.2-2.1c-0.9-0.9-1.6-1.9-2.1-3.2
			c-0.5-1.2-0.7-2.5-0.7-4c0-1.4,0.2-2.8,0.7-4c0.5-1.2,1.2-2.3,2.1-3.2c0.9-0.9,2-1.6,3.2-2.1c1.2-0.5,2.6-0.7,4.1-0.7
			c1.6,0,3.1,0.3,4.4,0.8c1.3,0.6,2.4,1.4,3.3,2.5l-2.7,2.6c-0.7-0.7-1.4-1.3-2.2-1.6c-0.8-0.4-1.6-0.5-2.6-0.5
			c-0.9,0-1.7,0.1-2.4,0.4c-0.7,0.3-1.4,0.7-1.9,1.3c-0.5,0.5-0.9,1.2-1.2,1.9c-0.3,0.7-0.4,1.6-0.4,2.5c0,0.9,0.1,1.7,0.4,2.5
			c0.3,0.7,0.7,1.4,1.2,2c0.5,0.6,1.2,1,1.9,1.3c0.7,0.3,1.5,0.4,2.4,0.4c0.8,0,1.7-0.1,2.5-0.4c0.8-0.3,1.6-0.8,2.3-1.4l2.4,3.2
			c-1,0.8-2.2,1.4-3.5,1.8C1490.5,976,1489.2,976.2,1487.9,976.2z M1491.4,973.2V966h3.9v7.8L1491.4,973.2z"/>
		<path class="st0" d="M1496.9,975.9l8.2-19.2h4.2l8.2,19.2h-4.5l-6.7-16.9h1.7l-6.8,16.9H1496.9z M1501,971.8l1.1-3.4h9.5l1.2,3.4
			H1501z"/>
		<path class="st0" d="M1519.4,975.9v-19.2h8.4c2,0,3.8,0.4,5.3,1.2c1.5,0.8,2.7,1.9,3.6,3.3c0.9,1.4,1.3,3.1,1.3,5.1
			c0,1.9-0.4,3.6-1.3,5.1c-0.9,1.4-2.1,2.6-3.6,3.3c-1.5,0.8-3.3,1.2-5.3,1.2H1519.4z M1523.7,972.2h3.9c1.2,0,2.3-0.2,3.2-0.7
			c0.9-0.5,1.6-1.2,2.1-2.1c0.5-0.9,0.8-1.9,0.8-3.2c0-1.2-0.2-2.3-0.8-3.2c-0.5-0.9-1.2-1.6-2.1-2.1c-0.9-0.5-2-0.7-3.2-0.7h-3.9
			V972.2z"/>
		<path class="st0" d="M1550.1,976.2c-1.5,0-2.8-0.2-4-0.7s-2.3-1.2-3.2-2.1c-0.9-0.9-1.6-1.9-2.1-3.2c-0.5-1.2-0.7-2.5-0.7-3.9
			c0-1.4,0.3-2.7,0.7-3.9c0.5-1.2,1.2-2.3,2.1-3.2c0.9-0.9,2-1.6,3.2-2.1c1.2-0.5,2.6-0.7,4-0.7c1.5,0,2.8,0.2,4,0.7
			c1.2,0.5,2.3,1.2,3.2,2.1c0.9,0.9,1.6,1.9,2.1,3.1c0.5,1.2,0.8,2.5,0.8,4c0,1.4-0.3,2.7-0.8,4c-0.5,1.2-1.2,2.3-2.1,3.2
			c-0.9,0.9-2,1.6-3.2,2.1C1552.9,976,1551.6,976.2,1550.1,976.2z M1550.1,972.4c0.8,0,1.6-0.1,2.3-0.4c0.7-0.3,1.3-0.7,1.8-1.3
			c0.5-0.5,0.9-1.2,1.2-1.9c0.3-0.7,0.4-1.6,0.4-2.5c0-0.9-0.1-1.7-0.4-2.5c-0.3-0.7-0.7-1.4-1.2-1.9c-0.5-0.5-1.1-1-1.8-1.3
			c-0.7-0.3-1.5-0.4-2.3-0.4s-1.6,0.1-2.3,0.4c-0.7,0.3-1.3,0.7-1.8,1.3c-0.5,0.5-0.9,1.2-1.2,1.9c-0.3,0.7-0.4,1.6-0.4,2.5
			c0,0.9,0.1,1.7,0.4,2.5c0.3,0.8,0.7,1.4,1.2,2c0.5,0.5,1.1,1,1.8,1.3C1548.5,972.3,1549.3,972.4,1550.1,972.4z"/>
		<path class="st0" d="M1569.4,976.2c-1.5,0-2.9-0.2-4.2-0.6c-1.4-0.4-2.4-0.9-3.3-1.6l1.4-3.3c0.8,0.6,1.7,1.1,2.8,1.4
			c1.1,0.4,2.2,0.6,3.3,0.6c0.8,0,1.5-0.1,2-0.3c0.5-0.2,0.9-0.4,1.1-0.7c0.2-0.3,0.4-0.7,0.4-1.1c0-0.5-0.2-0.9-0.6-1.2
			c-0.4-0.3-0.9-0.5-1.5-0.7c-0.6-0.2-1.3-0.4-2.1-0.5c-0.8-0.2-1.5-0.4-2.3-0.6c-0.8-0.3-1.5-0.6-2.1-1c-0.6-0.4-1.1-0.9-1.5-1.6
			c-0.4-0.7-0.6-1.5-0.6-2.5c0-1.1,0.3-2.1,0.9-3c0.6-0.9,1.4-1.6,2.6-2.2c1.1-0.5,2.6-0.8,4.3-0.8c1.2,0,2.3,0.1,3.4,0.4
			c1.1,0.3,2.1,0.7,3,1.3l-1.3,3.4c-0.9-0.5-1.7-0.9-2.6-1.1s-1.7-0.4-2.5-0.4c-0.8,0-1.5,0.1-2,0.3c-0.5,0.2-0.9,0.5-1.1,0.8
			c-0.2,0.3-0.3,0.7-0.3,1.1c0,0.5,0.2,0.9,0.6,1.2c0.4,0.3,0.9,0.5,1.5,0.7c0.6,0.2,1.3,0.4,2.1,0.5c0.8,0.2,1.5,0.4,2.3,0.6
			s1.5,0.6,2.1,1s1.1,0.9,1.5,1.6c0.4,0.7,0.6,1.5,0.6,2.5c0,1.1-0.3,2.1-0.9,3c-0.6,0.9-1.4,1.6-2.6,2.2
			C1572.7,975.9,1571.2,976.2,1569.4,976.2z"/>
		<path class="st0" d="M1596.5,976.2c-1.4,0-2.7-0.2-4-0.7c-1.2-0.5-2.3-1.2-3.2-2.1c-0.9-0.9-1.6-1.9-2.1-3.2
			c-0.5-1.2-0.8-2.5-0.8-4c0-1.4,0.3-2.8,0.8-4c0.5-1.2,1.2-2.3,2.1-3.2c0.9-0.9,2-1.6,3.2-2.1c1.2-0.5,2.5-0.7,4-0.7
			c1.6,0,3,0.3,4.3,0.9c1.3,0.6,2.4,1.4,3.3,2.5l-2.7,2.6c-0.6-0.7-1.3-1.3-2.1-1.7c-0.8-0.4-1.6-0.6-2.5-0.6
			c-0.9,0-1.7,0.1-2.4,0.4c-0.7,0.3-1.3,0.7-1.9,1.3c-0.5,0.5-0.9,1.2-1.2,1.9c-0.3,0.7-0.4,1.6-0.4,2.5c0,0.9,0.1,1.7,0.4,2.5
			c0.3,0.7,0.7,1.4,1.2,1.9c0.5,0.5,1.1,1,1.9,1.3c0.7,0.3,1.5,0.4,2.4,0.4c0.9,0,1.8-0.2,2.5-0.6c0.8-0.4,1.5-0.9,2.1-1.7l2.7,2.6
			c-0.9,1.1-2,2-3.3,2.5C1599.5,975.9,1598.1,976.2,1596.5,976.2z"/>
		<path class="st0" d="M1615.5,976.2c-1.5,0-2.8-0.2-4-0.7c-1.2-0.5-2.3-1.2-3.2-2.1c-0.9-0.9-1.6-1.9-2.1-3.2
			c-0.5-1.2-0.7-2.5-0.7-3.9c0-1.4,0.2-2.7,0.7-3.9c0.5-1.2,1.2-2.3,2.1-3.2c0.9-0.9,2-1.6,3.2-2.1c1.2-0.5,2.6-0.7,4-0.7
			c1.5,0,2.8,0.2,4,0.7c1.2,0.5,2.3,1.2,3.2,2.1c0.9,0.9,1.6,1.9,2.1,3.1c0.5,1.2,0.8,2.5,0.8,4c0,1.4-0.3,2.7-0.8,4
			c-0.5,1.2-1.2,2.3-2.1,3.2c-0.9,0.9-2,1.6-3.2,2.1S1616.9,976.2,1615.5,976.2z M1615.5,972.4c0.8,0,1.6-0.1,2.3-0.4
			c0.7-0.3,1.3-0.7,1.8-1.3c0.5-0.5,0.9-1.2,1.2-1.9c0.3-0.7,0.4-1.6,0.4-2.5c0-0.9-0.1-1.7-0.4-2.5c-0.3-0.7-0.7-1.4-1.2-1.9
			c-0.5-0.5-1.1-1-1.8-1.3c-0.7-0.3-1.5-0.4-2.3-0.4c-0.8,0-1.6,0.1-2.3,0.4c-0.7,0.3-1.3,0.7-1.8,1.3c-0.5,0.5-0.9,1.2-1.2,1.9
			c-0.3,0.7-0.4,1.6-0.4,2.5c0,0.9,0.1,1.7,0.4,2.5c0.3,0.8,0.7,1.4,1.2,2c0.5,0.5,1.1,1,1.8,1.3
			C1613.9,972.3,1614.6,972.4,1615.5,972.4z"/>
		<path class="st0" d="M1628.7,975.9v-19.2h3.5l10.9,13.8h-1.7v-13.8h4.2v19.2h-3.5l-10.9-13.8h1.7v13.8H1628.7z"/>
		<path class="st0" d="M1656.1,976.2c-1.5,0-2.9-0.2-4.2-0.6c-1.4-0.4-2.4-0.9-3.3-1.6l1.4-3.3c0.8,0.6,1.7,1.1,2.8,1.4
			c1.1,0.4,2.2,0.6,3.3,0.6c0.8,0,1.5-0.1,2-0.3c0.5-0.2,0.9-0.4,1.1-0.7c0.2-0.3,0.4-0.7,0.4-1.1c0-0.5-0.2-0.9-0.6-1.2
			c-0.4-0.3-0.9-0.5-1.5-0.7c-0.6-0.2-1.3-0.4-2.1-0.5c-0.8-0.2-1.5-0.4-2.3-0.6c-0.8-0.3-1.5-0.6-2.1-1c-0.6-0.4-1.1-0.9-1.5-1.6
			c-0.4-0.7-0.6-1.5-0.6-2.5c0-1.1,0.3-2.1,0.9-3c0.6-0.9,1.4-1.6,2.6-2.2c1.1-0.5,2.6-0.8,4.3-0.8c1.2,0,2.3,0.1,3.4,0.4
			c1.1,0.3,2.1,0.7,3,1.3l-1.3,3.4c-0.9-0.5-1.7-0.9-2.6-1.1c-0.9-0.2-1.7-0.4-2.5-0.4s-1.5,0.1-2,0.3c-0.5,0.2-0.9,0.5-1.1,0.8
			c-0.2,0.3-0.3,0.7-0.3,1.1c0,0.5,0.2,0.9,0.6,1.2c0.4,0.3,0.9,0.5,1.5,0.7c0.6,0.2,1.3,0.4,2.1,0.5c0.8,0.2,1.5,0.4,2.3,0.6
			s1.5,0.6,2.1,1c0.6,0.4,1.1,0.9,1.5,1.6c0.4,0.7,0.6,1.5,0.6,2.5c0,1.1-0.3,2.1-0.9,3c-0.6,0.9-1.4,1.6-2.6,2.2
			C1659.3,975.9,1657.8,976.2,1656.1,976.2z"/>
		<path class="st0" d="M1675,976.2c-2.6,0-4.7-0.8-6.1-2.3c-1.5-1.5-2.2-3.7-2.2-6.5v-10.7h4.3v10.6c0,1.8,0.4,3.1,1.1,3.9
			c0.7,0.8,1.7,1.2,3,1.2s2.3-0.4,3-1.2c0.7-0.8,1.1-2.1,1.1-3.9v-10.6h4.2v10.7c0,2.8-0.7,5-2.2,6.5
			C1679.7,975.5,1677.6,976.2,1675,976.2z"/>
		<path class="st0" d="M1687.5,975.9v-19.2h4.3v15.6h9.2v3.6H1687.5z"/>
		<path class="st0" d="M1705.6,975.9v-15.6h-5.9v-3.6h16.1v3.6h-5.9v15.6H1705.6z"/>
		<path class="st0" d="M1726.7,976.2c-1.5,0-2.8-0.2-4-0.7c-1.2-0.5-2.3-1.2-3.2-2.1c-0.9-0.9-1.6-1.9-2.1-3.2
			c-0.5-1.2-0.8-2.5-0.8-3.9c0-1.4,0.2-2.7,0.8-3.9c0.5-1.2,1.2-2.3,2.1-3.2c0.9-0.9,2-1.6,3.2-2.1c1.2-0.5,2.6-0.7,4-0.7
			c1.5,0,2.8,0.2,4,0.7c1.2,0.5,2.3,1.2,3.2,2.1c0.9,0.9,1.6,1.9,2.1,3.1c0.5,1.2,0.8,2.5,0.8,4c0,1.4-0.3,2.7-0.8,4
			c-0.5,1.2-1.2,2.3-2.1,3.2c-0.9,0.9-2,1.6-3.2,2.1S1728.1,976.2,1726.7,976.2z M1726.7,972.4c0.8,0,1.6-0.1,2.3-0.4
			c0.7-0.3,1.3-0.7,1.8-1.3c0.5-0.5,0.9-1.2,1.2-1.9c0.3-0.7,0.4-1.6,0.4-2.5c0-0.9-0.1-1.7-0.4-2.5c-0.3-0.7-0.7-1.4-1.2-1.9
			c-0.5-0.5-1.1-1-1.8-1.3c-0.7-0.3-1.5-0.4-2.3-0.4s-1.6,0.1-2.3,0.4c-0.7,0.3-1.3,0.7-1.8,1.3c-0.5,0.5-0.9,1.2-1.2,1.9
			c-0.3,0.7-0.4,1.6-0.4,2.5c0,0.9,0.1,1.7,0.4,2.5c0.3,0.8,0.7,1.4,1.2,2c0.5,0.5,1.1,1,1.8,1.3
			C1725.1,972.3,1725.8,972.4,1726.7,972.4z"/>
		<path class="st0" d="M1740,975.9v-19.2h8c1.6,0,3.1,0.3,4.3,0.8c1.2,0.6,2.1,1.4,2.8,2.4c0.6,1,1,2.3,1,3.7c0,1.4-0.3,2.7-1,3.7
			c-0.6,1-1.6,1.8-2.8,2.4c-1.2,0.5-2.6,0.8-4.3,0.8h-5.6l1.9-1.9v7.3H1740z M1744.2,969.1l-1.9-2.1h5.4c1.3,0,2.3-0.3,2.9-0.9
			c0.6-0.6,1-1.4,1-2.5c0-1.1-0.3-1.9-1-2.5c-0.6-0.6-1.6-0.9-2.9-0.9h-5.4l1.9-2.1V969.1z M1751.7,975.9l-4.6-7h4.6l4.7,7H1751.7z"
			/>
		<path class="st0" d="M1763.5,972.3h10v3.6h-14.3v-19.2h13.9v3.6h-9.7V972.3z M1763.2,964.4h8.9v3.5h-8.9V964.4z"/>
		<path class="st0" d="M1783,976.2c-1.5,0-2.9-0.2-4.2-0.6c-1.4-0.4-2.4-0.9-3.3-1.6l1.4-3.3c0.8,0.6,1.7,1.1,2.8,1.4
			s2.2,0.6,3.3,0.6c0.8,0,1.5-0.1,2-0.3c0.5-0.2,0.9-0.4,1.1-0.7c0.2-0.3,0.4-0.7,0.4-1.1c0-0.5-0.2-0.9-0.6-1.2
			c-0.4-0.3-0.9-0.5-1.5-0.7c-0.6-0.2-1.3-0.4-2.1-0.5c-0.8-0.2-1.5-0.4-2.3-0.6c-0.8-0.3-1.5-0.6-2.1-1c-0.6-0.4-1.1-0.9-1.5-1.6
			c-0.4-0.7-0.6-1.5-0.6-2.5c0-1.1,0.3-2.1,0.9-3c0.6-0.9,1.4-1.6,2.6-2.2c1.1-0.5,2.6-0.8,4.3-0.8c1.2,0,2.3,0.1,3.4,0.4
			c1.1,0.3,2.1,0.7,3,1.3l-1.3,3.4c-0.9-0.5-1.7-0.9-2.6-1.1c-0.9-0.2-1.7-0.4-2.5-0.4c-0.8,0-1.5,0.1-2,0.3
			c-0.5,0.2-0.9,0.5-1.1,0.8c-0.2,0.3-0.3,0.7-0.3,1.1c0,0.5,0.2,0.9,0.6,1.2c0.4,0.3,0.9,0.5,1.5,0.7c0.6,0.2,1.3,0.4,2.1,0.5
			c0.8,0.2,1.5,0.4,2.3,0.6c0.8,0.2,1.5,0.6,2.1,1s1.1,0.9,1.5,1.6c0.4,0.7,0.6,1.5,0.6,2.5c0,1.1-0.3,2.1-0.9,3s-1.4,1.6-2.6,2.2
			C1786.2,975.9,1784.8,976.2,1783,976.2z"/>
	</g>
	<g>
		<g>
			<path d="M1455.4,838.4c0-2.8-0.4-3.9-1-5.8c-0.6-1.9-1.6-3.3-2.9-4.2c-1.3-0.9-3.2-1.4-5.5-1.3h-5.3l-0.1,38.7c0,1.3,0,2.5,0,3.6
				c0,1.1-0.1,1.9-0.2,2.6c0.9-0.1,1.9-0.2,3-0.2c1.1,0,2.1-0.1,3-0.1v4.1h-18.6v-3.3c1.6-0.1,2.8-0.4,3.4-1
				c0.7-0.6,1.1-1.5,1.3-2.7c0.2-1.2,0.3-2.7,0.3-4.5v-37.1l-6.2,0.1c-3,0-5.2,1-6.5,3.1c-1.4,2-2.1,3.9-2.1,8.1h-3.4l0.4-14.8h43.3
				l0.4,14.8H1455.4z"/>
		</g>
	</g>
	<g>
		<path d="M1471.5,864.3c0-1.3-0.2-2.3-0.6-2.9c-0.4-0.6-1-0.9-1.7-1.1c-0.7-0.1-1.6-0.2-2.7-0.1l-1.9,0.1v8.6c0,0.8,0,1.6,0,2.3
			c0,0.7-0.1,1.2-0.1,1.6l7.2,0c1.1,0,2.1-0.2,3-0.6s1.7-1.1,2.2-2.1c0.6-1,0.9-2.4,0.9-4.1h2.6l-0.2,9.8h-24.7v-2.6
			c0.9,0,1.6-0.2,2-0.4s0.8-0.7,1-1.4s0.3-1.6,0.3-2.8v-18.5c0-0.8,0-1.5,0.1-2.2c0-0.7,0.1-1.3,0.1-1.7c-0.5,0-1.1,0.1-1.8,0.1
			c-0.7,0-1.2,0-1.7,0.1v-3.1h23.3l0.3,8.7h-2.6c0-1.8-0.3-3.1-0.9-4c-0.6-0.9-1.3-1.5-2.2-1.8c-0.9-0.3-1.9-0.4-2.8-0.4l-2.5,0
			c-0.9,0-1.5,0.2-2,0.4c-0.5,0.2-0.8,0.7-1,1.3c-0.2,0.6-0.3,1.6-0.3,2.8v7.1l6.6,0l-0.2-4h3.1v10.8H1471.5z"/>
		<path d="M1484.8,875.8v-2.6c0.9,0,1.6-0.2,2-0.4s0.8-0.7,1-1.4c0.2-0.7,0.3-1.6,0.3-2.8v-18.5c0-0.8,0-1.5,0.1-2.2
			c0-0.7,0.1-1.3,0.1-1.7c-0.5,0-1.1,0.1-1.8,0.1c-0.7,0-1.2,0-1.7,0.1v-3.1c2.1,0,4.2-0.1,6.3-0.1c2.1,0,4.2,0,6.3,0
			c2.9,0,5.3,0.3,7.3,1c2,0.7,3.5,1.7,4.5,3c1,1.4,1.5,3.2,1.5,5.4c0,1.3-0.3,2.5-0.9,3.7c-0.6,1.2-1.5,2.3-2.7,3.2
			c-1.2,0.9-2.9,1.7-4.9,2.2c0.6,0.3,1.2,0.8,1.7,1.3c0.6,0.6,1.1,1.2,1.5,2l2.6,3.9c0.6,1,1.2,1.8,1.7,2.4c0.5,0.6,1.1,1.1,1.7,1.4
			c0.6,0.3,1.2,0.5,2,0.5v2.6h-7.2c-0.7-0.5-1.3-1.2-1.9-2c-0.6-0.8-1.2-1.7-1.8-2.7l-3.4-5.3c-0.4-0.7-0.8-1.3-1.2-1.8
			c-0.4-0.6-0.8-1.1-1.2-1.5c-0.5,0-1,0-1.4,0c-0.4,0-0.9,0-1.3,0v6.3c0,0.9,0,1.7,0,2.4c0,0.7-0.1,1.3-0.1,1.7
			c0.3,0,0.8-0.1,1.3-0.1c0.5,0,1,0,1.4,0c0.5,0,0.9,0,1.1,0v3.1H1484.8z M1496.5,859.7c1.8,0,3.2-0.3,4.4-0.8
			c1.1-0.5,2-1.3,2.6-2.3c0.6-1.1,0.9-2.4,0.9-4c0-1.4-0.2-2.5-0.6-3.4s-1-1.5-1.7-2c-0.7-0.5-1.5-0.8-2.3-1
			c-0.8-0.2-1.7-0.3-2.5-0.3c-0.8,0-1.5,0.1-1.9,0.4c-0.5,0.2-0.8,0.7-1,1.3c-0.2,0.6-0.3,1.5-0.3,2.6v9.3c0.4,0,0.8,0.1,1.2,0.1
			C1495.6,859.7,1496,859.7,1496.5,859.7z"/>
		<path d="M1516.3,875.8v-2.6c0.9,0,1.6-0.2,2-0.4s0.8-0.7,1-1.4s0.3-1.6,0.3-2.8v-18.5c0-0.8,0-1.5,0.1-2.2c0-0.7,0.1-1.3,0.1-1.7
			c-0.5,0-1.2,0.1-1.8,0.1c-0.7,0-1.2,0-1.7,0.1v-3.1c2.1,0,4.2-0.1,6.3-0.1c2.1,0,4.2,0,6.3,0c2.9,0,5.3,0.3,7.3,1
			c2,0.7,3.5,1.7,4.5,3c1,1.4,1.5,3.2,1.5,5.4c0,1.3-0.3,2.5-0.9,3.7c-0.6,1.2-1.5,2.3-2.7,3.2c-1.2,0.9-2.9,1.7-4.9,2.2
			c0.6,0.3,1.2,0.8,1.7,1.3c0.5,0.6,1.1,1.2,1.5,2l2.6,3.9c0.6,1,1.2,1.8,1.7,2.4c0.5,0.6,1.1,1.1,1.7,1.4c0.6,0.3,1.2,0.5,2,0.5
			v2.6h-7.2c-0.7-0.5-1.3-1.2-1.9-2c-0.6-0.8-1.2-1.7-1.8-2.7l-3.4-5.3c-0.4-0.7-0.8-1.3-1.2-1.8c-0.4-0.6-0.8-1.1-1.2-1.5
			c-0.5,0-1,0-1.4,0s-0.9,0-1.3,0v6.3c0,0.9,0,1.7,0,2.4c0,0.7-0.1,1.3-0.1,1.7c0.3,0,0.8-0.1,1.3-0.1c0.5,0,1,0,1.4,0
			c0.5,0,0.8,0,1.1,0v3.1H1516.3z M1528,859.7c1.8,0,3.2-0.3,4.4-0.8c1.2-0.5,2-1.3,2.6-2.3c0.6-1.1,0.9-2.4,0.9-4
			c0-1.4-0.2-2.5-0.6-3.4c-0.4-0.9-1-1.5-1.7-2c-0.7-0.5-1.5-0.8-2.3-1c-0.8-0.2-1.7-0.3-2.5-0.3c-0.8,0-1.5,0.1-1.9,0.4
			c-0.5,0.2-0.8,0.7-1,1.3c-0.2,0.6-0.3,1.5-0.3,2.6v9.3c0.4,0,0.8,0.1,1.2,0.1C1527.1,859.7,1527.5,859.7,1528,859.7z"/>
		<path d="M1563.5,876.5c-3,0-5.5-0.5-7.7-1.5c-2.1-1-3.8-2.3-5.1-4c-1.3-1.7-2.3-3.5-2.9-5.5c-0.6-2-0.9-4-0.9-6c0-2,0.3-3.9,1-5.9
			c0.7-2,1.7-3.8,3-5.5c1.4-1.7,3.1-3,5.2-4c2.1-1,4.5-1.5,7.3-1.5c2.9,0,5.3,0.5,7.4,1.5c2.1,1,3.8,2.4,5.1,4.1
			c1.3,1.7,2.3,3.5,3,5.5c0.6,2,1,3.9,1,5.9c0,1.9-0.3,3.9-1,5.9c-0.7,2-1.7,3.8-3,5.5c-1.4,1.7-3.1,3-5.2,4.1
			C1568.8,876,1566.3,876.5,1563.5,876.5z M1563.9,873.6c1.8,0,3.3-0.4,4.5-1.2c1.2-0.8,2.2-1.9,3-3.2c0.8-1.3,1.3-2.7,1.7-4.3
			c0.4-1.6,0.5-3.1,0.5-4.6c0-2.1-0.2-4-0.7-5.8s-1.1-3.4-2-4.8c-0.9-1.4-2-2.4-3.3-3.2c-1.3-0.8-2.8-1.2-4.6-1.1
			c-1.7,0-3.2,0.5-4.4,1.3c-1.2,0.8-2.2,1.9-3,3.2c-0.8,1.3-1.3,2.8-1.7,4.3c-0.3,1.6-0.5,3.1-0.5,4.6c0,1.5,0.2,3.2,0.6,4.9
			c0.4,1.7,1,3.3,1.8,4.8c0.8,1.5,1.9,2.7,3.2,3.7C1560.4,873.2,1562,873.6,1563.9,873.6z"/>
		<path d="M1609.2,876.3l-16.4-20.9c-0.3-0.5-0.7-1-1.1-1.5c-0.4-0.5-0.8-1-1.2-1.6h0l0.1,16.2c0,0.8,0,1.6,0,2.4
			c0,0.8-0.1,1.4-0.1,1.9c0.5,0,1.1-0.1,1.8-0.1c0.7,0,1.2,0,1.7,0v3.1h-10.1v-2.6c0.8,0,1.5-0.2,1.9-0.4c0.5-0.2,0.8-0.6,1-1.2
			c0.2-0.6,0.3-1.3,0.3-2.3l0-19.3c0-0.7,0-1.5,0-2.1c0-0.7,0.1-1.2,0.1-1.7c-0.5,0-1.1,0.1-1.8,0.1c-0.7,0-1.2,0-1.7,0.1v-3.1h6.8
			l15.5,19.7c0.7,0.8,1.2,1.6,1.7,2.2c0.5,0.6,0.9,1.2,1.3,1.8h0v-16.9c0-0.8,0-1.5,0-2.2c0-0.7,0.1-1.3,0.1-1.7
			c-0.5,0-1.1,0.1-1.8,0.1c-0.7,0-1.3,0-1.7,0.1v-3.1h10.1v2.6c-0.9,0-1.5,0.2-2,0.4c-0.5,0.3-0.8,0.7-1,1.4
			c-0.2,0.7-0.3,1.6-0.3,2.8l0,25.9H1609.2z"/>
		<path d="M1636.3,864.3c0-1.3-0.2-2.3-0.6-2.9c-0.4-0.6-1-0.9-1.7-1.1c-0.7-0.1-1.6-0.2-2.7-0.1l-1.9,0.1v8.6c0,0.8,0,1.6,0,2.3
			c0,0.7-0.1,1.2-0.1,1.6l7.2,0c1.1,0,2.1-0.2,3-0.6c0.9-0.4,1.7-1.1,2.2-2.1c0.6-1,0.9-2.4,0.9-4.1h2.6l-0.2,9.8h-24.7v-2.6
			c0.9,0,1.6-0.2,2-0.4c0.5-0.3,0.8-0.7,1-1.4c0.2-0.7,0.3-1.6,0.3-2.8v-18.5c0-0.8,0-1.5,0.1-2.2c0-0.7,0.1-1.3,0.1-1.7
			c-0.5,0-1.2,0.1-1.8,0.1c-0.7,0-1.2,0-1.7,0.1v-3.1h23.3l0.3,8.7h-2.6c0-1.8-0.3-3.1-0.9-4c-0.6-0.9-1.3-1.5-2.2-1.8
			c-0.9-0.3-1.9-0.4-2.8-0.4l-2.5,0c-0.8,0-1.5,0.2-2,0.4c-0.5,0.2-0.8,0.7-1,1.3c-0.2,0.6-0.3,1.6-0.3,2.8v7.1l6.6,0l-0.2-4h3.1
			v10.8H1636.3z"/>
		<path d="M1668.4,853.5c-0.2-1.6-0.7-3.1-1.4-4.3c-0.7-1.2-1.6-2.2-2.8-2.8c-1.2-0.7-2.5-1-4.1-1c-1.5,0-2.8,0.4-3.8,1.3
			c-1,0.9-1.5,1.9-1.5,3.2c0,1.1,0.3,2,0.9,2.7c0.6,0.8,1.5,1.5,2.7,2.1c1.2,0.6,2.6,1.3,4.2,2c1.2,0.5,2.4,1,3.6,1.6
			c1.2,0.6,2.4,1.3,3.4,2.2s1.9,1.8,2.5,2.9c0.6,1.1,1,2.4,1,3.9c0,1.8-0.5,3.4-1.4,4.8s-2.3,2.5-4.1,3.3c-1.8,0.8-3.8,1.2-6.2,1.2
			c-1.3,0-2.7-0.2-4.2-0.6c-1.5-0.4-2.8-1-4.1-1.7l0.1,2h-3.2l-0.1-10.5h2.7c0.3,2.6,1.3,4.6,3,6c1.6,1.3,3.6,2,5.9,2
			c1.2,0,2.2-0.2,3.1-0.6c0.9-0.4,1.6-1,2.1-1.7c0.5-0.7,0.8-1.6,0.8-2.5c0-1.2-0.4-2.2-1.1-3c-0.8-0.8-1.7-1.4-2.9-2
			c-1.2-0.6-2.4-1.1-3.6-1.6c-1.4-0.6-2.8-1.2-4-1.9c-1.3-0.7-2.4-1.4-3.3-2.3c-1-0.9-1.7-1.8-2.3-2.9c-0.6-1.1-0.8-2.4-0.8-3.9
			c0-0.9,0.2-1.8,0.5-2.9c0.3-1,0.9-1.9,1.7-2.8c0.8-0.9,1.9-1.6,3.2-2.1c1.4-0.6,3-0.8,5.1-0.8c1.3,0,2.6,0.2,4.1,0.5
			c1.5,0.4,2.8,0.9,3.9,1.7l-0.2-2h3.3v10.6H1668.4z"/>
	</g>
	<g>
		<path d="M1530.5,942.4v-2.6c0.9,0,1.6-0.2,2.1-0.7c0.5-0.5,1-1.2,1.3-2c0.3-0.8,0.7-1.7,1.1-2.8l9.4-25.2h2.5l10.2,25.7
			c0.2,0.5,0.4,1.3,0.8,2.2c0.3,1,0.5,1.8,0.5,2.5c0.5,0,1.1-0.1,1.6-0.1c0.5,0,0.9,0,1.3,0v3.1h-12v-2.6c1,0,1.6-0.2,2-0.6
			s0.5-0.9,0.4-1.6c0-0.6-0.2-1.3-0.5-2l-1.2-3.2l-11,0.2l-1,3.1c-0.2,0.5-0.4,1.1-0.7,1.8c-0.3,0.7-0.5,1.3-0.8,1.8
			c0.6,0,1.2-0.1,1.9-0.1c0.7,0,1.2,0,1.6,0v3.2H1530.5z M1540.2,929.7h8.9l-2.6-6.8c-0.4-1.1-0.7-2.1-1.1-3.2s-0.6-2.1-0.8-2.9
			h-0.1c-0.2,0.6-0.4,1.4-0.7,2.4c-0.3,1-0.6,2.1-1.1,3.4L1540.2,929.7z"/>
		<path d="M1582.7,920.1c-0.2-1.6-0.7-3.1-1.4-4.3c-0.7-1.2-1.6-2.2-2.8-2.8c-1.2-0.7-2.5-1-4.1-1c-1.5,0-2.8,0.4-3.8,1.3
			c-1,0.9-1.5,1.9-1.5,3.2c0,1.1,0.3,2,0.9,2.7c0.6,0.8,1.5,1.5,2.7,2.1c1.2,0.6,2.6,1.3,4.2,2c1.2,0.5,2.4,1,3.6,1.6
			c1.2,0.6,2.4,1.3,3.4,2.2c1,0.8,1.9,1.8,2.5,2.9c0.6,1.1,1,2.4,1,3.9c0,1.8-0.5,3.4-1.4,4.8c-1,1.4-2.3,2.5-4.1,3.3
			c-1.8,0.8-3.8,1.2-6.2,1.2c-1.3,0-2.7-0.2-4.2-0.6c-1.5-0.4-2.8-1-4.1-1.7l0.1,2h-3.2l-0.1-10.5h2.7c0.3,2.6,1.3,4.6,3,6
			c1.6,1.3,3.6,2,5.9,2c1.2,0,2.2-0.2,3.1-0.6c0.9-0.4,1.6-1,2.1-1.7c0.5-0.7,0.8-1.6,0.8-2.5c0-1.2-0.4-2.2-1.1-3
			c-0.8-0.8-1.7-1.4-2.9-2c-1.2-0.6-2.4-1.1-3.6-1.6c-1.4-0.6-2.8-1.2-4-1.9c-1.3-0.7-2.4-1.4-3.3-2.3c-1-0.9-1.7-1.8-2.3-2.9
			c-0.5-1.1-0.8-2.4-0.8-3.9c0-0.9,0.2-1.8,0.5-2.9c0.3-1,0.9-1.9,1.7-2.8c0.8-0.9,1.9-1.6,3.2-2.1c1.4-0.6,3-0.8,5.1-0.8
			c1.3,0,2.6,0.2,4.1,0.5c1.5,0.4,2.8,0.9,3.9,1.7l-0.2-2h3.3v10.6H1582.7z"/>
		<path d="M1616.1,920.2c0-1.7-0.2-3.2-0.7-4.3c-0.4-1.1-1.1-2-2-2.5c-0.9-0.6-2-0.8-3.3-0.8h-2.9v22.9c0,0.8,0,1.6,0,2.3
			c0,0.7-0.1,1.3-0.1,1.7c0.6,0,1.3-0.1,2.1-0.1c0.8,0,1.4,0,1.8,0v3.1h-12.9v-2.6c0.9,0,1.6-0.2,2-0.5s0.8-0.7,1-1.4
			c0.2-0.6,0.3-1.6,0.3-2.7l0-22.7h-3.1c-1.9,0-3.3,0.7-4.3,1.9c-1,1.2-1.5,3.1-1.5,5.7h-2.6l0.2-10.3h28.3l0.3,10.3H1616.1z"/>
		<path d="M1634.7,912.5c-0.9,0-1.5,0.2-2,0.4c-0.5,0.3-0.8,0.7-1,1.4c-0.2,0.7-0.3,1.6-0.3,2.8v18.4c0,0.8,0,1.6,0,2.3
			c0,0.7-0.1,1.3-0.1,1.7c0.5,0,1.1-0.1,1.8-0.1c0.7,0,1.2,0,1.7,0v3.1h-12.6v-2.6c0.9,0,1.6-0.2,2-0.4c0.5-0.3,0.8-0.7,1-1.4
			c0.2-0.7,0.3-1.6,0.3-2.8v-18.5c0-0.8,0-1.5,0.1-2.2c0-0.7,0.1-1.3,0.1-1.7c-0.5,0-1.2,0.1-1.8,0.1c-0.7,0-1.2,0-1.7,0.1v-3.1
			h12.6V912.5z"/>
		<path d="M1639.6,942.4v-2.6c0.9,0,1.6-0.2,2-0.4c0.5-0.3,0.8-0.7,1-1.4c0.2-0.7,0.3-1.6,0.3-2.8v-18.5c0-0.8,0-1.5,0.1-2.2
			c0-0.7,0.1-1.3,0.1-1.7c-0.5,0-1.1,0.1-1.8,0.1c-0.7,0-1.2,0-1.7,0.1v-3.1h12.6v2.6c-0.9,0-1.5,0.2-2,0.4c-0.5,0.3-0.8,0.7-1,1.4
			c-0.2,0.7-0.3,1.6-0.3,2.8v18.5c0,0.8,0,1.6,0,2.3c0,0.7-0.1,1.2-0.1,1.6l7.2,0c1.9,0,3.4-0.6,4.4-1.9c1-1.3,1.6-3.2,1.6-5.8h2.6
			l-0.3,10.6H1639.6z"/>
		<path d="M1667.7,942.4v-2.6c0.9,0,1.6-0.2,2-0.4c0.5-0.3,0.8-0.7,1-1.4c0.2-0.7,0.3-1.6,0.3-2.8v-18.5c0-0.8,0-1.5,0.1-2.2
			c0-0.7,0.1-1.3,0.1-1.7c-0.5,0-1.2,0.1-1.8,0.1c-0.7,0-1.2,0-1.7,0.1v-3.1h12.6v2.6c-0.9,0-1.5,0.2-2,0.4c-0.5,0.3-0.8,0.7-1,1.4
			c-0.2,0.7-0.3,1.6-0.3,2.8v18.5c0,0.8,0,1.6,0,2.3c0,0.7-0.1,1.2-0.1,1.6l7.2,0c1.9,0,3.4-0.6,4.4-1.9c1-1.3,1.6-3.2,1.6-5.8h2.6
			l-0.3,10.6H1667.7z"/>
		<path d="M1711.4,943.1c-3,0-5.5-0.5-7.7-1.5c-2.1-1-3.8-2.3-5.1-4c-1.3-1.7-2.3-3.5-2.9-5.5c-0.6-2-0.9-4-0.9-6c0-2,0.3-3.9,1-5.9
			c0.7-2,1.7-3.8,3-5.5c1.4-1.7,3.1-3,5.2-4c2.1-1,4.5-1.5,7.3-1.5c2.9,0,5.3,0.5,7.4,1.5c2.1,1,3.8,2.4,5.1,4.1
			c1.3,1.7,2.3,3.5,3,5.5c0.6,2,1,3.9,1,5.9c0,1.9-0.3,3.9-1,5.9c-0.7,2-1.7,3.8-3,5.5c-1.4,1.7-3.1,3.1-5.2,4.1
			C1716.6,942.6,1714.2,943.1,1711.4,943.1z M1711.8,940.3c1.8,0,3.3-0.4,4.5-1.2c1.2-0.8,2.2-1.9,3-3.2c0.8-1.3,1.3-2.7,1.7-4.3
			c0.4-1.6,0.5-3.1,0.5-4.6c0-2.1-0.2-4-0.7-5.8c-0.4-1.8-1.1-3.4-2-4.8c-0.9-1.4-2-2.4-3.3-3.2c-1.3-0.8-2.9-1.2-4.6-1.1
			c-1.7,0-3.2,0.5-4.4,1.3c-1.2,0.8-2.2,1.9-3,3.2c-0.8,1.3-1.3,2.8-1.7,4.3c-0.3,1.6-0.5,3.1-0.5,4.6c0,1.5,0.2,3.2,0.6,4.9
			c0.4,1.7,1,3.3,1.8,4.8c0.8,1.5,1.9,2.7,3.2,3.7C1708.3,939.8,1709.9,940.3,1711.8,940.3z"/>
	</g>
	<g>
		<g>
			<path d="M1431.9,943c-2.2,0-4.3-0.3-6.3-0.8c-2.1-0.5-3.9-1.3-5.6-2.5c-1.7-1.1-3-2.6-4-4.4c-1-1.8-1.5-3.9-1.5-6.5
				c0-3.2,1.1-6,3.2-8.5c2.1-2.5,4.9-4.4,8.3-5.8c-1.4-1.8-2.5-3.4-3.4-4.9c-0.8-1.5-1.4-2.9-1.8-4.4c-0.4-1.4-0.5-2.8-0.5-4.3
				c0-3.6,1.3-6.5,3.9-8.6c2.5-2.1,5.8-3.2,9.8-3.2c2.5,0,4.7,0.5,6.6,1.4c1.9,1,3.3,2.2,4.3,3.8c1,1.6,1.5,3.4,1.5,5.4
				c0,1.9-0.4,3.6-1.3,5.4c-0.9,1.7-2.1,3.3-3.8,4.8c-1.7,1.5-3.9,2.9-6.5,4.3c1,1,2.2,2.2,3.6,3.7c1.4,1.5,3,3.1,4.7,4.7
				c1.7,1.6,3.3,3.2,4.8,4.6c0.2-0.8,0.3-1.5,0.4-2.3c0.1-0.7,0.1-1.4,0.1-2.1c0-1.2-0.2-2.3-0.5-3.3c-0.3-1-0.8-1.8-1.5-2.4
				c-0.7-0.6-1.7-0.9-3-1v-3.2h12.6v3.9l-5.4-0.3c0.6,0.6,1,1.4,1.3,2.3c0.3,0.9,0.4,2,0.5,3.2c0,1.1,0,2.3-0.3,3.7
				c-0.2,1.4-0.6,2.8-1.2,4.3c0.4,0.4,0.9,0.8,1.4,1.2c0.5,0.4,1,0.8,1.5,1.3c2.1,1.9,3.9,3.3,5.5,4.3c1.6,1,2.8,1.5,3.7,1.5v3.2
				h-7.2c-0.4,0-1.4-0.4-2.9-1.3c-1.5-0.9-3.3-2.2-5.6-4.1c-1.7,1.9-3.8,3.4-6.4,4.7C1438.5,942.4,1435.4,943,1431.9,943z
				 M1433.2,938.8c2.7,0.1,5-0.4,6.8-1.3c1.9-0.9,3.4-2.1,4.6-3.6c-0.4-0.4-0.9-0.8-1.3-1.2c-0.4-0.4-0.9-0.8-1.4-1.2
				c-3.1-3-5.8-5.7-8.1-7.9c-2.2-2.2-4.2-4.3-5.9-6.2c-1.3,0.9-2.4,1.9-3.1,3.2c-0.8,1.2-1.3,2.5-1.6,3.7c-0.3,1.2-0.5,2.3-0.5,3.3
				c0,2.5,0.5,4.6,1.4,6.3c1,1.6,2.2,2.9,3.8,3.7C1429.6,938.3,1431.3,938.8,1433.2,938.8z M1432.8,912c2.4-1.7,4.3-3.7,5.4-5.8
				c1.2-2.2,1.8-4.2,1.8-6.2c0-2.2-0.5-3.9-1.6-5.3c-1.1-1.4-2.7-2.1-4.7-2.1c-1.8,0-3.3,0.7-4.5,2.1c-1.2,1.4-1.8,3.3-1.8,5.9
				c0,1.9,0.5,3.8,1.5,5.8C1429.9,908.4,1431.2,910.3,1432.8,912z"/>
		</g>
		<g>
			<path d="M1524.1,906.8c-0.5-4.4-2.1-7.8-4.5-10.2c-2.5-2.4-5.7-3.6-9.8-3.6c-2.5,0-4.9,0.6-7,1.7c-2.2,1.1-4,2.7-5.6,4.7
				c-1.6,2-2.8,4.4-3.6,7.2c-0.9,2.8-1.3,5.8-1.3,9.1c0,4.4,0.8,8.4,2.3,11.8c1.6,3.4,3.7,6.1,6.5,8c2.8,1.9,5.9,2.9,9.4,2.9
				c3.1,0,6.2-0.7,9.3-2.2c3.1-1.5,5.6-3.6,7.6-6.3l2.4,2.1c-2.2,3-4.5,5.4-7,7c-2.5,1.6-5,2.7-7.4,3.3c-2.5,0.6-4.7,0.8-6.7,0.8
				c-3.7,0-7-0.7-10.1-2c-3.1-1.3-5.7-3.2-8-5.5c-2.2-2.4-3.9-5.1-5.1-8.3c-1.2-3.2-1.8-6.6-1.8-10.2c0-3.4,0.5-6.8,1.6-10
				c1.1-3.3,2.7-6.2,4.8-8.9c2.1-2.7,4.8-4.8,8-6.3c3.2-1.6,6.9-2.3,11.2-2.3c2.5,0,4.9,0.3,7.3,1c2.4,0.7,4.7,1.7,6.9,3.2l-0.4-3.7
				h4.5v17H1524.1z"/>
		</g>
	</g>
	<g>
		
			<rect x="1293.7" y="898.4" transform="matrix(-3.115698e-03 1 -1 -3.115698e-03 2292.8894 -485.7565)" class="st1" width="189.7" height="3.1"/>
	</g>
	<g>
		<g>
			<path class="st2" d="M1209.2,825.6v12.9c0,1.1,0.9,2,2,2h148.2c1.1,0,2-0.9,2-2v-12.9c0-1.1-0.9-2-2-2h-148.2
				C1210.1,823.6,1209.2,824.5,1209.2,825.6z"/>
		</g>
		<g>
			<path class="st3" d="M1211.2,975.8h12.9c1.1,0,2-0.9,2-2v-80.5c0-1.1-0.9-2-2-2h-12.9c-1.1,0-2,0.9-2,2v80.5
				C1209.2,974.9,1210.1,975.8,1211.2,975.8z"/>
		</g>
		<g>
			<path class="st0" d="M1257.9,857.4h-46.7c-1.1,0-2,0.9-2,2v12.9c0,1.1,0.9,2,2,2h29.8c0.6,0,1.1,0.2,1.4,0.6l16.9-16.9
				C1258.9,857.6,1258.4,857.4,1257.9,857.4z"/>
		</g>
		<g>
			<path class="st2" d="M1242.4,874.9c0.4,0.4,0.6,0.9,0.6,1.4v97.4c0,1.1,0.9,2,2,2h12.9c1.1,0,2-0.9,2-2V859.4
				c0-0.6-0.2-1.1-0.6-1.4L1242.4,874.9z"/>
		</g>
		<g>
			<path class="st3" d="M1278.8,975.8h80.6c1.1,0,2-0.9,2-2v-12.9c0-1.1-0.9-2-2-2h-63.6c-0.6,0-1.1-0.2-1.4-0.6l-16.9,16.9
				C1277.8,975.6,1278.3,975.8,1278.8,975.8z"/>
		</g>
		<g>
			<path class="st2" d="M1294.3,874.9l-16.9-16.9c-0.4,0.4-0.6,0.9-0.6,1.4v114.3c0,0.6,0.2,1.1,0.6,1.4l16.9-16.9
				c-0.4-0.4-0.6-0.9-0.6-1.4v-80.5C1293.7,875.8,1294,875.3,1294.3,874.9z"/>
		</g>
		<g>
			<path class="st0" d="M1295.7,874.3h63.6c1.1,0,2-0.9,2-2v-12.9c0-1.1-0.9-2-2-2h-80.6c-0.6,0-1.1,0.2-1.4,0.6l16.9,16.9
				C1294.7,874.6,1295.2,874.3,1295.7,874.3z"/>
		</g>
		<g>
			<path class="st2" d="M1312.7,942h46.7c1.1,0,2-0.9,2-2v-12.9c0-1.1-0.9-2-2-2h-29.8c-0.6,0-1.1-0.2-1.4-0.6l-16.9,16.9
				C1311.6,941.8,1312.1,942,1312.7,942z"/>
		</g>
		<g>
			<path class="st0" d="M1329.6,908.2h29.8c1.1,0,2-0.9,2-2v-12.9c0-1.1-0.9-2-2-2h-31.8h-14.9c-0.6,0-1.1,0.2-1.4,0.6l16.9,16.9
				C1328.5,908.4,1329,908.2,1329.6,908.2z"/>
		</g>
		<g>
			<path class="st2" d="M1310.6,893.3V940c0,0.6,0.2,1.1,0.6,1.4l16.9-16.9c-0.4-0.4-0.6-0.9-0.6-1.4v-12.9c0-0.6,0.2-1.1,0.6-1.4
				l-16.9-16.9C1310.9,892.2,1310.6,892.7,1310.6,893.3z"/>
		</g>
	</g>
</g>
<g>
	<path d="M4585.1,2995.1l-6.8,16h3.6l1.4-3.4h7.1l1.4,3.4h3.7l-6.9-16H4585.1z M4584.4,3004.9l2.4-6.1l2.4,6.1H4584.4z"/>
	<path d="M4608.8,3002.9c-0.1-0.1-0.3-0.1-0.4-0.2c0.6-0.3,1.1-0.8,1.5-1.3c0.4-0.6,0.6-1.3,0.6-2.2c0-1.3-0.5-2.3-1.5-3
		c-1-0.8-2.4-1.1-4.4-1.1h-7.5v16h7.9c2,0,3.5-0.4,4.6-1.2c1-0.8,1.6-1.8,1.6-3.2c0-0.9-0.2-1.7-0.6-2.4
		C4610.2,3003.8,4609.6,3003.3,4608.8,3002.9z M4604.2,2997.9c0.9,0,1.5,0.2,2,0.5c0.5,0.3,0.7,0.8,0.7,1.4c0,0.6-0.2,1.1-0.7,1.4
		c-0.5,0.3-1.1,0.5-2,0.5h-3.5v-3.8H4604.2z M4606.9,3007.9c-0.5,0.3-1.2,0.5-2.1,0.5h-4.1v-4h4.1c0.9,0,1.6,0.2,2.1,0.5
		c0.5,0.3,0.7,0.8,0.7,1.5C4607.6,3007,4607.4,3007.5,4606.9,3007.9z"/>
	<path d="M4627.3,2997.2c-0.8-0.7-1.6-1.3-2.7-1.7s-2.1-0.6-3.3-0.6c-1.2,0-2.3,0.2-3.3,0.6c-1,0.4-1.9,1-2.7,1.7
		c-0.8,0.7-1.4,1.6-1.8,2.6c-0.4,1-0.6,2.1-0.6,3.3c0,1.2,0.2,2.3,0.6,3.3c0.4,1,1,1.9,1.8,2.6c0.8,0.7,1.6,1.3,2.7,1.7
		c1,0.4,2.2,0.6,3.4,0.6c1.2,0,2.3-0.2,3.3-0.6s1.9-1,2.7-1.7c0.8-0.7,1.3-1.6,1.8-2.6c0.4-1,0.6-2.1,0.6-3.3c0-1.2-0.2-2.3-0.6-3.3
		C4628.7,2998.8,4628.1,2997.9,4627.3,2997.2z M4625.8,3005.2c-0.2,0.6-0.6,1.2-1,1.6c-0.4,0.5-0.9,0.8-1.5,1.1
		c-0.6,0.2-1.2,0.4-1.9,0.4c-0.7,0-1.3-0.1-1.9-0.4c-0.6-0.2-1.1-0.6-1.5-1.1s-0.8-1-1-1.6c-0.2-0.6-0.4-1.3-0.4-2.1
		c0-0.8,0.1-1.5,0.4-2.1c0.2-0.6,0.6-1.2,1-1.6c0.4-0.5,0.9-0.8,1.5-1.1c0.6-0.2,1.2-0.4,1.9-0.4c0.7,0,1.3,0.1,1.9,0.4
		c0.6,0.2,1.1,0.6,1.5,1.1c0.4,0.5,0.8,1,1,1.6c0.2,0.6,0.4,1.3,0.4,2.1C4626.2,3003.9,4626,3004.6,4625.8,3005.2z"/>
	<path d="M4636.5,2999.4c0.4-0.5,1-0.8,1.6-1.1c0.6-0.2,1.3-0.4,2-0.4c0.8,0,1.5,0.1,2.2,0.4c0.7,0.3,1.3,0.8,1.8,1.4l2.3-2.2
		c-0.7-0.9-1.7-1.6-2.8-2.1c-1.1-0.5-2.3-0.7-3.7-0.7c-1.2,0-2.4,0.2-3.4,0.6c-1,0.4-1.9,1-2.7,1.7s-1.4,1.6-1.8,2.6
		c-0.4,1-0.6,2.1-0.6,3.3c0,1.2,0.2,2.3,0.6,3.3c0.4,1,1,1.9,1.8,2.6c0.8,0.7,1.6,1.3,2.7,1.7c1,0.4,2.1,0.6,3.3,0.6
		c1.1,0,2.2-0.2,3.3-0.5c1.1-0.4,2.1-0.9,2.9-1.5v-6.5h-3.2v4.7c-0.2,0.1-0.5,0.2-0.7,0.3c-0.7,0.2-1.4,0.4-2.1,0.4
		c-0.7,0-1.4-0.1-2-0.4c-0.6-0.2-1.1-0.6-1.6-1.1s-0.8-1-1-1.6c-0.2-0.6-0.4-1.3-0.4-2.1c0-0.8,0.1-1.5,0.4-2.1
		C4635.7,3000.4,4636,2999.9,4636.5,2999.4z"/>
	<path d="M4654.2,2995.1l-6.9,16h3.6l1.4-3.4h7.1l1.4,3.4h3.7l-6.9-16H4654.2z M4653.5,3004.9l2.4-6.1l2.4,6.1H4653.5z"/>
	<path d="M4677.6,2996.1c-1.3-0.7-2.7-1-4.4-1h-7v16h7c1.7,0,3.1-0.3,4.4-1c1.3-0.7,2.3-1.6,3-2.8c0.7-1.2,1.1-2.6,1.1-4.2
		c0-1.6-0.4-3-1.1-4.2C4679.8,2997.7,4678.8,2996.8,4677.6,2996.1z M4677.4,3005.7c-0.4,0.7-1,1.3-1.8,1.7s-1.6,0.6-2.7,0.6h-3.2
		v-9.9h3.2c1,0,1.9,0.2,2.7,0.6s1.3,1,1.8,1.7c0.4,0.7,0.6,1.6,0.6,2.6C4678,3004.1,4677.8,3005,4677.4,3005.7z"/>
	<path d="M4697.8,2997.2c-0.8-0.7-1.6-1.3-2.7-1.7c-1-0.4-2.1-0.6-3.3-0.6c-1.2,0-2.3,0.2-3.3,0.6c-1,0.4-1.9,1-2.7,1.7
		c-0.8,0.7-1.4,1.6-1.8,2.6c-0.4,1-0.6,2.1-0.6,3.3c0,1.2,0.2,2.3,0.6,3.3c0.4,1,1,1.9,1.8,2.6s1.6,1.3,2.7,1.7s2.2,0.6,3.4,0.6
		c1.2,0,2.3-0.2,3.3-0.6c1-0.4,1.9-1,2.7-1.7c0.8-0.7,1.3-1.6,1.8-2.6c0.4-1,0.6-2.1,0.6-3.3c0-1.2-0.2-2.3-0.6-3.3
		S4698.5,2997.9,4697.8,2997.2z M4696.2,3005.2c-0.2,0.6-0.6,1.2-1,1.6c-0.4,0.5-0.9,0.8-1.5,1.1c-0.6,0.2-1.2,0.4-1.9,0.4
		c-0.7,0-1.3-0.1-1.9-0.4c-0.6-0.2-1.1-0.6-1.5-1.1s-0.8-1-1-1.6c-0.2-0.6-0.4-1.3-0.4-2.1c0-0.8,0.1-1.5,0.4-2.1
		c0.2-0.6,0.6-1.2,1-1.6c0.4-0.5,0.9-0.8,1.5-1.1c0.6-0.2,1.2-0.4,1.9-0.4c0.7,0,1.3,0.1,1.9,0.4c0.6,0.2,1.1,0.6,1.5,1.1
		c0.4,0.5,0.8,1,1,1.6c0.2,0.6,0.4,1.3,0.4,2.1C4696.6,3003.9,4696.4,3004.6,4696.2,3005.2z"/>
	<path d="M4712.6,3003c-0.5-0.3-1.1-0.6-1.7-0.8s-1.3-0.4-1.9-0.5c-0.6-0.2-1.2-0.3-1.7-0.5c-0.5-0.2-1-0.4-1.3-0.6
		c-0.3-0.3-0.5-0.6-0.5-1c0-0.4,0.1-0.7,0.3-0.9c0.2-0.3,0.5-0.5,0.9-0.7c0.4-0.2,1-0.3,1.7-0.3c0.7,0,1.4,0.1,2.1,0.3
		c0.7,0.2,1.4,0.5,2.2,0.9l1.1-2.8c-0.7-0.5-1.5-0.8-2.5-1.1c-0.9-0.2-1.9-0.4-2.9-0.4c-1.4,0-2.7,0.2-3.6,0.7
		c-1,0.4-1.7,1.1-2.2,1.8c-0.5,0.8-0.7,1.6-0.7,2.5c0,0.9,0.2,1.6,0.5,2.1c0.3,0.5,0.8,1,1.3,1.3c0.5,0.3,1.1,0.6,1.7,0.8
		c0.6,0.2,1.3,0.4,1.9,0.5c0.6,0.1,1.2,0.3,1.7,0.5c0.5,0.2,1,0.4,1.3,0.6c0.3,0.3,0.5,0.6,0.5,1c0,0.3-0.1,0.6-0.3,0.9
		s-0.5,0.5-1,0.6c-0.4,0.1-1,0.2-1.7,0.2c-0.9,0-1.8-0.2-2.7-0.5s-1.7-0.7-2.3-1.2l-1.2,2.8c0.7,0.5,1.6,1,2.7,1.3
		c1.1,0.3,2.3,0.5,3.5,0.5c1.5,0,2.7-0.2,3.6-0.7c1-0.5,1.7-1.1,2.2-1.8c0.5-0.7,0.7-1.6,0.7-2.5c0-0.8-0.2-1.5-0.5-2.1
		C4713.6,3003.8,4713.2,3003.4,4712.6,3003z"/>
	<path d="M4727.1,2999.4c0.4-0.5,1-0.8,1.6-1.1c0.6-0.2,1.3-0.4,2-0.4c0.8,0,1.5,0.2,2.1,0.5c0.6,0.3,1.2,0.8,1.8,1.4l2.3-2.2
		c-0.7-0.9-1.6-1.6-2.7-2.1c-1.1-0.5-2.3-0.7-3.6-0.7c-1.2,0-2.3,0.2-3.3,0.6c-1,0.4-1.9,1-2.6,1.7c-0.8,0.7-1.3,1.6-1.8,2.6
		c-0.4,1-0.6,2.1-0.6,3.3c0,1.2,0.2,2.3,0.6,3.3c0.4,1,1,1.9,1.7,2.6c0.7,0.7,1.6,1.3,2.6,1.7c1,0.4,2.1,0.6,3.3,0.6
		c1.3,0,2.6-0.2,3.6-0.7c1.1-0.5,2-1.2,2.7-2.1l-2.3-2.2c-0.5,0.6-1.1,1.1-1.8,1.4c-0.6,0.3-1.3,0.5-2.1,0.5c-0.7,0-1.4-0.1-2-0.4
		c-0.6-0.2-1.1-0.6-1.6-1.1c-0.4-0.5-0.8-1-1-1.6c-0.2-0.6-0.4-1.3-0.4-2.1c0-0.8,0.1-1.5,0.4-2.1
		C4726.3,3000.4,4726.6,2999.9,4727.1,2999.4z"/>
	<path d="M4752.3,2997.2c-0.8-0.7-1.6-1.3-2.7-1.7c-1-0.4-2.1-0.6-3.3-0.6c-1.2,0-2.3,0.2-3.3,0.6s-1.9,1-2.7,1.7
		c-0.8,0.7-1.4,1.6-1.8,2.6c-0.4,1-0.6,2.1-0.6,3.3c0,1.2,0.2,2.3,0.6,3.3c0.4,1,1,1.9,1.8,2.6c0.8,0.7,1.6,1.3,2.7,1.7
		c1,0.4,2.2,0.6,3.4,0.6c1.2,0,2.3-0.2,3.3-0.6c1-0.4,1.9-1,2.7-1.7c0.8-0.7,1.3-1.6,1.8-2.6c0.4-1,0.6-2.1,0.6-3.3
		c0-1.2-0.2-2.3-0.6-3.3C4753.6,2998.8,4753,2997.9,4752.3,2997.2z M4750.7,3005.2c-0.2,0.6-0.6,1.2-1,1.6c-0.4,0.5-0.9,0.8-1.5,1.1
		c-0.6,0.2-1.2,0.4-1.9,0.4c-0.7,0-1.3-0.1-1.9-0.4c-0.6-0.2-1.1-0.6-1.5-1.1s-0.8-1-1-1.6c-0.2-0.6-0.4-1.3-0.4-2.1
		c0-0.8,0.1-1.5,0.4-2.1c0.2-0.6,0.6-1.2,1-1.6c0.4-0.5,0.9-0.8,1.5-1.1c0.6-0.2,1.2-0.4,1.9-0.4c0.7,0,1.3,0.1,1.9,0.4
		c0.6,0.2,1.1,0.6,1.5,1.1c0.4,0.5,0.8,1,1,1.6c0.2,0.6,0.4,1.3,0.4,2.1C4751.1,3003.9,4751,3004.6,4750.7,3005.2z"/>
	<polygon points="4767.9,3004.8 4760.3,2995.1 4757.4,2995.1 4757.4,3011.1 4760.9,3011.1 4760.9,3001.4 4768.5,3011.1 
		4771.5,3011.1 4771.5,2995.1 4767.9,2995.1 	"/>
	<path d="M4784.9,3003c-0.5-0.3-1.1-0.6-1.7-0.8c-0.6-0.2-1.3-0.4-1.9-0.5s-1.2-0.3-1.7-0.5c-0.5-0.2-1-0.4-1.3-0.6
		c-0.3-0.3-0.5-0.6-0.5-1c0-0.4,0.1-0.7,0.3-0.9c0.2-0.3,0.5-0.5,0.9-0.7c0.4-0.2,1-0.3,1.7-0.3c0.7,0,1.4,0.1,2.1,0.3
		c0.7,0.2,1.4,0.5,2.2,0.9l1.1-2.8c-0.7-0.5-1.5-0.8-2.5-1.1c-0.9-0.2-1.9-0.4-2.9-0.4c-1.4,0-2.7,0.2-3.6,0.7
		c-1,0.4-1.7,1.1-2.2,1.8c-0.5,0.8-0.7,1.6-0.7,2.5c0,0.9,0.2,1.6,0.5,2.1c0.3,0.5,0.8,1,1.3,1.3c0.5,0.3,1.1,0.6,1.7,0.8
		c0.6,0.2,1.3,0.4,1.9,0.5c0.6,0.1,1.2,0.3,1.7,0.5c0.5,0.2,1,0.4,1.3,0.6c0.3,0.3,0.5,0.6,0.5,1c0,0.3-0.1,0.6-0.3,0.9
		s-0.5,0.5-1,0.6c-0.4,0.1-1,0.2-1.7,0.2c-0.9,0-1.8-0.2-2.7-0.5c-0.9-0.3-1.7-0.7-2.3-1.2l-1.2,2.8c0.7,0.5,1.6,1,2.7,1.3
		c1.1,0.3,2.3,0.5,3.5,0.5c1.5,0,2.7-0.2,3.6-0.7c1-0.5,1.7-1.1,2.2-1.8c0.5-0.7,0.7-1.6,0.7-2.5c0-0.8-0.2-1.5-0.5-2.1
		C4785.8,3003.8,4785.4,3003.4,4784.9,3003z"/>
	<path d="M4799.4,3003.9c0,1.5-0.3,2.6-0.9,3.3c-0.6,0.7-1.4,1-2.5,1c-1.1,0-1.9-0.3-2.5-1c-0.6-0.7-0.9-1.8-0.9-3.3v-8.8h-3.6v9
		c0,2.3,0.6,4.2,1.8,5.4c1.2,1.3,2.9,1.9,5.1,1.9s3.9-0.6,5.1-1.9c1.2-1.3,1.8-3.1,1.8-5.4v-9h-3.5V3003.9z"/>
	<polygon points="4810,2995.1 4806.4,2995.1 4806.4,3011.1 4817.7,3011.1 4817.7,3008.1 4810,3008.1 	"/>
	<polygon points="4816.5,2998.1 4821.4,2998.1 4821.4,3011.1 4825,3011.1 4825,2998.1 4829.9,2998.1 4829.9,2995.1 4816.5,2995.1 	
		"/>
	<path d="M4845,2997.2c-0.8-0.7-1.6-1.3-2.7-1.7c-1-0.4-2.1-0.6-3.3-0.6c-1.2,0-2.3,0.2-3.3,0.6s-1.9,1-2.7,1.7
		c-0.8,0.7-1.4,1.6-1.8,2.6c-0.4,1-0.6,2.1-0.6,3.3c0,1.2,0.2,2.3,0.6,3.3c0.4,1,1,1.9,1.8,2.6c0.8,0.7,1.6,1.3,2.7,1.7
		s2.2,0.6,3.4,0.6c1.2,0,2.3-0.2,3.3-0.6c1-0.4,1.9-1,2.7-1.7c0.8-0.7,1.3-1.6,1.8-2.6c0.4-1,0.6-2.1,0.6-3.3c0-1.2-0.2-2.3-0.6-3.3
		C4846.4,2998.8,4845.8,2997.9,4845,2997.2z M4843.5,3005.2c-0.2,0.6-0.6,1.2-1,1.6s-0.9,0.8-1.5,1.1c-0.6,0.2-1.2,0.4-1.9,0.4
		c-0.7,0-1.3-0.1-1.9-0.4c-0.6-0.2-1.1-0.6-1.5-1.1s-0.8-1-1-1.6c-0.2-0.6-0.4-1.3-0.4-2.1c0-0.8,0.1-1.5,0.4-2.1
		c0.2-0.6,0.6-1.2,1-1.6c0.4-0.5,0.9-0.8,1.5-1.1c0.6-0.2,1.2-0.4,1.9-0.4c0.7,0,1.3,0.1,1.9,0.4c0.6,0.2,1.1,0.6,1.5,1.1
		c0.4,0.5,0.8,1,1,1.6c0.2,0.6,0.4,1.3,0.4,2.1C4843.8,3003.9,4843.7,3004.6,4843.5,3005.2z"/>
	<path d="M4860.3,3006c1-0.5,1.8-1.1,2.3-2c0.5-0.9,0.8-1.9,0.8-3.1c0-1.2-0.3-2.2-0.8-3.1c-0.5-0.9-1.3-1.5-2.3-2
		c-1-0.5-2.2-0.7-3.6-0.7h-6.7v16h3.6v-4.5h3.1c0.1,0,0.1,0,0.2,0l3,4.5h3.8L4860.3,3006C4860.3,3006,4860.3,3006,4860.3,3006z
		 M4859,2998.9c0.5,0.5,0.8,1.2,0.8,2.1c0,0.9-0.3,1.6-0.8,2c-0.5,0.5-1.4,0.7-2.5,0.7h-2.9v-5.6h2.9
		C4857.7,2998.1,4858.5,2998.4,4859,2998.9z"/>
	<polygon points="4869.8,3004.4 4876.9,3004.4 4876.9,3001.6 4869.8,3001.6 4869.8,2998.1 4877.9,2998.1 4877.9,2995.1 
		4866.3,2995.1 4866.3,3011.1 4878.2,3011.1 4878.2,3008.1 4869.8,3008.1 	"/>
	<path d="M4890.8,3003c-0.5-0.3-1.1-0.6-1.7-0.8s-1.3-0.4-1.9-0.5s-1.2-0.3-1.7-0.5c-0.5-0.2-1-0.4-1.3-0.6c-0.3-0.3-0.5-0.6-0.5-1
		c0-0.4,0.1-0.7,0.3-0.9c0.2-0.3,0.5-0.5,0.9-0.7c0.4-0.2,1-0.3,1.7-0.3c0.7,0,1.4,0.1,2.1,0.3c0.7,0.2,1.4,0.5,2.2,0.9l1.1-2.8
		c-0.7-0.5-1.5-0.8-2.5-1.1c-0.9-0.2-1.9-0.4-2.9-0.4c-1.4,0-2.7,0.2-3.6,0.7c-1,0.4-1.7,1.1-2.2,1.8c-0.5,0.8-0.7,1.6-0.7,2.5
		c0,0.9,0.2,1.6,0.5,2.1c0.3,0.5,0.8,1,1.3,1.3c0.5,0.3,1.1,0.6,1.7,0.8c0.6,0.2,1.3,0.4,1.9,0.5c0.6,0.1,1.2,0.3,1.7,0.5
		c0.5,0.2,1,0.4,1.3,0.6c0.3,0.3,0.5,0.6,0.5,1c0,0.3-0.1,0.6-0.3,0.9s-0.5,0.5-1,0.6c-0.4,0.1-1,0.2-1.7,0.2
		c-0.9,0-1.8-0.2-2.7-0.5c-0.9-0.3-1.7-0.7-2.3-1.2l-1.2,2.8c0.7,0.5,1.6,1,2.7,1.3s2.3,0.5,3.5,0.5c1.5,0,2.7-0.2,3.6-0.7
		c1-0.5,1.7-1.1,2.2-1.8c0.5-0.7,0.7-1.6,0.7-2.5c0-0.8-0.2-1.5-0.5-2.1C4891.7,3003.8,4891.3,3003.4,4890.8,3003z"/>
	<path d="M4611.4,2866.6c1.4-2,3.6-3.1,6.5-3.1l6.2-0.1v37.2c0,1.8-0.1,3.3-0.3,4.5c-0.2,1.2-0.6,2.1-1.3,2.7
		c-0.7,0.6-1.8,0.9-3.5,1v3.3h18.7v-4.1c-0.9,0.1-1.9,0.1-3,0.1c-1.1,0-2.1,0.1-3.1,0.2c0.1-0.6,0.2-1.5,0.2-2.6c0-1.1,0-2.3,0-3.6
		l0.1-38.9h5.3c2.4,0,4.2,0.4,5.6,1.3c1.3,0.9,2.3,2.4,2.9,4.3c0.6,1.9,0.9,2.9,1,5.8h3.5l-0.4-14.8h-43.4l-0.4,14.8h3.5
		C4609.3,2870.5,4610,2868.7,4611.4,2866.6z"/>
	<path d="M4671.7,2902.4h-2.6c0,1.7-0.3,3.1-0.9,4.1c-0.6,1-1.3,1.7-2.2,2.1c-0.9,0.4-1.9,0.6-3,0.6l-7.2,0c0.1-0.4,0.1-1,0.1-1.7
		c0-0.7,0-1.5,0-2.3v-8.6l1.9-0.1c1,0,1.9,0,2.7,0.1c0.7,0.1,1.3,0.5,1.7,1.1c0.4,0.6,0.6,1.6,0.6,2.9h2.6V2890h-3.1l0.2,4.1l-6.6,0
		v-7.1c0-1.2,0.1-2.2,0.3-2.8c0.2-0.6,0.5-1.1,1-1.3c0.5-0.2,1.1-0.4,2-0.4l2.5,0c1,0,1.9,0.1,2.8,0.4c0.9,0.3,1.7,0.9,2.3,1.8
		c0.6,0.9,0.9,2.2,0.9,4h2.6l-0.3-8.8h-23.3v3.1c0.4,0,1-0.1,1.7-0.1c0.7,0,1.3,0,1.8-0.1c0,0.4-0.1,1-0.1,1.7
		c0,0.7-0.1,1.5-0.1,2.2v18.6c0,1.2-0.1,2.1-0.3,2.8c-0.2,0.7-0.5,1.1-1,1.4c-0.5,0.3-1.2,0.4-2,0.4v2.6h24.8L4671.7,2902.4z"/>
	<path d="M4695.7,2910.3c0.6,0.8,1.2,1.4,1.9,2h7.2v-2.6c-0.8,0-1.5-0.2-2-0.5c-0.6-0.3-1.1-0.8-1.7-1.4c-0.5-0.6-1.1-1.4-1.8-2.4
		l-2.6-3.9c-0.5-0.7-1-1.4-1.5-2c-0.6-0.6-1.1-1-1.7-1.4c2.1-0.5,3.7-1.3,4.9-2.2c1.2-0.9,2.1-2,2.7-3.2c0.6-1.2,0.9-2.5,0.9-3.7
		c0-2.2-0.5-4-1.5-5.4c-1-1.4-2.5-2.4-4.5-3.1c-2-0.7-4.4-1-7.3-1c-2.1,0-4.2,0-6.3,0c-2.1,0-4.2,0-6.3,0.1v3.1c0.4,0,1-0.1,1.7-0.1
		c0.7,0,1.3,0,1.8-0.1c0,0.4-0.1,1-0.1,1.7c0,0.7-0.1,1.5-0.1,2.2v18.6c0,1.2-0.1,2.1-0.3,2.8c-0.2,0.7-0.5,1.1-1,1.4
		c-0.5,0.3-1.2,0.4-2,0.4v2.6h12.9v-3.1c-0.3,0-0.7,0-1.1,0c-0.5,0-1,0-1.4,0c-0.5,0-0.9,0-1.3,0.1c0.1-0.4,0.1-1,0.1-1.7
		c0-0.7,0-1.5,0-2.4v-6.3c0.5,0,0.9,0,1.3,0c0.4,0,0.9,0,1.4,0c0.4,0.4,0.8,0.9,1.2,1.5c0.4,0.6,0.7,1.2,1.2,1.8l3.4,5.4
		C4694.5,2908.7,4695.1,2909.6,4695.7,2910.3z M4687.9,2896.2c-0.4,0-0.9,0-1.3,0c-0.4,0-0.8-0.1-1.2-0.1v-9.4
		c0-1.1,0.1-1.9,0.3-2.6c0.2-0.6,0.5-1.1,1-1.3c0.5-0.2,1.1-0.4,1.9-0.4s1.6,0.1,2.5,0.3c0.8,0.2,1.6,0.5,2.3,1
		c0.7,0.5,1.3,1.1,1.7,2c0.4,0.9,0.6,2,0.6,3.4c0,1.6-0.3,3-0.9,4.1c-0.6,1.1-1.5,1.8-2.6,2.3
		C4691.1,2895.9,4689.7,2896.2,4687.9,2896.2z"/>
	<path d="M4729.2,2912.3h7.2v-2.6c-0.8,0-1.5-0.2-2-0.5c-0.6-0.3-1.1-0.8-1.7-1.4c-0.5-0.6-1.1-1.4-1.8-2.4l-2.6-3.9
		c-0.5-0.7-1-1.4-1.5-2c-0.6-0.6-1.1-1-1.7-1.4c2.1-0.5,3.7-1.3,4.9-2.2c1.2-0.9,2.1-2,2.7-3.2c0.6-1.2,0.9-2.5,0.9-3.7
		c0-2.2-0.5-4-1.5-5.4c-1-1.4-2.5-2.4-4.5-3.1c-2-0.7-4.4-1-7.3-1c-2.1,0-4.2,0-6.3,0c-2.1,0-4.2,0-6.3,0.1v3.1c0.4,0,1-0.1,1.7-0.1
		c0.7,0,1.3,0,1.8-0.1c0,0.4-0.1,1-0.1,1.7c0,0.7-0.1,1.5-0.1,2.2v18.6c0,1.2-0.1,2.1-0.3,2.8c-0.2,0.7-0.5,1.1-1,1.4
		c-0.5,0.3-1.2,0.4-2,0.4v2.6h12.9v-3.1c-0.3,0-0.7,0-1.1,0c-0.5,0-1,0-1.4,0s-0.9,0-1.3,0.1c0.1-0.4,0.1-1,0.1-1.7
		c0-0.7,0-1.5,0-2.4v-6.3c0.5,0,0.9,0,1.3,0c0.4,0,0.9,0,1.4,0c0.4,0.4,0.8,0.9,1.2,1.5c0.4,0.6,0.7,1.2,1.2,1.8l3.4,5.4
		c0.6,1,1.2,1.9,1.8,2.7C4727.9,2911.1,4728.5,2911.8,4729.2,2912.3z M4719.5,2896.2c-0.4,0-0.9,0-1.3,0c-0.4,0-0.8-0.1-1.2-0.1
		v-9.4c0-1.1,0.1-1.9,0.3-2.6c0.2-0.6,0.5-1.1,1-1.3c0.5-0.2,1.1-0.4,1.9-0.4c0.8,0,1.6,0.1,2.5,0.3c0.8,0.2,1.6,0.5,2.3,1
		c0.7,0.5,1.3,1.1,1.7,2c0.4,0.9,0.6,2,0.6,3.4c0,1.6-0.3,3-0.9,4.1c-0.6,1.1-1.5,1.8-2.6,2.3
		C4722.7,2895.9,4721.2,2896.2,4719.5,2896.2z"/>
	<path d="M4762.5,2911.5c2.1-1,3.8-2.4,5.2-4.1c1.4-1.7,2.4-3.5,3.1-5.5c0.7-2,1-3.9,1-5.9c0-2-0.3-3.9-1-5.9c-0.6-2-1.6-3.8-3-5.5
		c-1.3-1.7-3.1-3.1-5.2-4.1c-2.1-1-4.6-1.5-7.5-1.5c-2.8,0-5.3,0.5-7.3,1.5c-2.1,1-3.8,2.4-5.2,4.1c-1.4,1.7-2.4,3.5-3.1,5.5
		c-0.7,2-1,4-1,5.9c0,2,0.3,4,0.9,6.1c0.6,2,1.6,3.9,2.9,5.5s3,3,5.1,4c2.1,1,4.7,1.5,7.7,1.5
		C4757.9,2913,4760.4,2912.5,4762.5,2911.5z M4747.4,2905.1c-0.8-1.5-1.4-3.1-1.8-4.8c-0.4-1.7-0.6-3.3-0.6-4.9
		c0-1.5,0.2-3.1,0.5-4.7c0.3-1.6,0.9-3,1.7-4.4c0.8-1.3,1.8-2.4,3-3.2c1.2-0.8,2.7-1.2,4.4-1.3c1.7,0,3.3,0.3,4.6,1.1
		c1.3,0.8,2.4,1.9,3.3,3.2c0.9,1.4,1.5,3,2,4.8c0.4,1.8,0.7,3.8,0.7,5.8c0,1.5-0.2,3.1-0.5,4.6c-0.4,1.6-0.9,3-1.7,4.3
		c-0.8,1.3-1.7,2.4-3,3.2c-1.2,0.8-2.7,1.2-4.5,1.2c-1.9,0-3.5-0.5-4.9-1.4S4748.2,2906.6,4747.4,2905.1z"/>
	<path d="M4804.3,2912.9l0-26c0-1.2,0.1-2.1,0.3-2.8c0.2-0.7,0.5-1.1,1-1.4c0.5-0.3,1.2-0.4,2-0.4v-2.6h-10.1v3.1
		c0.4,0,1-0.1,1.7-0.1c0.7,0,1.3,0,1.8-0.1c0,0.4-0.1,1-0.1,1.7c0,0.7,0,1.5,0,2.2v17h0c-0.4-0.5-0.8-1.1-1.3-1.8s-1.1-1.4-1.7-2.2
		l-15.6-19.8h-6.8v3.1c0.4,0,1-0.1,1.7-0.1c0.7,0,1.3,0,1.8-0.1c0,0.4-0.1,1-0.1,1.7c0,0.7,0,1.4,0,2.1l0,19.4c0,1-0.1,1.7-0.3,2.3
		c-0.2,0.6-0.6,1-1,1.2s-1.1,0.4-1.9,0.4v2.6h10.1v-3.1c-0.4,0-1,0-1.7,0c-0.7,0-1.3,0.1-1.8,0.1c0.1-0.5,0.1-1.1,0.1-1.9
		c0-0.8,0-1.6,0-2.4l-0.1-16.3h0c0.4,0.5,0.8,1,1.2,1.6c0.4,0.5,0.8,1,1.1,1.5l16.4,21H4804.3z"/>
	<path d="M4836.9,2902.4h-2.6c0,1.7-0.3,3.1-0.9,4.1c-0.6,1-1.3,1.7-2.2,2.1c-0.9,0.4-1.9,0.6-3,0.6l-7.2,0c0.1-0.4,0.1-1,0.1-1.7
		c0-0.7,0-1.5,0-2.3v-8.6l1.9-0.1c1,0,1.9,0,2.7,0.1c0.7,0.1,1.3,0.5,1.7,1.1c0.4,0.6,0.6,1.6,0.6,2.9h2.6V2890h-3.1l0.2,4.1l-6.6,0
		v-7.1c0-1.2,0.1-2.2,0.3-2.8c0.2-0.6,0.5-1.1,1-1.3c0.5-0.2,1.1-0.4,2-0.4l2.5,0c1,0,1.9,0.1,2.8,0.4c0.9,0.3,1.7,0.9,2.2,1.8
		c0.6,0.9,0.9,2.2,0.9,4h2.6l-0.3-8.8h-23.4v3.1c0.4,0,1-0.1,1.7-0.1c0.7,0,1.3,0,1.8-0.1c0,0.4-0.1,1-0.1,1.7
		c0,0.7-0.1,1.5-0.1,2.2v18.6c0,1.2-0.1,2.1-0.3,2.8c-0.2,0.7-0.5,1.1-1,1.4c-0.5,0.3-1.2,0.4-2,0.4v2.6h24.8L4836.9,2902.4z"/>
	<path d="M4844.3,2894.5c1,0.9,2.1,1.6,3.3,2.3c1.3,0.7,2.6,1.3,4,1.9c1.3,0.5,2.5,1.1,3.6,1.6c1.2,0.6,2.1,1.2,2.9,2
		c0.8,0.8,1.1,1.8,1.1,3c0,0.9-0.3,1.8-0.8,2.5c-0.5,0.7-1.2,1.3-2.2,1.7c-0.9,0.4-2,0.6-3.1,0.6c-2.3,0-4.3-0.7-5.9-2
		c-1.6-1.4-2.6-3.3-3-6h-2.7l0.1,10.6h3.2l-0.1-2c1.2,0.8,2.6,1.4,4.1,1.7c1.5,0.4,2.9,0.6,4.2,0.6c2.4,0,4.5-0.4,6.3-1.2
		c1.8-0.8,3.1-1.9,4.1-3.3c1-1.4,1.4-3,1.4-4.8c0-1.5-0.3-2.8-1-3.9c-0.6-1.1-1.5-2.1-2.5-2.9s-2.2-1.6-3.4-2.2
		c-1.2-0.6-2.4-1.2-3.6-1.7c-1.6-0.7-3-1.3-4.2-2s-2.1-1.3-2.7-2.1c-0.6-0.8-0.9-1.7-0.9-2.7c0-1.3,0.5-2.3,1.5-3.2
		c1-0.9,2.3-1.3,3.9-1.3c1.6,0,3,0.3,4.1,1c1.2,0.7,2.1,1.6,2.8,2.8c0.7,1.2,1.2,2.7,1.4,4.3h2.7v-10.7h-3.3l0.2,2
		c-1.1-0.8-2.5-1.4-4-1.7c-1.5-0.4-2.9-0.5-4.1-0.5c-2,0-3.7,0.3-5.1,0.8c-1.4,0.6-2.4,1.3-3.2,2.1c-0.8,0.9-1.4,1.8-1.7,2.8
		c-0.3,1-0.5,2-0.5,2.9c0,1.5,0.3,2.8,0.8,4C4842.6,2892.7,4843.4,2893.7,4844.3,2894.5z"/>
	<path d="M4713.5,2976.6v2.6h12.1v-3.1c-0.4,0-0.8,0-1.3,0c-0.5,0-1,0.1-1.6,0.1c0-0.7-0.2-1.6-0.5-2.5c-0.3-1-0.6-1.7-0.8-2.2
		l-10.3-25.8h-2.6l-9.4,25.3c-0.4,1-0.7,1.9-1.1,2.8c-0.3,0.8-0.8,1.5-1.3,2s-1.2,0.7-2.1,0.7v2.7h9.7v-3.2c-0.4,0-1,0-1.6,0
		c-0.7,0-1.3,0.1-1.9,0.1c0.3-0.5,0.5-1.1,0.8-1.8c0.3-0.7,0.5-1.3,0.7-1.8l1-3.1l11-0.2l1.2,3.2c0.3,0.7,0.5,1.4,0.5,2
		c0,0.7-0.1,1.2-0.4,1.6C4715.1,2976.4,4714.5,2976.6,4713.5,2976.6z M4704.3,2966.4l2.6-7.2c0.5-1.3,0.8-2.4,1.1-3.4
		c0.3-1,0.5-1.8,0.7-2.4h0.1c0.2,0.9,0.5,1.9,0.8,3c0.3,1.1,0.7,2.1,1.1,3.2l2.6,6.8H4704.3z"/>
	<path d="M4739.8,2979.9c2.4,0,4.5-0.4,6.3-1.2c1.8-0.8,3.1-1.9,4.1-3.3c1-1.4,1.4-3,1.4-4.8c0-1.5-0.3-2.8-1-3.9
		c-0.6-1.1-1.5-2.1-2.5-2.9c-1-0.8-2.2-1.6-3.4-2.2c-1.2-0.6-2.4-1.2-3.6-1.7c-1.6-0.7-3-1.3-4.2-2s-2.1-1.3-2.7-2.1
		c-0.6-0.8-0.9-1.7-0.9-2.7c0-1.3,0.5-2.3,1.5-3.2c1-0.9,2.3-1.3,3.9-1.3c1.6,0,3,0.3,4.1,1c1.2,0.7,2.1,1.6,2.8,2.8
		c0.7,1.2,1.2,2.7,1.4,4.3h2.7v-10.7h-3.3l0.2,2c-1.1-0.8-2.5-1.4-4-1.7c-1.5-0.4-2.9-0.5-4.1-0.5c-2,0-3.7,0.3-5.1,0.8
		c-1.4,0.6-2.4,1.3-3.2,2.1c-0.8,0.9-1.4,1.8-1.7,2.8c-0.3,1-0.5,2-0.5,2.9c0,1.5,0.3,2.8,0.8,4c0.6,1.1,1.3,2.1,2.3,3
		c1,0.9,2.1,1.6,3.3,2.3c1.3,0.7,2.6,1.3,4,1.9c1.3,0.5,2.5,1.1,3.6,1.6c1.2,0.6,2.1,1.2,2.9,2c0.8,0.8,1.1,1.8,1.1,3
		c0,0.9-0.3,1.8-0.8,2.5c-0.5,0.7-1.2,1.3-2.2,1.7c-0.9,0.4-2,0.6-3.1,0.6c-2.3,0-4.3-0.7-5.9-2c-1.6-1.4-2.6-3.3-3-6h-2.7l0.1,10.6
		h3.2l-0.1-2c1.2,0.8,2.6,1.4,4.1,1.7C4737,2979.7,4738.4,2979.9,4739.8,2979.9z"/>
	<path d="M4762.6,2949.2h3.1l0,22.7c0,1.2-0.1,2.1-0.3,2.7c-0.2,0.7-0.5,1.1-1,1.4c-0.5,0.3-1.2,0.4-2,0.5v2.6h12.9v-3.1
		c-0.4,0-1,0-1.8,0c-0.8,0-1.5,0.1-2.1,0.1c0.1-0.4,0.1-1,0.1-1.7c0-0.7,0-1.5,0-2.3v-23h2.9c1.3,0,2.4,0.2,3.3,0.8
		c0.9,0.6,1.5,1.4,2,2.5c0.4,1.1,0.7,2.6,0.7,4.3h2.7l-0.3-10.3h-28.4l-0.2,10.3h2.7c0-2.6,0.5-4.5,1.5-5.7
		C4759.3,2949.9,4760.7,2949.3,4762.6,2949.2z"/>
	<path d="M4795.7,2972.2v-18.5c0-1.2,0.1-2.1,0.3-2.8c0.2-0.7,0.5-1.1,1-1.4c0.5-0.3,1.2-0.4,2-0.4v-2.6h-12.6v3.1
		c0.4,0,1-0.1,1.7-0.1c0.7,0,1.3,0,1.8-0.1c0,0.4-0.1,1-0.1,1.7c0,0.7-0.1,1.5-0.1,2.2v18.6c0,1.2-0.1,2.1-0.3,2.8
		c-0.2,0.7-0.5,1.1-1,1.4c-0.5,0.3-1.2,0.4-2,0.4v2.6h12.6v-3.1c-0.4,0-1,0-1.7,0c-0.7,0-1.3,0.1-1.8,0.1c0.1-0.4,0.1-1,0.1-1.7
		C4795.7,2973.8,4795.7,2973,4795.7,2972.2z"/>
	<path d="M4828.9,2968.5h-2.7c0,2.6-0.5,4.5-1.6,5.8c-1,1.3-2.5,1.9-4.4,1.9l-7.2,0c0.1-0.4,0.1-1,0.1-1.7c0-0.7,0-1.5,0-2.3v-18.5
		c0-1.2,0.1-2.1,0.3-2.8c0.2-0.7,0.5-1.1,1-1.4c0.5-0.3,1.2-0.4,2-0.4v-2.6H4804v3.1c0.4,0,1-0.1,1.7-0.1c0.7,0,1.3,0,1.8-0.1
		c0,0.4-0.1,1-0.1,1.7c0,0.7-0.1,1.5-0.1,2.2v18.6c0,1.2-0.1,2.1-0.3,2.8c-0.2,0.7-0.5,1.1-1,1.4c-0.5,0.3-1.2,0.4-2,0.4v2.6h24.6
		L4828.9,2968.5z"/>
	<path d="M4835.5,2953.4v18.6c0,1.2-0.1,2.1-0.3,2.8c-0.2,0.7-0.5,1.1-1,1.4c-0.5,0.3-1.2,0.4-2,0.4v2.6h24.6l0.3-10.7h-2.7
		c0,2.6-0.5,4.5-1.6,5.8c-1,1.3-2.5,1.9-4.4,1.9l-7.2,0c0.1-0.4,0.1-1,0.1-1.7c0-0.7,0-1.5,0-2.3v-18.5c0-1.2,0.1-2.1,0.3-2.8
		c0.2-0.7,0.5-1.1,1-1.4c0.5-0.3,1.2-0.4,2-0.4v-2.6h-12.6v3.1c0.4,0,1-0.1,1.7-0.1c0.7,0,1.3,0,1.8-0.1c0,0.4-0.1,1-0.1,1.7
		C4835.5,2951.9,4835.5,2952.6,4835.5,2953.4z"/>
	<path d="M4876,2979.9c2.8,0,5.3-0.5,7.3-1.6c2.1-1,3.8-2.4,5.2-4.1c1.4-1.7,2.4-3.5,3.1-5.5c0.7-2,1-3.9,1-5.9c0-2-0.3-3.9-1-5.9
		c-0.6-2-1.6-3.8-3-5.5c-1.3-1.7-3.1-3.1-5.2-4.1c-2.1-1-4.6-1.5-7.5-1.5c-2.8,0-5.3,0.5-7.3,1.5c-2.1,1-3.8,2.4-5.2,4.1
		c-1.4,1.7-2.4,3.5-3.1,5.5s-1,4-1,5.9c0,2,0.3,4,0.9,6.1c0.6,2,1.6,3.9,2.9,5.5c1.3,1.7,3,3,5.1,4
		C4870.4,2979.4,4873,2979.9,4876,2979.9z M4866.5,2967.1c-0.4-1.7-0.6-3.3-0.6-4.9c0-1.5,0.2-3.1,0.5-4.7c0.3-1.6,0.9-3,1.7-4.4
		c0.8-1.3,1.8-2.4,3-3.2c1.2-0.8,2.7-1.2,4.4-1.3c1.7,0,3.3,0.4,4.6,1.1c1.3,0.8,2.4,1.9,3.3,3.2c0.9,1.4,1.5,3,2,4.8
		c0.4,1.8,0.7,3.8,0.7,5.8c0,1.5-0.2,3.1-0.5,4.6c-0.4,1.6-0.9,3-1.7,4.3c-0.8,1.3-1.7,2.4-3,3.2c-1.2,0.8-2.7,1.2-4.5,1.2
		c-1.9,0-3.5-0.5-4.9-1.4c-1.3-0.9-2.4-2.2-3.2-3.7C4867.4,2970.4,4866.8,2968.8,4866.5,2967.1z"/>
	<path d="M4619.7,2978.6h7.2v-3.2c-0.9,0-2.1-0.5-3.7-1.5c-1.6-1-3.4-2.4-5.5-4.3c-0.5-0.4-1-0.9-1.5-1.3c-0.5-0.4-0.9-0.8-1.4-1.2
		c0.5-1.5,0.9-2.9,1.2-4.3c0.2-1.4,0.3-2.6,0.3-3.7c0-1.2-0.2-2.3-0.5-3.2c-0.3-0.9-0.7-1.7-1.3-2.4l5.4,0.3v-3.9h-12.6v3.2
		c1.3,0.1,2.3,0.4,3,1c0.7,0.6,1.2,1.4,1.5,2.4c0.3,1,0.5,2.1,0.5,3.3c0,0.6,0,1.3-0.1,2.1c-0.1,0.7-0.2,1.5-0.4,2.3
		c-1.5-1.4-3.1-3-4.8-4.6c-1.7-1.6-3.2-3.2-4.7-4.7c-1.4-1.5-2.7-2.8-3.6-3.8c2.6-1.4,4.8-2.8,6.5-4.3c1.7-1.5,3-3.1,3.9-4.8
		c0.9-1.7,1.3-3.5,1.3-5.4c0-2-0.5-3.8-1.5-5.4c-1-1.6-2.5-2.9-4.3-3.9c-1.9-1-4.1-1.4-6.6-1.4c-4,0-7.3,1.1-9.9,3.2
		c-2.5,2.1-3.8,5-3.9,8.6c0,1.4,0.2,2.8,0.6,4.3c0.4,1.4,1,2.9,1.8,4.4c0.8,1.5,2,3.1,3.4,4.9c-3.4,1.4-6.2,3.4-8.3,5.8
		c-2.1,2.5-3.2,5.3-3.2,8.5c0,2.6,0.5,4.7,1.5,6.5c1,1.8,2.3,3.3,4,4.4c1.7,1.2,3.5,2,5.6,2.5c2.1,0.5,4.2,0.8,6.3,0.8
		c3.6,0,6.7-0.6,9.2-1.9c2.6-1.3,4.7-2.8,6.4-4.7c2.3,1.9,4.1,3.3,5.6,4.2C4618.3,2978.1,4619.3,2978.6,4619.7,2978.6z
		 M4592.9,2931.3c1.2-1.4,2.7-2.1,4.5-2.1c2,0,3.6,0.7,4.7,2.1c1.1,1.4,1.7,3.2,1.7,5.3c0,2-0.6,4-1.8,6.2c-1.2,2.2-3,4.1-5.4,5.8
		c-1.6-1.8-2.9-3.7-3.9-5.7c-1-2-1.5-4-1.5-5.8C4591.1,2934.6,4591.7,2932.6,4592.9,2931.3z M4603.8,2974.2
		c-1.9,0.9-4.1,1.4-6.8,1.3c-1.9,0-3.6-0.5-5.2-1.3c-1.6-0.8-2.9-2.1-3.8-3.7c-1-1.6-1.4-3.7-1.4-6.3c0-0.9,0.2-2,0.5-3.3
		c0.3-1.2,0.9-2.5,1.6-3.8c0.8-1.2,1.8-2.3,3.1-3.2c1.7,1.9,3.7,4,6,6.3c2.3,2.3,5,4.9,8.1,7.9c0.5,0.4,0.9,0.8,1.4,1.2
		c0.4,0.4,0.8,0.8,1.3,1.2C4607.2,2972.1,4605.6,2973.3,4603.8,2974.2z"/>
	<path d="M4673.1,2925.9c-4.3,0-8,0.8-11.2,2.4c-3.2,1.6-5.9,3.7-8,6.4c-2.1,2.7-3.7,5.7-4.8,8.9c-1.1,3.3-1.6,6.6-1.6,10.1
		c0,3.7,0.6,7.1,1.8,10.3c1.2,3.2,2.9,5.9,5.1,8.3c2.2,2.4,4.9,4.2,8,5.6c3.1,1.3,6.5,2,10.1,2c2,0,4.3-0.3,6.7-0.8
		c2.5-0.6,5-1.7,7.5-3.3c2.5-1.6,4.9-3.9,7.1-7l-2.4-2.1c-2,2.7-4.5,4.9-7.6,6.4c-3.1,1.5-6.2,2.2-9.3,2.2c-3.5,0-6.7-1-9.5-2.9
		c-2.8-1.9-4.9-4.6-6.5-8.1c-1.6-3.5-2.4-7.4-2.4-11.9c0-3.3,0.4-6.3,1.3-9.1c0.9-2.8,2.1-5.2,3.6-7.2c1.6-2,3.4-3.6,5.6-4.7
		c2.2-1.1,4.5-1.7,7.1-1.7c4,0,7.3,1.3,9.8,3.6c2.5,2.4,4,5.8,4.6,10.2h3.4v-17.1h-4.6l0.4,3.7c-2.2-1.4-4.5-2.5-6.9-3.2
		C4678.1,2926.2,4675.6,2925.9,4673.1,2925.9z"/>
	<path d="M4661.1,2700.5h148.6c1.1,0,2-0.9,2-2v-12.9c0-1.1-0.9-2-2-2h-148.6c-1.1,0-2,0.9-2,2v12.9
		C4659.1,2699.6,4660,2700.5,4661.1,2700.5z"/>
	<path d="M4661.1,2836.2h12.9c1.1,0,2-0.9,2-2v-80.8c0-1.1-0.9-2-2-2h-12.9c-1.1,0-2,0.9-2,2v80.8
		C4659.1,2835.3,4660,2836.2,4661.1,2836.2z"/>
	<path d="M4695,2836.2h12.9c1.1,0,2-0.9,2-2v-114.7c0-0.6-0.2-1.1-0.6-1.4c-0.4-0.4-0.9-0.6-1.4-0.6h-46.8c-1.1,0-2,0.9-2,2v12.9
		c0,1.1,0.9,2,2,2h29.9c0.6,0,1.1,0.2,1.4,0.6c0.4,0.4,0.6,0.9,0.6,1.4v97.7C4693,2835.3,4693.9,2836.2,4695,2836.2z"/>
	<path d="M4811.8,2719.5c0-1.1-0.9-2-2-2h-80.8c-0.6,0-1.1,0.2-1.4,0.6c-0.4,0.4-0.6,0.9-0.6,1.4v114.7c0,0.6,0.2,1.1,0.6,1.4
		c0.4,0.4,0.9,0.6,1.4,0.6h80.8c1.1,0,2-0.9,2-2v-12.9c0-1.1-0.9-2-2-2h-63.8c-0.6,0-1.1-0.2-1.4-0.6c-0.4-0.4-0.6-0.9-0.6-1.4
		v-80.8c0-0.6,0.2-1.1,0.6-1.4c0.4-0.4,0.9-0.6,1.4-0.6h63.8c1.1,0,2-0.9,2-2V2719.5z"/>
	<path d="M4778.4,2769c0.4-0.4,0.9-0.6,1.4-0.6h29.9c1.1,0,2-0.9,2-2v-12.9c0-1.1-0.9-2-2-2h-31.9h-14.9c-0.6,0-1.1,0.2-1.4,0.6
		c-0.4,0.4-0.6,0.9-0.6,1.4v46.8c0,0.6,0.2,1.1,0.6,1.4c0.4,0.4,0.9,0.6,1.4,0.6h46.9c1.1,0,2-0.9,2-2v-12.9c0-1.1-0.9-2-2-2h-29.9
		c-0.6,0-1.1-0.2-1.4-0.6c-0.4-0.4-0.6-0.9-0.6-1.4v-12.9C4777.8,2769.8,4778,2769.3,4778.4,2769z"/>
</g>
<g>
	<g>
		<path class="st0" d="M4578.3,1063.6l6.9-16h3.5l6.9,16h-3.7l-5.6-14.1h1.4l-5.6,14.1H4578.3z M4581.7,1060.2l0.9-2.8h7.9l1,2.8
			H4581.7z"/>
		<path class="st0" d="M4597.1,1063.6v-16h7.5c1.9,0,3.4,0.4,4.4,1.1c1,0.8,1.5,1.8,1.5,3c0,0.8-0.2,1.6-0.6,2.2
			c-0.4,0.6-0.9,1.1-1.6,1.4c-0.7,0.3-1.5,0.5-2.4,0.5l0.4-0.9c1,0,1.8,0.2,2.6,0.5c0.7,0.3,1.3,0.8,1.7,1.5
			c0.4,0.6,0.6,1.4,0.6,2.4c0,1.4-0.5,2.4-1.6,3.2c-1,0.8-2.6,1.2-4.6,1.2H4597.1z M4600.6,1060.9h4.1c0.9,0,1.6-0.2,2.1-0.5
			c0.5-0.3,0.7-0.8,0.7-1.5c0-0.7-0.2-1.2-0.7-1.5c-0.5-0.3-1.2-0.5-2.1-0.5h-4.4v-2.7h3.8c0.9,0,1.5-0.2,2-0.5
			c0.5-0.3,0.7-0.8,0.7-1.4c0-0.6-0.2-1.1-0.7-1.4c-0.5-0.3-1.1-0.5-2-0.5h-3.5V1060.9z"/>
		<path class="st0" d="M4621.4,1063.9c-1.2,0-2.3-0.2-3.4-0.6c-1-0.4-1.9-1-2.7-1.7c-0.8-0.7-1.3-1.6-1.8-2.6
			c-0.4-1-0.6-2.1-0.6-3.3c0-1.2,0.2-2.3,0.6-3.3c0.4-1,1-1.9,1.8-2.6c0.8-0.7,1.7-1.3,2.7-1.7c1-0.4,2.1-0.6,3.3-0.6
			c1.2,0,2.3,0.2,3.3,0.6c1,0.4,1.9,1,2.7,1.7c0.8,0.7,1.3,1.6,1.8,2.6c0.4,1,0.6,2.1,0.6,3.3c0,1.2-0.2,2.3-0.6,3.3
			c-0.4,1-1,1.9-1.8,2.6c-0.8,0.7-1.6,1.3-2.7,1.7C4623.7,1063.7,4622.6,1063.9,4621.4,1063.9z M4621.3,1060.8
			c0.7,0,1.3-0.1,1.9-0.4c0.6-0.2,1.1-0.6,1.5-1.1c0.4-0.5,0.8-1,1-1.6c0.2-0.6,0.4-1.3,0.4-2.1c0-0.8-0.1-1.5-0.4-2.1
			c-0.2-0.6-0.6-1.2-1-1.6c-0.4-0.5-0.9-0.8-1.5-1.1c-0.6-0.2-1.2-0.4-1.9-0.4s-1.3,0.1-1.9,0.4c-0.6,0.2-1.1,0.6-1.5,1.1
			c-0.4,0.5-0.8,1-1,1.6c-0.2,0.6-0.4,1.3-0.4,2.1c0,0.7,0.1,1.4,0.4,2.1c0.2,0.6,0.6,1.2,1,1.6c0.4,0.5,0.9,0.8,1.5,1.1
			C4620,1060.6,4620.7,1060.8,4621.3,1060.8z"/>
		<path class="st0" d="M4639.9,1063.9c-1.2,0-2.3-0.2-3.3-0.6c-1-0.4-1.9-1-2.7-1.7c-0.8-0.7-1.3-1.6-1.8-2.6
			c-0.4-1-0.6-2.1-0.6-3.3c0-1.2,0.2-2.3,0.6-3.3c0.4-1,1-1.9,1.8-2.6c0.8-0.7,1.7-1.3,2.7-1.7c1-0.4,2.2-0.6,3.4-0.6
			c1.4,0,2.6,0.2,3.7,0.7c1.1,0.5,2,1.2,2.8,2.1l-2.3,2.2c-0.6-0.6-1.2-1.1-1.8-1.4c-0.7-0.3-1.4-0.4-2.2-0.4c-0.7,0-1.4,0.1-2,0.4
			c-0.6,0.2-1.1,0.6-1.6,1.1c-0.4,0.5-0.8,1-1,1.6c-0.2,0.6-0.4,1.3-0.4,2.1c0,0.7,0.1,1.4,0.4,2.1c0.2,0.6,0.6,1.2,1,1.6
			s1,0.8,1.6,1.1c0.6,0.2,1.3,0.4,2,0.4c0.7,0,1.4-0.1,2.1-0.4s1.3-0.6,1.9-1.2l2,2.7c-0.8,0.7-1.8,1.2-2.9,1.5
			S4641,1063.9,4639.9,1063.9z M4642.8,1061.4v-6h3.2v6.5L4642.8,1061.4z"/>
		<path class="st0" d="M4647.3,1063.6l6.9-16h3.5l6.9,16h-3.7l-5.6-14.1h1.4l-5.6,14.1H4647.3z M4650.8,1060.2l0.9-2.8h7.9l1,2.8
			H4650.8z"/>
		<path class="st0" d="M4666.2,1063.6v-16h7c1.7,0,3.1,0.3,4.4,1c1.3,0.7,2.3,1.6,3,2.8c0.7,1.2,1.1,2.6,1.1,4.2
			c0,1.6-0.4,3-1.1,4.2c-0.7,1.2-1.7,2.1-3,2.8c-1.3,0.7-2.7,1-4.4,1H4666.2z M4669.7,1060.6h3.2c1,0,1.9-0.2,2.7-0.6s1.3-1,1.8-1.7
			c0.4-0.7,0.6-1.6,0.6-2.6c0-1-0.2-1.9-0.6-2.6c-0.4-0.7-1-1.3-1.8-1.7s-1.6-0.6-2.7-0.6h-3.2V1060.6z"/>
		<path class="st0" d="M4691.8,1063.9c-1.2,0-2.3-0.2-3.4-0.6c-1-0.4-1.9-1-2.7-1.7c-0.8-0.7-1.3-1.6-1.8-2.6
			c-0.4-1-0.6-2.1-0.6-3.3c0-1.2,0.2-2.3,0.6-3.3s1-1.9,1.8-2.6c0.8-0.7,1.7-1.3,2.7-1.7c1-0.4,2.1-0.6,3.3-0.6
			c1.2,0,2.3,0.2,3.3,0.6c1,0.4,1.9,1,2.7,1.7c0.8,0.7,1.3,1.6,1.8,2.6s0.6,2.1,0.6,3.3c0,1.2-0.2,2.3-0.6,3.3c-0.4,1-1,1.9-1.8,2.6
			c-0.8,0.7-1.6,1.3-2.7,1.7C4694.1,1063.7,4693,1063.9,4691.8,1063.9z M4691.8,1060.8c0.7,0,1.3-0.1,1.9-0.4
			c0.6-0.2,1.1-0.6,1.5-1.1c0.4-0.5,0.8-1,1-1.6c0.2-0.6,0.4-1.3,0.4-2.1c0-0.8-0.1-1.5-0.4-2.1c-0.2-0.6-0.6-1.2-1-1.6
			c-0.4-0.5-0.9-0.8-1.5-1.1c-0.6-0.2-1.2-0.4-1.9-0.4c-0.7,0-1.3,0.1-1.9,0.4c-0.6,0.2-1.1,0.6-1.5,1.1c-0.4,0.5-0.8,1-1,1.6
			c-0.2,0.6-0.4,1.3-0.4,2.1c0,0.7,0.1,1.4,0.4,2.1c0.2,0.6,0.6,1.2,1,1.6c0.4,0.5,0.9,0.8,1.5,1.1
			C4690.4,1060.6,4691.1,1060.8,4691.8,1060.8z"/>
		<path class="st0" d="M4707.9,1063.9c-1.2,0-2.4-0.2-3.5-0.5c-1.1-0.3-2-0.8-2.7-1.3l1.2-2.8c0.7,0.5,1.4,0.9,2.3,1.2
			s1.8,0.5,2.7,0.5c0.7,0,1.3-0.1,1.7-0.2c0.4-0.1,0.7-0.3,1-0.6s0.3-0.6,0.3-0.9c0-0.4-0.2-0.8-0.5-1c-0.3-0.3-0.7-0.5-1.3-0.6
			c-0.5-0.2-1.1-0.3-1.7-0.5c-0.6-0.1-1.3-0.3-1.9-0.5s-1.2-0.5-1.7-0.8c-0.5-0.3-1-0.8-1.3-1.3c-0.3-0.5-0.5-1.2-0.5-2.1
			c0-0.9,0.2-1.7,0.7-2.5c0.5-0.8,1.2-1.4,2.2-1.8c1-0.4,2.2-0.7,3.6-0.7c1,0,1.9,0.1,2.9,0.4c0.9,0.2,1.8,0.6,2.5,1.1l-1.1,2.8
			c-0.7-0.4-1.4-0.7-2.2-0.9c-0.7-0.2-1.4-0.3-2.1-0.3s-1.3,0.1-1.7,0.3c-0.4,0.2-0.8,0.4-0.9,0.7c-0.2,0.3-0.3,0.6-0.3,0.9
			c0,0.4,0.2,0.7,0.5,1c0.3,0.3,0.7,0.5,1.3,0.6c0.5,0.2,1.1,0.3,1.7,0.5c0.6,0.2,1.3,0.3,1.9,0.5s1.2,0.5,1.7,0.8
			c0.5,0.3,1,0.8,1.3,1.3c0.3,0.5,0.5,1.2,0.5,2.1c0,0.9-0.2,1.7-0.7,2.5c-0.5,0.7-1.2,1.3-2.2,1.8
			C4710.6,1063.7,4709.4,1063.9,4707.9,1063.9z"/>
		<path class="st0" d="M4730.4,1063.9c-1.2,0-2.3-0.2-3.3-0.6c-1-0.4-1.9-1-2.6-1.7c-0.7-0.7-1.3-1.6-1.7-2.6
			c-0.4-1-0.6-2.1-0.6-3.3c0-1.2,0.2-2.3,0.6-3.3c0.4-1,1-1.9,1.8-2.6c0.8-0.7,1.6-1.3,2.6-1.7c1-0.4,2.1-0.6,3.3-0.6
			c1.3,0,2.5,0.2,3.6,0.7s2,1.2,2.7,2.1l-2.3,2.2c-0.5-0.6-1.1-1.1-1.8-1.4c-0.6-0.3-1.3-0.5-2.1-0.5c-0.7,0-1.4,0.1-2,0.4
			c-0.6,0.2-1.1,0.6-1.6,1.1c-0.4,0.5-0.8,1-1,1.6c-0.2,0.6-0.4,1.3-0.4,2.1c0,0.8,0.1,1.5,0.4,2.1c0.2,0.6,0.6,1.2,1,1.6
			c0.4,0.5,1,0.8,1.6,1.1c0.6,0.2,1.3,0.4,2,0.4c0.8,0,1.5-0.2,2.1-0.5c0.6-0.3,1.2-0.8,1.8-1.4l2.3,2.2c-0.7,0.9-1.6,1.6-2.7,2.1
			C4733,1063.7,4731.8,1063.9,4730.4,1063.9z"/>
		<path class="st0" d="M4746.3,1063.9c-1.2,0-2.3-0.2-3.4-0.6c-1-0.4-1.9-1-2.7-1.7c-0.8-0.7-1.3-1.6-1.8-2.6
			c-0.4-1-0.6-2.1-0.6-3.3c0-1.2,0.2-2.3,0.6-3.3c0.4-1,1-1.9,1.8-2.6c0.8-0.7,1.7-1.3,2.7-1.7c1-0.4,2.1-0.6,3.3-0.6
			c1.2,0,2.3,0.2,3.3,0.6c1,0.4,1.9,1,2.7,1.7c0.8,0.7,1.3,1.6,1.8,2.6c0.4,1,0.6,2.1,0.6,3.3c0,1.2-0.2,2.3-0.6,3.3
			c-0.4,1-1,1.9-1.8,2.6c-0.8,0.7-1.6,1.3-2.7,1.7C4748.6,1063.7,4747.5,1063.9,4746.3,1063.9z M4746.3,1060.8
			c0.7,0,1.3-0.1,1.9-0.4c0.6-0.2,1.1-0.6,1.5-1.1c0.4-0.5,0.8-1,1-1.6c0.2-0.6,0.4-1.3,0.4-2.1c0-0.8-0.1-1.5-0.4-2.1
			c-0.2-0.6-0.6-1.2-1-1.6c-0.4-0.5-0.9-0.8-1.5-1.1c-0.6-0.2-1.2-0.4-1.9-0.4c-0.7,0-1.3,0.1-1.9,0.4c-0.6,0.2-1.1,0.6-1.5,1.1
			c-0.4,0.5-0.8,1-1,1.6c-0.2,0.6-0.4,1.3-0.4,2.1c0,0.7,0.1,1.4,0.4,2.1c0.2,0.6,0.6,1.2,1,1.6c0.4,0.5,0.9,0.8,1.5,1.1
			C4744.9,1060.6,4745.6,1060.8,4746.3,1060.8z"/>
		<path class="st0" d="M4757.4,1063.6v-16h2.9l9.1,11.5h-1.4v-11.5h3.5v16h-2.9l-9.1-11.5h1.4v11.5H4757.4z"/>
		<path class="st0" d="M4780.1,1063.9c-1.2,0-2.4-0.2-3.5-0.5c-1.1-0.3-2-0.8-2.7-1.3l1.2-2.8c0.7,0.5,1.4,0.9,2.3,1.2
			s1.8,0.5,2.7,0.5c0.7,0,1.3-0.1,1.7-0.2c0.4-0.1,0.8-0.3,1-0.6s0.3-0.6,0.3-0.9c0-0.4-0.2-0.8-0.5-1c-0.3-0.3-0.7-0.5-1.3-0.6
			c-0.5-0.2-1.1-0.3-1.7-0.5c-0.6-0.1-1.3-0.3-1.9-0.5s-1.2-0.5-1.7-0.8c-0.5-0.3-1-0.8-1.3-1.3c-0.3-0.5-0.5-1.2-0.5-2.1
			c0-0.9,0.2-1.7,0.7-2.5c0.5-0.8,1.2-1.4,2.2-1.8c1-0.4,2.2-0.7,3.6-0.7c1,0,1.9,0.1,2.9,0.4c0.9,0.2,1.8,0.6,2.5,1.1l-1.1,2.8
			c-0.7-0.4-1.4-0.7-2.2-0.9c-0.7-0.2-1.4-0.3-2.1-0.3c-0.7,0-1.3,0.1-1.7,0.3c-0.4,0.2-0.8,0.4-0.9,0.7s-0.3,0.6-0.3,0.9
			c0,0.4,0.2,0.7,0.5,1c0.3,0.3,0.7,0.5,1.3,0.6c0.5,0.2,1.1,0.3,1.7,0.5s1.3,0.3,1.9,0.5c0.6,0.2,1.2,0.5,1.7,0.8
			c0.5,0.3,1,0.8,1.3,1.3c0.3,0.5,0.5,1.2,0.5,2.1c0,0.9-0.2,1.7-0.7,2.5c-0.5,0.7-1.2,1.3-2.2,1.8
			C4782.8,1063.7,4781.6,1063.9,4780.1,1063.9z"/>
		<path class="st0" d="M4795.9,1063.9c-2.2,0-3.9-0.6-5.1-1.9c-1.2-1.3-1.8-3.1-1.8-5.4v-9h3.6v8.8c0,1.5,0.3,2.6,0.9,3.3
			c0.6,0.7,1.4,1,2.5,1c1.1,0,1.9-0.3,2.5-1c0.6-0.7,0.9-1.8,0.9-3.3v-8.8h3.5v9c0,2.3-0.6,4.2-1.8,5.4
			C4799.8,1063.3,4798.1,1063.9,4795.9,1063.9z"/>
		<path class="st0" d="M4806.4,1063.6v-16h3.6v13h7.7v3H4806.4z"/>
		<path class="st0" d="M4821.4,1063.6v-13h-4.9v-3h13.4v3h-4.9v13H4821.4z"/>
		<path class="st0" d="M4839,1063.9c-1.2,0-2.3-0.2-3.4-0.6c-1-0.4-1.9-1-2.7-1.7c-0.8-0.7-1.3-1.6-1.8-2.6c-0.4-1-0.6-2.1-0.6-3.3
			c0-1.2,0.2-2.3,0.6-3.3c0.4-1,1-1.9,1.8-2.6c0.8-0.7,1.7-1.3,2.7-1.7c1-0.4,2.1-0.6,3.3-0.6c1.2,0,2.3,0.2,3.3,0.6
			c1,0.4,1.9,1,2.7,1.7c0.8,0.7,1.3,1.6,1.8,2.6c0.4,1,0.6,2.1,0.6,3.3c0,1.2-0.2,2.3-0.6,3.3c-0.4,1-1,1.9-1.8,2.6
			c-0.8,0.7-1.6,1.3-2.7,1.7C4841.4,1063.7,4840.2,1063.9,4839,1063.9z M4839,1060.8c0.7,0,1.3-0.1,1.9-0.4c0.6-0.2,1.1-0.6,1.5-1.1
			c0.4-0.5,0.8-1,1-1.6c0.2-0.6,0.4-1.3,0.4-2.1c0-0.8-0.1-1.5-0.4-2.1c-0.2-0.6-0.6-1.2-1-1.6c-0.4-0.5-0.9-0.8-1.5-1.1
			c-0.6-0.2-1.2-0.4-1.9-0.4s-1.3,0.1-1.9,0.4c-0.6,0.2-1.1,0.6-1.5,1.1c-0.4,0.5-0.8,1-1,1.6c-0.2,0.6-0.4,1.3-0.4,2.1
			c0,0.7,0.1,1.4,0.4,2.1c0.2,0.6,0.6,1.2,1,1.6c0.4,0.5,0.9,0.8,1.5,1.1C4837.7,1060.6,4838.3,1060.8,4839,1060.8z"/>
		<path class="st0" d="M4850.1,1063.6v-16h6.7c1.4,0,2.6,0.2,3.6,0.7c1,0.5,1.8,1.1,2.3,2c0.5,0.9,0.8,1.9,0.8,3.1
			c0,1.2-0.3,2.2-0.8,3.1c-0.5,0.9-1.3,1.5-2.3,2c-1,0.5-2.2,0.7-3.6,0.7h-4.7l1.6-1.6v6.1H4850.1z M4853.7,1058l-1.6-1.7h4.5
			c1.1,0,1.9-0.2,2.5-0.7c0.5-0.5,0.8-1.2,0.8-2c0-0.9-0.3-1.6-0.8-2.1c-0.5-0.5-1.4-0.7-2.5-0.7h-4.5l1.6-1.8V1058z M4859.9,1063.6
			l-3.8-5.8h3.8l3.9,5.8H4859.9z"/>
		<path class="st0" d="M4869.8,1060.7h8.4v3h-11.9v-16h11.6v3h-8.1V1060.7z M4869.5,1054.1h7.4v2.9h-7.4V1054.1z"/>
		<path class="st0" d="M4886,1063.9c-1.2,0-2.4-0.2-3.5-0.5s-2-0.8-2.7-1.3l1.2-2.8c0.7,0.5,1.4,0.9,2.3,1.2
			c0.9,0.3,1.8,0.5,2.7,0.5c0.7,0,1.3-0.1,1.7-0.2c0.4-0.1,0.8-0.3,1-0.6s0.3-0.6,0.3-0.9c0-0.4-0.2-0.8-0.5-1
			c-0.3-0.3-0.7-0.5-1.3-0.6c-0.5-0.2-1.1-0.3-1.7-0.5c-0.6-0.1-1.3-0.3-1.9-0.5s-1.2-0.5-1.7-0.8c-0.5-0.3-1-0.8-1.3-1.3
			c-0.3-0.5-0.5-1.2-0.5-2.1c0-0.9,0.2-1.7,0.7-2.5c0.5-0.8,1.2-1.4,2.2-1.8c1-0.4,2.2-0.7,3.6-0.7c1,0,1.9,0.1,2.9,0.4
			c0.9,0.2,1.8,0.6,2.5,1.1l-1.1,2.8c-0.7-0.4-1.4-0.7-2.2-0.9c-0.7-0.2-1.4-0.3-2.1-0.3c-0.7,0-1.3,0.1-1.7,0.3
			c-0.4,0.2-0.8,0.4-0.9,0.7c-0.2,0.3-0.3,0.6-0.3,0.9c0,0.4,0.2,0.7,0.5,1c0.3,0.3,0.7,0.5,1.3,0.6c0.5,0.2,1.1,0.3,1.7,0.5
			s1.3,0.3,1.9,0.5s1.2,0.5,1.7,0.8c0.5,0.3,1,0.8,1.3,1.3c0.3,0.5,0.5,1.2,0.5,2.1c0,0.9-0.2,1.7-0.7,2.5c-0.5,0.7-1.2,1.3-2.2,1.8
			C4888.7,1063.7,4887.5,1063.9,4886,1063.9z"/>
	</g>
	<g>
		<g>
			<g>
				<path d="M4646.7,927.3c0-2.8-0.4-3.9-1-5.8c-0.6-1.9-1.6-3.3-2.9-4.3c-1.3-0.9-3.2-1.4-5.6-1.3h-5.3l-0.1,38.9
					c0,1.3,0,2.6,0,3.6c0,1.1-0.1,1.9-0.2,2.6c0.9-0.1,1.9-0.2,3.1-0.2c1.1,0,2.1-0.1,3-0.1v4.1H4619v-3.3c1.6-0.1,2.8-0.4,3.5-1
					c0.7-0.6,1.1-1.5,1.3-2.7c0.2-1.2,0.3-2.7,0.3-4.5V916l-6.2,0.1c-3,0-5.2,1-6.5,3.1c-1.4,2-2.1,3.9-2.1,8.2h-3.5l0.4-14.8h43.4
					l0.4,14.8H4646.7z"/>
			</g>
		</g>
		<g>
			<path d="M4662.8,953.3c0-1.3-0.2-2.3-0.6-2.9c-0.4-0.6-1-0.9-1.7-1.1c-0.7-0.1-1.6-0.2-2.7-0.1l-1.9,0.1v8.6c0,0.8,0,1.6,0,2.3
				c0,0.7-0.1,1.3-0.1,1.7l7.2,0c1.1,0,2.1-0.2,3-0.6c0.9-0.4,1.7-1.1,2.2-2.1c0.6-1,0.9-2.4,0.9-4.1h2.6l-0.2,9.9h-24.8v-2.6
				c0.9,0,1.6-0.2,2-0.4c0.5-0.3,0.8-0.7,1-1.4c0.2-0.7,0.3-1.6,0.3-2.8v-18.6c0-0.8,0-1.5,0.1-2.2c0-0.7,0.1-1.3,0.1-1.7
				c-0.5,0-1.2,0.1-1.8,0.1c-0.7,0-1.2,0-1.7,0.1v-3.1h23.4l0.3,8.8h-2.6c0-1.8-0.3-3.1-0.9-4c-0.6-0.9-1.3-1.5-2.3-1.8
				c-0.9-0.3-1.9-0.4-2.8-0.4l-2.5,0c-0.9,0-1.5,0.2-2,0.4c-0.5,0.2-0.8,0.7-1,1.3c-0.2,0.6-0.3,1.6-0.3,2.8v7.1l6.6,0l-0.2-4.1h3.1
				v10.8H4662.8z"/>
			<path d="M4676.1,964.8v-2.6c0.9,0,1.6-0.2,2-0.4c0.5-0.3,0.8-0.7,1-1.4c0.2-0.7,0.3-1.6,0.3-2.8v-18.6c0-0.8,0-1.5,0.1-2.2
				c0-0.7,0.1-1.3,0.1-1.7c-0.5,0-1.2,0.1-1.8,0.1c-0.7,0-1.2,0-1.7,0.1v-3.1c2.1,0,4.2-0.1,6.3-0.1c2.1,0,4.2,0,6.3,0
				c2.9,0,5.3,0.3,7.3,1c2,0.7,3.5,1.7,4.5,3.1c1,1.4,1.5,3.2,1.5,5.4c0,1.3-0.3,2.5-0.9,3.7c-0.6,1.2-1.5,2.3-2.7,3.2
				c-1.2,0.9-2.9,1.7-4.9,2.2c0.6,0.3,1.2,0.8,1.7,1.4c0.6,0.6,1.1,1.2,1.5,2l2.6,3.9c0.6,1,1.2,1.8,1.8,2.4
				c0.5,0.6,1.1,1.1,1.7,1.4c0.6,0.3,1.2,0.5,2,0.5v2.6h-7.2c-0.7-0.5-1.3-1.2-1.9-2c-0.6-0.8-1.2-1.7-1.8-2.7l-3.4-5.4
				c-0.4-0.7-0.8-1.3-1.2-1.8c-0.4-0.6-0.8-1.1-1.2-1.5c-0.5,0-1,0-1.4,0c-0.4,0-0.9,0-1.3,0v6.3c0,0.9,0,1.7,0,2.4
				c0,0.7-0.1,1.3-0.1,1.7c0.3,0,0.8-0.1,1.3-0.1c0.5,0,1,0,1.4,0c0.5,0,0.9,0,1.1,0v3.1H4676.1z M4687.9,948.7
				c1.8,0,3.2-0.3,4.4-0.8c1.2-0.5,2-1.3,2.6-2.3c0.6-1.1,0.9-2.4,0.9-4.1c0-1.4-0.2-2.5-0.6-3.4c-0.4-0.9-1-1.5-1.7-2
				c-0.7-0.5-1.5-0.8-2.3-1c-0.8-0.2-1.7-0.3-2.5-0.3s-1.5,0.1-1.9,0.4c-0.5,0.2-0.8,0.7-1,1.3c-0.2,0.6-0.3,1.5-0.3,2.6v9.4
				c0.4,0,0.8,0.1,1.2,0.1C4687,948.7,4687.4,948.7,4687.9,948.7z"/>
			<path d="M4707.7,964.8v-2.6c0.9,0,1.6-0.2,2-0.4c0.5-0.3,0.8-0.7,1-1.4c0.2-0.7,0.3-1.6,0.3-2.8v-18.6c0-0.8,0-1.5,0.1-2.2
				c0-0.7,0.1-1.3,0.1-1.7c-0.5,0-1.2,0.1-1.8,0.1c-0.7,0-1.2,0-1.7,0.1v-3.1c2.1,0,4.2-0.1,6.3-0.1c2.1,0,4.2,0,6.3,0
				c2.9,0,5.3,0.3,7.3,1c2,0.7,3.5,1.7,4.5,3.1c1,1.4,1.5,3.2,1.5,5.4c0,1.3-0.3,2.5-0.9,3.7c-0.6,1.2-1.5,2.3-2.7,3.2
				c-1.2,0.9-2.9,1.7-4.9,2.2c0.6,0.3,1.2,0.8,1.7,1.4c0.6,0.6,1.1,1.2,1.5,2l2.6,3.9c0.6,1,1.2,1.8,1.8,2.4
				c0.5,0.6,1.1,1.1,1.7,1.4c0.6,0.3,1.2,0.5,2,0.5v2.6h-7.2c-0.7-0.5-1.3-1.2-1.9-2c-0.6-0.8-1.2-1.7-1.8-2.7l-3.4-5.4
				c-0.4-0.7-0.8-1.3-1.2-1.8c-0.4-0.6-0.8-1.1-1.2-1.5c-0.5,0-1,0-1.4,0c-0.4,0-0.9,0-1.3,0v6.3c0,0.9,0,1.7,0,2.4
				c0,0.7-0.1,1.3-0.1,1.7c0.3,0,0.8-0.1,1.3-0.1s1,0,1.4,0c0.5,0,0.9,0,1.1,0v3.1H4707.7z M4719.5,948.7c1.8,0,3.2-0.3,4.4-0.8
				c1.2-0.5,2-1.3,2.6-2.3c0.6-1.1,0.9-2.4,0.9-4.1c0-1.4-0.2-2.5-0.6-3.4s-1-1.5-1.7-2c-0.7-0.5-1.5-0.8-2.3-1
				c-0.8-0.2-1.7-0.3-2.5-0.3c-0.8,0-1.5,0.1-1.9,0.4c-0.5,0.2-0.8,0.7-1,1.3c-0.2,0.6-0.3,1.5-0.3,2.6v9.4c0.4,0,0.8,0.1,1.2,0.1
				C4718.6,948.7,4719,948.7,4719.5,948.7z"/>
			<path d="M4755.1,965.6c-3,0-5.6-0.5-7.7-1.5c-2.1-1-3.8-2.3-5.1-4c-1.3-1.7-2.3-3.5-2.9-5.5c-0.6-2-0.9-4-0.9-6.1
				c0-2,0.3-3.9,1-5.9c0.7-2,1.7-3.8,3.1-5.5s3.1-3,5.2-4.1c2.1-1,4.5-1.5,7.3-1.5c2.9,0,5.4,0.5,7.5,1.5c2.1,1,3.8,2.4,5.2,4.1
				c1.3,1.7,2.3,3.5,3,5.5c0.6,2,1,4,1,5.9c0,1.9-0.3,3.9-1,5.9c-0.7,2-1.7,3.8-3.1,5.5c-1.4,1.7-3.1,3.1-5.2,4.1
				C4760.4,965.1,4757.9,965.6,4755.1,965.6z M4755.5,962.7c1.8,0,3.3-0.4,4.5-1.2c1.2-0.8,2.2-1.9,3-3.2c0.8-1.3,1.3-2.7,1.7-4.3
				c0.4-1.6,0.5-3.1,0.5-4.6c0-2.1-0.2-4-0.7-5.8c-0.4-1.8-1.1-3.4-2-4.8c-0.9-1.4-2-2.4-3.3-3.2c-1.3-0.8-2.9-1.2-4.6-1.1
				c-1.7,0-3.2,0.5-4.4,1.3c-1.2,0.8-2.2,1.9-3,3.2c-0.8,1.3-1.3,2.8-1.7,4.4c-0.3,1.6-0.5,3.1-0.5,4.7c0,1.6,0.2,3.2,0.6,4.9
				s1,3.3,1.8,4.8c0.8,1.5,1.9,2.7,3.2,3.7C4752,962.2,4753.6,962.7,4755.5,962.7z"/>
			<path d="M4800.9,965.4l-16.4-21c-0.3-0.5-0.7-1-1.1-1.5c-0.4-0.5-0.8-1-1.2-1.6h0l0.1,16.3c0,0.8,0,1.6,0,2.4
				c0,0.8-0.1,1.4-0.1,1.9c0.5,0,1.2-0.1,1.8-0.1c0.7,0,1.2,0,1.7,0v3.1h-10.1v-2.6c0.8,0,1.5-0.2,1.9-0.4c0.5-0.2,0.8-0.6,1-1.2
				c0.2-0.6,0.3-1.3,0.3-2.3l0-19.4c0-0.7,0-1.5,0-2.1c0-0.7,0.1-1.2,0.1-1.7c-0.5,0-1.1,0.1-1.8,0.1c-0.7,0-1.2,0-1.7,0.1v-3.1h6.8
				l15.6,19.8c0.7,0.8,1.2,1.6,1.7,2.2s0.9,1.2,1.3,1.8h0v-17c0-0.8,0-1.5,0-2.2c0-0.7,0.1-1.3,0.1-1.7c-0.5,0-1.1,0.1-1.8,0.1
				c-0.7,0-1.3,0-1.7,0.1v-3.1h10.1v2.6c-0.9,0-1.5,0.2-2,0.4c-0.5,0.3-0.8,0.7-1,1.4c-0.2,0.7-0.3,1.6-0.3,2.8l0,26H4800.9z"/>
			<path d="M4828.1,953.3c0-1.3-0.2-2.3-0.6-2.9c-0.4-0.6-1-0.9-1.7-1.1c-0.7-0.1-1.6-0.2-2.7-0.1l-1.9,0.1v8.6c0,0.8,0,1.6,0,2.3
				c0,0.7-0.1,1.3-0.1,1.7l7.2,0c1.1,0,2.1-0.2,3-0.6c0.9-0.4,1.7-1.1,2.2-2.1c0.6-1,0.9-2.4,0.9-4.1h2.6l-0.2,9.9h-24.8v-2.6
				c0.9,0,1.6-0.2,2-0.4c0.5-0.3,0.8-0.7,1-1.4c0.2-0.7,0.3-1.6,0.3-2.8v-18.6c0-0.8,0-1.5,0.1-2.2c0-0.7,0.1-1.3,0.1-1.7
				c-0.5,0-1.2,0.1-1.8,0.1c-0.7,0-1.2,0-1.7,0.1v-3.1h23.4l0.3,8.8h-2.6c0-1.8-0.3-3.1-0.9-4c-0.6-0.9-1.3-1.5-2.2-1.8
				c-0.9-0.3-1.9-0.4-2.8-0.4l-2.5,0c-0.9,0-1.5,0.2-2,0.4c-0.5,0.2-0.8,0.7-1,1.3c-0.2,0.6-0.3,1.6-0.3,2.8v7.1l6.6,0l-0.2-4.1h3.1
				v10.8H4828.1z"/>
			<path d="M4860.3,942.5c-0.2-1.6-0.7-3.1-1.4-4.3c-0.7-1.2-1.6-2.2-2.8-2.8c-1.2-0.7-2.5-1-4.1-1c-1.5,0-2.8,0.4-3.9,1.3
				c-1,0.9-1.5,1.9-1.5,3.2c0,1.1,0.3,2,0.9,2.7c0.6,0.8,1.5,1.5,2.7,2.1c1.2,0.6,2.6,1.3,4.2,2c1.2,0.5,2.4,1,3.6,1.7
				c1.2,0.6,2.4,1.3,3.4,2.2c1,0.8,1.9,1.8,2.5,2.9c0.6,1.1,1,2.4,1,3.9c0,1.8-0.5,3.4-1.4,4.8c-1,1.4-2.3,2.5-4.1,3.3
				c-1.8,0.8-3.9,1.2-6.3,1.2c-1.3,0-2.7-0.2-4.2-0.6c-1.5-0.4-2.8-1-4.1-1.7l0.1,2h-3.2l-0.1-10.6h2.7c0.3,2.6,1.3,4.6,3,6
				c1.6,1.4,3.6,2,5.9,2c1.2,0,2.2-0.2,3.1-0.6c0.9-0.4,1.6-1,2.2-1.7c0.5-0.7,0.8-1.6,0.8-2.5c0-1.2-0.4-2.2-1.1-3
				c-0.8-0.8-1.7-1.4-2.9-2c-1.2-0.6-2.4-1.1-3.6-1.6c-1.4-0.6-2.8-1.2-4-1.9c-1.3-0.7-2.4-1.4-3.3-2.3c-1-0.9-1.7-1.8-2.3-3
				c-0.6-1.1-0.8-2.4-0.8-4c0-0.9,0.2-1.9,0.5-2.9c0.3-1,0.9-1.9,1.7-2.8c0.8-0.9,1.9-1.6,3.2-2.1c1.4-0.6,3-0.8,5.1-0.8
				c1.3,0,2.6,0.2,4.1,0.5c1.5,0.4,2.8,0.9,4,1.7l-0.2-2h3.3v10.7H4860.3z"/>
		</g>
	</g>
	<g>
		<g>
			<path d="M4694.6,1031.7v-2.7c0.9,0,1.6-0.2,2.1-0.7s1-1.2,1.3-2c0.3-0.8,0.7-1.7,1.1-2.8l9.4-25.3h2.6l10.3,25.8
				c0.2,0.5,0.4,1.3,0.8,2.2c0.3,1,0.5,1.8,0.5,2.5c0.5,0,1.1-0.1,1.6-0.1c0.5,0,0.9,0,1.3,0v3.1h-12.1v-2.6c1,0,1.6-0.2,2-0.6
				c0.3-0.4,0.5-0.9,0.4-1.6c0-0.7-0.2-1.3-0.5-2l-1.2-3.2l-11,0.2l-1,3.1c-0.2,0.5-0.4,1.1-0.7,1.8c-0.3,0.7-0.5,1.3-0.8,1.8
				c0.6,0,1.2-0.1,1.9-0.1c0.7,0,1.2,0,1.6,0v3.2H4694.6z M4704.3,1019h8.9l-2.6-6.8c-0.4-1.1-0.7-2.1-1.1-3.2
				c-0.3-1.1-0.6-2.1-0.8-3h-0.1c-0.2,0.6-0.4,1.4-0.7,2.4c-0.3,1-0.6,2.1-1.1,3.4L4704.3,1019z"/>
			<path d="M4746.9,1009.3c-0.2-1.6-0.7-3.1-1.4-4.3c-0.7-1.2-1.6-2.2-2.8-2.8c-1.2-0.7-2.5-1-4.1-1c-1.5,0-2.8,0.4-3.9,1.3
				c-1,0.9-1.5,1.9-1.5,3.2c0,1.1,0.3,2,0.9,2.7c0.6,0.8,1.5,1.5,2.7,2.1s2.6,1.3,4.2,2c1.2,0.5,2.4,1,3.6,1.7
				c1.2,0.6,2.4,1.3,3.4,2.2c1,0.8,1.9,1.8,2.5,2.9c0.6,1.1,1,2.4,1,3.9c0,1.8-0.5,3.4-1.4,4.8c-1,1.4-2.3,2.5-4.1,3.3
				c-1.8,0.8-3.9,1.2-6.3,1.2c-1.3,0-2.7-0.2-4.2-0.6c-1.5-0.4-2.8-1-4.1-1.7l0.1,2h-3.2l-0.1-10.6h2.7c0.3,2.6,1.3,4.6,3,6
				c1.6,1.4,3.6,2,5.9,2c1.2,0,2.2-0.2,3.1-0.6c0.9-0.4,1.6-1,2.2-1.7c0.5-0.7,0.8-1.6,0.8-2.5c0-1.2-0.4-2.2-1.1-3
				c-0.8-0.8-1.7-1.4-2.9-2c-1.2-0.6-2.4-1.1-3.6-1.6c-1.4-0.6-2.8-1.2-4-1.9c-1.3-0.7-2.4-1.4-3.3-2.3c-1-0.9-1.7-1.8-2.3-3
				c-0.6-1.1-0.8-2.4-0.8-4c0-0.9,0.2-1.9,0.5-2.9c0.3-1,0.9-1.9,1.7-2.8c0.8-0.9,1.9-1.6,3.2-2.1c1.4-0.6,3-0.8,5.1-0.8
				c1.3,0,2.6,0.2,4.1,0.5c1.5,0.4,2.8,0.9,4,1.7l-0.2-2h3.3v10.7H4746.9z"/>
			<path d="M4780.4,1009.4c0-1.7-0.2-3.2-0.7-4.3c-0.4-1.1-1.1-2-2-2.5c-0.9-0.6-2-0.8-3.3-0.8h-2.9v23c0,0.8,0,1.6,0,2.3
				c0,0.7-0.1,1.3-0.1,1.7c0.6,0,1.3-0.1,2.1-0.1c0.8,0,1.4,0,1.8,0v3.1h-12.9v-2.6c0.9,0,1.6-0.2,2-0.5c0.5-0.3,0.8-0.7,1-1.4
				c0.2-0.7,0.3-1.6,0.3-2.7l0-22.7h-3.1c-1.9,0-3.3,0.7-4.3,1.9c-1,1.2-1.5,3.1-1.5,5.7h-2.7l0.2-10.3h28.4l0.3,10.3H4780.4z"/>
			<path d="M4799.1,1001.6c-0.9,0-1.5,0.2-2,0.4c-0.5,0.3-0.8,0.7-1,1.4c-0.2,0.7-0.3,1.6-0.3,2.8v18.5c0,0.8,0,1.6,0,2.3
				c0,0.7-0.1,1.3-0.1,1.7c0.5,0,1.2-0.1,1.8-0.1c0.7,0,1.2,0,1.7,0v3.1h-12.6v-2.6c0.9,0,1.6-0.2,2-0.4c0.5-0.3,0.8-0.7,1-1.4
				c0.2-0.7,0.3-1.6,0.3-2.8v-18.6c0-0.8,0-1.5,0.1-2.2c0-0.7,0.1-1.3,0.1-1.7c-0.5,0-1.2,0.1-1.8,0.1c-0.7,0-1.2,0-1.7,0.1v-3.1
				h12.6V1001.6z"/>
			<path d="M4804,1031.7v-2.6c0.9,0,1.6-0.2,2-0.4c0.5-0.3,0.8-0.7,1-1.4c0.2-0.7,0.3-1.6,0.3-2.8v-18.6c0-0.8,0-1.5,0.1-2.2
				c0-0.7,0.1-1.3,0.1-1.7c-0.5,0-1.2,0.1-1.8,0.1c-0.7,0-1.2,0-1.7,0.1v-3.1h12.6v2.6c-0.9,0-1.5,0.2-2,0.4c-0.5,0.3-0.8,0.7-1,1.4
				c-0.2,0.7-0.3,1.6-0.3,2.8v18.5c0,0.8,0,1.6,0,2.3c0,0.7-0.1,1.2-0.1,1.7l7.2,0c1.9,0,3.4-0.6,4.4-1.9c1-1.3,1.6-3.2,1.6-5.8h2.7
				l-0.3,10.7H4804z"/>
			<path d="M4832.2,1031.7v-2.6c0.9,0,1.6-0.2,2-0.4c0.5-0.3,0.8-0.7,1-1.4c0.2-0.7,0.3-1.6,0.3-2.8v-18.6c0-0.8,0-1.5,0.1-2.2
				c0-0.7,0.1-1.3,0.1-1.7c-0.5,0-1.2,0.1-1.8,0.1c-0.7,0-1.2,0-1.7,0.1v-3.1h12.6v2.6c-0.9,0-1.5,0.2-2,0.4c-0.5,0.3-0.8,0.7-1,1.4
				c-0.2,0.7-0.3,1.6-0.3,2.8v18.5c0,0.8,0,1.6,0,2.3c0,0.7-0.1,1.2-0.1,1.7l7.2,0c1.9,0,3.4-0.6,4.4-1.9c1-1.3,1.6-3.2,1.6-5.8h2.7
				l-0.3,10.7H4832.2z"/>
			<path d="M4876,1032.4c-3,0-5.6-0.5-7.7-1.5c-2.1-1-3.8-2.3-5.1-4c-1.3-1.7-2.3-3.5-2.9-5.5c-0.6-2-0.9-4-0.9-6.1
				c0-2,0.3-3.9,1-5.9c0.7-2,1.7-3.8,3.1-5.5s3.1-3,5.2-4.1c2.1-1,4.5-1.5,7.3-1.5c2.9,0,5.4,0.5,7.5,1.5c2.1,1,3.8,2.4,5.2,4.1
				c1.3,1.7,2.3,3.5,3,5.5c0.6,2,1,4,1,5.9c0,1.9-0.3,3.9-1,5.9c-0.7,2-1.7,3.8-3.1,5.5c-1.4,1.7-3.1,3.1-5.2,4.1
				C4881.2,1031.9,4878.8,1032.4,4876,1032.4z M4876.4,1029.5c1.8,0,3.3-0.4,4.5-1.2c1.2-0.8,2.2-1.9,3-3.2c0.8-1.3,1.3-2.7,1.7-4.3
				c0.4-1.6,0.5-3.1,0.5-4.6c0-2.1-0.2-4-0.7-5.8c-0.4-1.8-1.1-3.4-2-4.8c-0.9-1.4-2-2.4-3.3-3.2c-1.3-0.8-2.9-1.2-4.6-1.1
				c-1.7,0-3.2,0.5-4.4,1.3c-1.2,0.8-2.2,1.9-3,3.2c-0.8,1.3-1.3,2.8-1.7,4.4c-0.3,1.6-0.5,3.1-0.5,4.7c0,1.6,0.2,3.2,0.6,4.9
				c0.4,1.7,1,3.3,1.8,4.8c0.8,1.5,1.9,2.7,3.2,3.7C4872.8,1029.1,4874.5,1029.5,4876.4,1029.5z"/>
		</g>
		<g>
			<path d="M4595.6,1032.3c-2.2,0-4.3-0.3-6.3-0.8c-2.1-0.5-3.9-1.3-5.6-2.5c-1.7-1.2-3-2.6-4-4.4c-1-1.8-1.5-4-1.5-6.5
				c0-3.2,1.1-6,3.2-8.5c2.1-2.5,4.9-4.4,8.3-5.8c-1.4-1.8-2.5-3.4-3.4-4.9c-0.8-1.5-1.4-3-1.8-4.4c-0.4-1.4-0.6-2.8-0.6-4.3
				c0-3.6,1.3-6.5,3.9-8.6c2.5-2.1,5.8-3.2,9.9-3.2c2.5,0,4.8,0.5,6.6,1.4c1.9,1,3.3,2.2,4.3,3.9c1,1.6,1.5,3.4,1.5,5.4
				c0,1.9-0.4,3.7-1.3,5.4c-0.9,1.7-2.1,3.3-3.9,4.8c-1.7,1.5-3.9,2.9-6.5,4.3c1,1,2.2,2.2,3.6,3.8c1.4,1.5,3,3.1,4.7,4.7
				c1.7,1.6,3.3,3.2,4.8,4.6c0.2-0.8,0.3-1.5,0.4-2.3c0.1-0.7,0.1-1.4,0.1-2.1c0-1.2-0.2-2.3-0.5-3.3c-0.3-1-0.8-1.8-1.5-2.4
				c-0.7-0.6-1.7-0.9-3-1v-3.2h12.6v3.9l-5.4-0.3c0.6,0.6,1,1.4,1.3,2.4c0.3,0.9,0.4,2,0.5,3.2c0,1.1,0,2.3-0.3,3.7
				c-0.2,1.4-0.6,2.8-1.2,4.3c0.4,0.4,0.9,0.8,1.4,1.2c0.5,0.4,1,0.8,1.5,1.3c2.1,1.9,3.9,3.3,5.5,4.3c1.6,1,2.8,1.5,3.7,1.5v3.2
				h-7.2c-0.4,0-1.4-0.4-2.9-1.3c-1.5-0.9-3.3-2.2-5.6-4.2c-1.7,1.9-3.9,3.4-6.4,4.7C4602.3,1031.6,4599.2,1032.3,4595.6,1032.3z
				 M4596.9,1028.1c2.7,0.1,5-0.4,6.8-1.3c1.9-0.9,3.4-2.1,4.6-3.6c-0.4-0.4-0.9-0.8-1.3-1.2c-0.4-0.4-0.9-0.8-1.4-1.2
				c-3.1-3-5.8-5.7-8.1-7.9c-2.3-2.3-4.2-4.3-6-6.3c-1.3,0.9-2.4,1.9-3.1,3.2c-0.8,1.3-1.3,2.5-1.6,3.8c-0.3,1.3-0.5,2.3-0.5,3.3
				c0,2.6,0.5,4.6,1.4,6.3c1,1.6,2.2,2.9,3.8,3.7C4593.4,1027.6,4595.1,1028,4596.9,1028.1z M4596.5,1001.2c2.5-1.7,4.3-3.7,5.4-5.8
				c1.2-2.2,1.8-4.3,1.8-6.2c0-2.2-0.6-3.9-1.7-5.3c-1.1-1.4-2.7-2.1-4.7-2.1c-1.8,0-3.3,0.7-4.5,2.1c-1.2,1.4-1.8,3.3-1.8,5.9
				c0,1.9,0.5,3.8,1.5,5.8C4593.6,997.6,4594.9,999.5,4596.5,1001.2z"/>
			<path d="M4688.1,996c-0.5-4.4-2.1-7.8-4.6-10.2c-2.5-2.4-5.8-3.6-9.8-3.6c-2.5,0-4.9,0.6-7.1,1.7c-2.2,1.1-4,2.7-5.6,4.7
				c-1.6,2-2.8,4.4-3.6,7.2c-0.9,2.8-1.3,5.8-1.3,9.1c0,4.5,0.8,8.4,2.4,11.9c1.6,3.5,3.7,6.1,6.5,8.1c2.8,1.9,5.9,2.9,9.4,2.9
				c3.1,0,6.2-0.7,9.3-2.2c3.1-1.5,5.6-3.6,7.6-6.4l2.4,2.1c-2.2,3-4.6,5.4-7.1,7c-2.5,1.6-5,2.7-7.5,3.3c-2.5,0.6-4.7,0.8-6.7,0.8
				c-3.7,0-7.1-0.7-10.1-2c-3.1-1.3-5.7-3.2-8-5.6c-2.2-2.4-3.9-5.1-5.1-8.3c-1.2-3.2-1.8-6.6-1.8-10.3c0-3.4,0.5-6.8,1.6-10.1
				c1.1-3.3,2.7-6.3,4.8-8.9c2.1-2.7,4.8-4.8,8-6.4c3.2-1.6,6.9-2.4,11.2-2.4c2.5,0,4.9,0.3,7.3,1c2.4,0.7,4.7,1.7,6.9,3.2l-0.4-3.7
				h4.6V996H4688.1z"/>
		</g>
	</g>
	<path class="st2" d="M4659.1,738.1V751c0,1.1,0.9,2,2,2h148.6c1.1,0,2-0.9,2-2v-12.9c0-1.1-0.9-2-2-2h-148.6
		C4660,736.1,4659.1,737,4659.1,738.1z"/>
	<path class="st3" d="M4661.1,888.7h12.9c1.1,0,2-0.9,2-2V806c0-1.1-0.9-2-2-2h-12.9c-1.1,0-2,0.9-2,2v80.8
		C4659.1,887.8,4660,888.7,4661.1,888.7z"/>
	<path class="st0" d="M4707.9,770h-46.8c-1.1,0-2,0.9-2,2v12.9c0,1.1,0.9,2,2,2h29.9c0.6,0,1.1,0.2,1.4,0.6l17-17
		C4709,770.2,4708.5,770,4707.9,770z"/>
	<path class="st2" d="M4692.4,787.6c0.4,0.4,0.6,0.9,0.6,1.4v97.7c0,1.1,0.9,2,2,2h12.9c1.1,0,2-0.9,2-2V772c0-0.6-0.2-1.1-0.6-1.4
		L4692.4,787.6z"/>
	<path class="st3" d="M4728.9,888.7h80.8c1.1,0,2-0.9,2-2v-12.9c0-1.1-0.9-2-2-2h-63.8c-0.6,0-1.1-0.2-1.4-0.6l-17,17
		C4727.9,888.5,4728.4,888.7,4728.9,888.7z"/>
	<path class="st2" d="M4744.5,787.6l-17-17c-0.4,0.4-0.6,0.9-0.6,1.4v114.7c0,0.6,0.2,1.1,0.6,1.4l17-17c-0.4-0.4-0.6-0.9-0.6-1.4
		V789C4743.9,788.4,4744.1,787.9,4744.5,787.6z"/>
	<path class="st0" d="M4745.9,787h63.8c1.1,0,2-0.9,2-2V772c0-1.1-0.9-2-2-2h-80.8c-0.6,0-1.1,0.2-1.4,0.6l17,17
		C4744.8,787.2,4745.3,787,4745.9,787z"/>
	<path class="st2" d="M4762.9,854.8h46.9c1.1,0,2-0.9,2-2v-12.9c0-1.1-0.9-2-2-2h-29.9c-0.6,0-1.1-0.2-1.4-0.6l-17,17
		C4761.8,854.6,4762.3,854.8,4762.9,854.8z"/>
	<path class="st0" d="M4779.8,820.9h29.9c1.1,0,2-0.9,2-2V806c0-1.1-0.9-2-2-2h-31.9h-14.9c-0.6,0-1.1,0.2-1.4,0.6l17,17
		C4778.8,821.1,4779.3,820.9,4779.8,820.9z"/>
	<path class="st2" d="M4760.8,806v46.8c0,0.6,0.2,1.1,0.6,1.4l17-17c-0.4-0.4-0.6-0.9-0.6-1.4v-12.9c0-0.6,0.2-1.1,0.6-1.4l-17-17
		C4761.1,804.9,4760.8,805.4,4760.8,806z"/>
</g>
</svg>
