<svg id="c" xmlns="http://www.w3.org/2000/svg" xmlns:xlink="http://www.w3.org/1999/xlink" width="180" height="67.414" viewBox="0 0 180 67.414">
  <defs>
    <radialGradient id="radial-gradient" cx="0.5" cy="0.5" r="0.5" gradientUnits="objectBoundingBox">
      <stop offset="0.15" stop-color="#7acbde"/>
      <stop offset="0.29" stop-color="#48bed5"/>
      <stop offset="0.43" stop-color="#21b4cf"/>
      <stop offset="0.53" stop-color="#08aecb"/>
      <stop offset="0.6" stop-color="#00acca"/>
      <stop offset="0.68" stop-color="#00a6c4"/>
      <stop offset="0.79" stop-color="#0096b3"/>
      <stop offset="0.91" stop-color="#007b98"/>
      <stop offset="0.95" stop-color="#00728f"/>
    </radialGradient>
  </defs>
  <g id="Group_4883" data-name="Group 4883">
    <g id="Group_4881" data-name="Group 4881" transform="translate(82.307 9.284)">
      <path id="Path_26309" data-name="Path 26309" d="M523.14,43.306c0-2.109-1.777-3.456-4.5-3.456H512.75V53.665H518.9c3.02,0,5.016-1.4,5.016-3.788,0-1.917-1.325-2.861-2.961-3.356a3.335,3.335,0,0,0,2.193-3.215Zm-.811,6.471c0,1.558-1.3,2.485-3.4,2.485h-4.642V47.446h4.369c2.411,0,3.674.809,3.674,2.328Zm-3.948-3.788h-4.093V41.251H518.5c1.976,0,3.061.887,3.061,2.269,0,1.636-1.3,2.466-3.177,2.466Z" transform="translate(-473.116 -39.657)"/>
      <path id="Path_26310" data-name="Path 26310" d="M465.186,47.415c2.3-.238,3.755-1.62,3.755-3.774,0-2.378-1.776-3.781-4.507-3.781H457.98V53.092a.785.785,0,0,0,1.57,0V47.456h3.972l3.448,5.95a.729.729,0,0,0,1.265-.725l-3.049-5.268ZM459.55,46V41.3H464.3c1.979,0,3.063.956,3.063,2.34,0,1.636-1.082,2.357-3.063,2.357Z" transform="translate(-431.371 -39.665)"/>
      <path id="Path_26311" data-name="Path 26311" d="M403.141,193.085c2.3-.238,3.755-1.617,3.755-3.777,0-2.376-1.779-3.779-4.507-3.779H395.93v13.232a.787.787,0,0,0,1.574,0v-5.634h3.969l3.446,5.95a.731.731,0,0,0,1.27-.725l-3.051-5.268Zm-5.634-1.415v-4.7h4.744c1.976,0,3.065.954,3.065,2.335,0,1.636-1.089,2.359-3.065,2.359h-4.744Z" transform="translate(-384.078 -150.692)"/>
      <path id="Path_26312" data-name="Path 26312" d="M626.7,47.415c2.3-.238,3.755-1.62,3.755-3.774,0-2.378-1.776-3.781-4.5-3.781H619.5V53.092a.785.785,0,1,0,1.57,0V47.456h3.974l3.448,5.95a.728.728,0,0,0,1.263-.725L626.7,47.413ZM621.067,46V41.3h4.752c1.974,0,3.058.956,3.058,2.34,0,1.636-1.082,2.357-3.058,2.357Z" transform="translate(-554.479 -39.665)"/>
      <path id="Path_26313" data-name="Path 26313" d="M357.921,39.04a.783.783,0,0,0-.78.785v5.546h-8.316V39.825a.787.787,0,0,0-1.574,0v12.64a.787.787,0,0,0,1.574,0V46.829h8.316v5.636a.785.785,0,1,0,1.57,0V39.825A.787.787,0,0,0,357.921,39.04Z" transform="translate(-346.975 -39.04)"/>
      <path id="Path_26314" data-name="Path 26314" d="M536.683,111.88a.785.785,0,0,0-.782.782v5.548h-8.317v-5.548a.787.787,0,0,0-1.574,0V125.3a.787.787,0,0,0,1.574,0v-5.632H535.9V125.3a.785.785,0,1,0,1.57,0V112.662a.789.789,0,0,0-.787-.782Z" transform="translate(-483.222 -94.557)"/>
      <path id="Path_26315" data-name="Path 26315" d="M565.481,184.72a.785.785,0,0,0-.782.782v5.551H556.38V185.5a.785.785,0,0,0-1.57,0v12.642a.785.785,0,0,0,1.57,0v-5.634H564.7v5.634a.786.786,0,0,0,1.572,0V185.5A.786.786,0,0,0,565.481,184.72Z" transform="translate(-505.173 -150.075)"/>
      <path id="Path_26316" data-name="Path 26316" d="M630.792,198.738h8.259a.719.719,0,0,0,0-1.439h-6.695V185.512a.788.788,0,0,0-.792-.782.775.775,0,0,0-.775.782V198.74Z" transform="translate(-563.084 -150.082)"/>
      <path id="Path_26317" data-name="Path 26317" d="M673.82,198.738h8.257a.724.724,0,0,0,.721-.723.716.716,0,0,0-.721-.716h-6.692V185.512a.782.782,0,0,0-1.565,0V198.74Z" transform="translate(-595.88 -150.082)"/>
      <path id="Path_26318" data-name="Path 26318" d="M458.14,125.3a.784.784,0,1,0,1.567,0V112.655a.784.784,0,1,0-1.567,0Z" transform="translate(-431.493 -94.55)"/>
      <path id="Path_26319" data-name="Path 26319" d="M613.55,198.145a.785.785,0,0,0,1.57,0V185.5a.785.785,0,0,0-1.57,0Z" transform="translate(-549.944 -150.075)"/>
      <path id="Path_26320" data-name="Path 26320" d="M415.82,52.234h-8.236V47.456h6.973a.728.728,0,0,0,0-1.455h-6.973V41.3h8.236a.719.719,0,1,0,0-1.439h-9.8V53.675h9.8a.721.721,0,0,0,0-1.441Z" transform="translate(-391.768 -39.665)"/>
      <path id="Path_26321" data-name="Path 26321" d="M460.515,197.906h-8.243v-4.778h6.98a.729.729,0,0,0,0-1.458h-6.98v-4.7h8.243a.721.721,0,0,0,0-1.441H450.71v13.815h9.805a.719.719,0,0,0,0-1.439Z" transform="translate(-425.83 -150.692)"/>
      <path id="Path_26322" data-name="Path 26322" d="M512.465,197.906h-8.243v-4.778h6.98a.732.732,0,0,0,.728-.732.724.724,0,0,0-.728-.725h-6.98v-4.7h8.243a.721.721,0,0,0,0-1.441H502.66v13.815h9.805a.719.719,0,0,0,0-1.439Z" transform="translate(-465.425 -150.692)"/>
      <path id="Path_26323" data-name="Path 26323" d="M577.34,52.234H569.1V47.456h6.975a.728.728,0,1,0,0-1.455H569.1V41.3h8.238a.719.719,0,0,0,0-1.439h-9.8V53.675h9.8a.721.721,0,0,0,0-1.441Z" transform="translate(-514.876 -39.665)"/>
      <path id="Path_26324" data-name="Path 26324" d="M356.805,185.53H347.29v13.232a.783.783,0,0,0,.78.782.792.792,0,0,0,.79-.782v-5.634h6.374a.729.729,0,0,0,0-1.458H348.86v-4.7H356.8a.721.721,0,0,0,0-1.441Z" transform="translate(-347.005 -150.692)"/>
      <path id="Path_26325" data-name="Path 26325" d="M351.847,118.2c-3.044-.649-3.753-1.382-3.753-2.7s1.144-2.252,2.942-2.252a5.9,5.9,0,0,1,3.436,1.089.74.74,0,0,0,1.051-.071.777.777,0,0,0-.1-1.106,7.17,7.17,0,0,0-4.347-1.31c-2.626,0-4.542,1.579-4.542,3.788s1.46,3.315,4.642,4c2.9.611,3.6,1.344,3.6,2.645,0,1.4-1.225,2.369-3.087,2.369a6.409,6.409,0,0,1-4.366-1.634.754.754,0,0,0-1.058.112.729.729,0,0,0,.117,1.044,7.992,7.992,0,0,0,5.253,1.876c2.742,0,4.718-1.536,4.718-3.924,0-2.131-1.42-3.258-4.5-3.929Z" transform="translate(-346.092 -94.534)"/>
      <path id="Path_26326" data-name="Path 26326" d="M719.508,191.075c-3.042-.649-3.753-1.379-3.753-2.7s1.144-2.25,2.942-2.25a5.889,5.889,0,0,1,3.439,1.087.744.744,0,0,0,1.053-.069.782.782,0,0,0-.1-1.108,7.17,7.17,0,0,0-4.347-1.31c-2.626,0-4.542,1.579-4.542,3.793s1.465,3.315,4.64,4c2.909.611,3.6,1.344,3.6,2.647,0,1.4-1.225,2.369-3.087,2.369a6.41,6.41,0,0,1-4.369-1.636.75.75,0,0,0-1.058.117.735.735,0,0,0,.116,1.044,7.987,7.987,0,0,0,5.253,1.876c2.744,0,4.721-1.539,4.721-3.926,0-2.131-1.422-3.258-4.5-3.929Z" transform="translate(-626.317 -150.075)"/>
      <path id="Path_26327" data-name="Path 26327" d="M668.79,39.85a.716.716,0,0,0-.73.713.73.73,0,0,0,.73.73h4.266V53.077a.787.787,0,0,0,1.574,0V41.294h4.259a.731.731,0,0,0,.728-.73.717.717,0,0,0-.728-.713Z" transform="translate(-591.49 -39.657)"/>
      <path id="Path_26328" data-name="Path 26328" d="M471.858,112.7a.712.712,0,0,0-.728.709.728.728,0,0,0,.728.73h4.274v11.786a.781.781,0,0,0,.78.782.791.791,0,0,0,.79-.782V114.139h4.259a.732.732,0,0,0,.73-.73.714.714,0,0,0-.73-.709Z" transform="translate(-441.394 -95.182)"/>
      <path id="Path_26329" data-name="Path 26329" d="M402.8,122.22l3.922-6.488v9.824a.78.78,0,0,0,.778.785.788.788,0,0,0,.79-.785V112.888h0a.73.73,0,0,0-1.36-.312l-4.761,7.867-4.759-7.867a.724.724,0,0,0-.992-.269.743.743,0,0,0-.366.583h0v12.666a.78.78,0,1,0,1.56,0v-9.824l3.926,6.488a.714.714,0,0,0,.633.354.722.722,0,0,0,.633-.354Z" transform="translate(-384.169 -94.809)"/>
    </g>
    <path id="Path_26330" data-name="Path 26330" d="M32.724,18.821a.983.983,0,0,0,1.967,0V.982a.983.983,0,0,0-1.967,0Zm-3.819.761a.981.981,0,1,0,1.9-.509L26.186,1.843a.982.982,0,1,0-1.9.509Zm-3.494,1.724a.983.983,0,0,0,1.7-.982L18.2,4.875a.983.983,0,0,0-1.7.982Zm-2.928,2.568a.982.982,0,0,0,1.389-1.389L11.261,9.872a.982.982,0,0,0-1.389,1.389L22.486,23.875Zm-2.162,3.239a.982.982,0,0,0,.982-1.7L5.857,16.493a.983.983,0,0,0-.982,1.7l15.449,8.918ZM19.071,30.8a.982.982,0,1,0,.509-1.9L2.352,24.288a.982.982,0,0,0-.509,1.9L19.073,30.8Zm-.254,3.886a.982.982,0,0,0,0-1.964H.982a.982.982,0,0,0,0,1.964H18.819Zm.761,3.819a.982.982,0,1,0-.509-1.9L1.841,41.226a.982.982,0,0,0,.507,1.9l17.23-4.616ZM21.3,42a.983.983,0,0,0-.982-1.7L4.873,49.219a.982.982,0,1,0,.982,1.7L21.3,42Zm2.568,2.928a.982.982,0,0,0-1.389-1.389L9.867,56.154a.982.982,0,0,0,1.389,1.389Zm3.239,2.162a.982.982,0,1,0-1.7-.982L16.49,61.555a.983.983,0,0,0,1.7.982L27.111,47.09ZM30.8,48.341a.982.982,0,0,0-1.9-.509l-4.616,17.23a.982.982,0,0,0,1.9.509L30.8,48.341Zm3.886.252a.982.982,0,0,0-1.964,0V66.432a.982.982,0,1,0,1.964,0Zm3.819-.761a.981.981,0,1,0-1.9.509l4.616,17.23a.982.982,0,0,0,1.9-.509l-4.616-17.23ZM42,46.108a.983.983,0,0,0-1.7.982l8.921,15.449a.982.982,0,1,0,1.7-.982L42,46.108Zm2.928-2.568a.982.982,0,1,0-1.389,1.389L56.149,57.543a.981.981,0,0,0,1.389-1.386L44.924,43.542ZM47.086,40.3A.982.982,0,0,0,46.1,42l15.449,8.918a.983.983,0,0,0,.982-1.7L47.086,40.3Zm1.251-3.689a.982.982,0,0,0-.507,1.9l17.23,4.616a.982.982,0,1,0,.509-1.9l-17.23-4.616Zm.254-3.886a.982.982,0,1,0,0,1.964H66.43a.983.983,0,0,0,0-1.967H48.591Zm-.761-3.819a.982.982,0,0,0,.509,1.9l17.23-4.616a.982.982,0,1,0-.509-1.9L47.83,28.907Zm-1.724-3.491a.983.983,0,0,0,.982,1.7L62.537,18.2a.982.982,0,0,0-.982-1.7L46.106,25.42Zm-2.568-2.928a.982.982,0,1,0,1.389,1.389L57.54,11.263a.981.981,0,1,0-1.386-1.389L43.54,22.488ZM40.3,20.326a.982.982,0,1,0,1.7.982L50.919,5.857a.983.983,0,0,0-1.7-.982L40.3,20.324ZM36.61,19.075a.982.982,0,0,0,1.9.507l4.618-17.23a.982.982,0,0,0-1.9-.509l-4.616,17.23Z" fill="url(#radial-gradient)"/>
    <g id="Group_4882" data-name="Group 4882" transform="translate(0.731 0.731)">
      <path id="Path_26331" data-name="Path 26331" d="M122.837,11.434a.46.46,0,1,0,.913-.119l-1.032-7.834a.459.459,0,0,0-.911.121l1.03,7.834Z" transform="translate(-93.567 -3.081)" fill="#008da8"/>
      <path id="Path_26332" data-name="Path 26332" d="M89.809,19.666a.461.461,0,0,0,.851-.352l-2.744-6.63a.46.46,0,0,0-.849.352l2.747,6.63Z" transform="translate(-67.065 -10.182)" fill="#008da8"/>
      <path id="Path_26333" data-name="Path 26333" d="M59.434,35.7a.46.46,0,1,0,.73-.559l-3.5-4.564a.46.46,0,0,0-.73.561l3.5,4.564Z" transform="translate(-43.292 -23.899)" fill="#008da8"/>
      <path id="Path_26334" data-name="Path 26334" d="M33.544,58.958a.46.46,0,0,0,.559-.73L31.12,55.936a.46.46,0,1,0-.559.73Z" transform="translate(-23.886 -43.292)" fill="#008da8"/>
      <path id="Path_26335" data-name="Path 26335" d="M14.192,88.539a.46.46,0,1,0,.354-.849l-1.517-.633a.46.46,0,1,0-.352.849l1.517.633Z" transform="translate(-10.176 -67.057)" fill="#008da8"/>
      <path id="Path_26336" data-name="Path 26336" d="M3.719,122.756a.459.459,0,0,0,.121-.911l-.247-.038a.461.461,0,0,0-.121.913l.247.038Z" transform="translate(-3.073 -93.567)" fill="#008da8"/>
      <path id="Path_26337" data-name="Path 26337" d="M121.807,251.818a.459.459,0,1,0,.911.119l1.032-7.834a.461.461,0,0,0-.913-.121l-1.03,7.834Z" transform="translate(-93.567 -186.385)" fill="#008da8"/>
      <path id="Path_26338" data-name="Path 26338" d="M87.057,246.23a.46.46,0,0,0,.849.352l2.744-6.633a.461.461,0,0,0-.851-.352l-2.747,6.633Z" transform="translate(-67.057 -183.13)" fill="#008da8"/>
      <path id="Path_26339" data-name="Path 26339" d="M55.936,234.773a.46.46,0,0,0,.73.561l3.5-4.564a.46.46,0,0,0-.73-.559l-3.5,4.564Z" transform="translate(-43.292 -176.056)" fill="#008da8"/>
      <path id="Path_26340" data-name="Path 26340" d="M30.561,216.5a.46.46,0,0,0,.559.73l2.982-2.293a.46.46,0,0,0-.559-.73Z" transform="translate(-23.886 -163.922)" fill="#008da8"/>
      <path id="Path_26341" data-name="Path 26341" d="M12.671,190.58a.46.46,0,1,0,.352.849l1.517-.633a.46.46,0,1,0-.354-.849l-1.517.633Z" transform="translate(-10.172 -145.478)" fill="#008da8"/>
      <path id="Path_26342" data-name="Path 26342" d="M3.472,157.693a.461.461,0,0,0,.121.913l.247-.038a.459.459,0,0,0-.121-.911l-.247.038Z" transform="translate(-3.073 -120.891)" fill="#008da8"/>
      <path id="Path_26343" data-name="Path 26343" d="M155.41,3.593a.459.459,0,1,0-.911-.121l-1.032,7.834a.46.46,0,0,0,.913.119l1.032-7.834Z" transform="translate(-117.698 -3.073)" fill="#008da8"/>
      <path id="Path_26344" data-name="Path 26344" d="M184.653,13.026a.457.457,0,0,0-.25-.6.462.462,0,0,0-.6.247l-2.744,6.63a.461.461,0,0,0,.851.352l2.747-6.63Z" transform="translate(-138.702 -10.176)" fill="#008da8"/>
      <path id="Path_26345" data-name="Path 26345" d="M213.364,31.13a.46.46,0,0,0-.73-.561l-3.5,4.564a.46.46,0,1,0,.73.559l3.5-4.564Z" transform="translate(-160.058 -23.893)" fill="#008da8"/>
      <path id="Path_26346" data-name="Path 26346" d="M240.4,56.666a.46.46,0,0,0-.559-.73l-2.982,2.293a.46.46,0,0,0,.559.73l2.982-2.293Z" transform="translate(-181.12 -43.292)" fill="#008da8"/>
      <path id="Path_26347" data-name="Path 26347" d="M262.982,87.906a.46.46,0,1,0-.352-.849l-1.517.633a.46.46,0,1,0,.354.849l1.517-.633Z" transform="translate(-199.531 -67.057)" fill="#008da8"/>
      <path id="Path_26348" data-name="Path 26348" d="M276.25,122.71a.461.461,0,0,0-.121-.913l-.247.038a.459.459,0,1,0,.121.911l.247-.038Z" transform="translate(-210.699 -93.559)" fill="#008da8"/>
      <path id="Path_26349" data-name="Path 26349" d="M154.37,243.992a.461.461,0,0,0-.913.121l1.032,7.834a.459.459,0,1,0,.911-.119l-1.032-7.834Z" transform="translate(-117.69 -186.393)" fill="#008da8"/>
      <path id="Path_26350" data-name="Path 26350" d="M181.909,239.61a.461.461,0,0,0-.851.352l2.744,6.633a.461.461,0,0,0,.851-.352l-2.747-6.633Z" transform="translate(-138.703 -183.141)" fill="#008da8"/>
      <path id="Path_26351" data-name="Path 26351" d="M209.866,230.2a.46.46,0,1,0-.73.559l3.5,4.564a.46.46,0,0,0,.73-.561l-3.5-4.564Z" transform="translate(-160.058 -176.048)" fill="#008da8"/>
      <path id="Path_26352" data-name="Path 26352" d="M237.41,214.206a.46.46,0,1,0-.559.73l2.982,2.293a.46.46,0,0,0,.559-.73Z" transform="translate(-181.117 -163.922)" fill="#008da8"/>
      <path id="Path_26353" data-name="Path 26353" d="M261.458,189.947a.46.46,0,0,0-.354.849l1.517.633a.46.46,0,1,0,.352-.849l-1.517-.633Z" transform="translate(-199.523 -145.478)" fill="#008da8"/>
      <path id="Path_26354" data-name="Path 26354" d="M276,157.637a.459.459,0,1,0-.121.911l.247.038a.461.461,0,0,0,.121-.913l-.247-.038Z" transform="translate(-210.699 -120.876)" fill="#008da8"/>
    </g>
  </g>
</svg>
